<svg width="950" height="220" viewBox="0 0 950 220" fill="none" xmlns="http://www.w3.org/2000/svg">
<path d="M130.14 85.8502C131.16 85.3702 131.87 85.1302 132.48 84.7402C134.65 83.3202 136.85 81.9402 138.91 80.3702C143.16 77.1402 147.68 74.4502 152.88 73.0202C156.49 72.0302 158.72 69.5302 160.46 66.3702C161.59 64.3102 162.55 62.1302 164.75 60.8002C168.24 58.7002 171.84 59.6602 173.23 63.4002C173.93 65.2802 175.14 67.0302 174.81 69.2702C174.72 69.8802 175.43 70.9302 176.06 71.2702C181.35 74.1802 184.43 78.7202 185.65 84.4602C186.59 88.8702 187.08 93.3702 187.66 97.8502C187.85 99.2802 188.06 100.6 189.13 101.59C190.42 101.67 190.89 100.83 191.38 99.9602C193.43 96.2802 195.48 92.5902 197.58 88.9302C198.55 87.2502 199.56 85.5802 200.69 84.0102C202.79 81.0902 204.12 77.8002 205.44 74.5102C206.15 72.7502 207.5 71.6602 209.21 71.2102C210.41 70.8902 212 70.6402 212.97 71.1702C215.58 72.6002 218.41 74.0002 219.17 77.3602C219.26 77.7802 219.44 78.1902 219.63 78.5702C220.29 79.8402 221.07 80.2702 222.24 79.5102C225.5 77.3902 228.74 75.2602 230.42 71.4602C231.73 68.5002 233.08 65.5202 234.84 62.8302C235.92 61.1902 237.68 59.8702 239.36 58.7702C241.34 57.4702 242.53 57.7702 244.32 59.3802C246.18 61.0602 246.97 63.3502 247.39 65.6802C247.55 66.5602 246.82 67.7002 246.27 68.5802C244.15 72.0002 244.48 73.8702 248.11 75.5802C251.98 77.4002 254.53 80.6502 257.42 83.5402C258.12 84.2402 258.44 85.4302 258.71 86.4502C259.62 89.8002 260.09 93.2202 260.05 96.7002C260.05 97.6802 260 98.9302 261.14 99.1302C261.97 99.2802 263.21 98.9602 263.78 98.3702C266.05 96.0702 268.14 93.5902 270.28 91.1602C273.99 86.9402 277.84 82.8902 282.12 79.2002C284.72 76.9602 287.53 75.3702 290.63 74.0802C296.57 71.6002 302.61 71.5502 308.75 73.1002C309.16 73.2002 309.58 73.4002 309.92 73.6502C313.21 76.0702 316.96 78.0602 319.2 81.5602C321.02 84.4002 322.08 87.5702 319.93 90.9702C318.78 92.7802 318.2 94.9402 317.13 96.8102C315.8 99.1402 314.45 101.52 312.72 103.55C310 106.76 307.12 109.87 304.02 112.71C297.65 118.55 291.2 124.25 283.12 127.84C276.5 130.77 270.12 134.26 263.61 137.46C261.34 138.57 260.28 140.37 260.01 142.82C259.42 148.14 261.4 152.24 265.6 155.45C267.75 157.09 270.13 157.43 272.65 156.97C274.02 156.72 275.42 156.3 276.66 155.68C281.87 153.07 287.07 150.43 291.08 146C292.46 144.48 293.96 143.05 295.56 141.76C298.19 139.63 299.63 139.65 302.5 141.56C303.88 142.48 304.53 142.43 305.46 141.07C306.25 139.92 306.9 138.66 307.51 137.41C309.92 132.49 312.86 127.79 313.68 122.21C313.91 120.62 314.59 119.11 315.01 117.54C315.56 115.49 316.56 113.88 318.4 112.61C319.68 111.72 320.73 110.31 321.48 108.91C323.27 105.58 324.98 102.2 326.45 98.7102C328.37 94.1402 329.9 89.4102 331.83 84.8402C333 82.0602 334.63 79.4802 336.02 76.7902C337.01 74.8802 337.96 72.9402 338.91 71.0102C340.19 68.4002 342.4 66.6102 344.67 65.0102C346.7 63.5802 349.32 64.1602 350.67 66.2302C351.81 67.9902 353.54 69.4202 353.65 71.8602C353.76 74.3102 353.28 76.3702 351.42 77.9902C349.07 80.0402 347.67 82.7002 346.36 85.4402C345.64 86.9502 345.36 88.4802 346.17 90.0402C347.48 90.3602 348.4 89.8902 349.11 88.9802C350.24 87.5402 351.25 86.0002 352.43 84.6002C353.67 83.1302 355.31 81.9302 356.28 80.3202C357.22 78.7502 357.94 77.1202 359.32 75.8102C363.69 71.6702 368.99 72.5902 371.94 77.8702C373.43 80.5402 373.17 83.2902 373.11 86.0702C373.08 87.4202 371.81 87.6402 370.87 88.1202C367.08 90.0702 363.54 92.5302 361.2 96.0402C357.36 101.81 353.08 107.2 348.66 112.51C346.59 115 345.96 117.6 347.71 120.55C350.08 124.54 351.26 128.87 351.16 133.53C351.15 134.17 351.11 134.89 351.38 135.44C351.68 136.06 352.24 136.85 352.8 136.96C353.36 137.07 354.38 136.58 354.66 136.07C355.69 134.18 356.62 132.21 357.37 130.19C359.5 124.43 361.46 118.61 363.61 112.86C364.47 110.55 365.69 108.37 366.7 106.12C368.63 101.79 370.53 97.4402 372.44 93.1002C372.61 92.7002 372.92 92.3302 372.97 91.9202C373.45 87.3302 376.19 83.8002 378.5 80.0602C379.06 79.1602 379.37 78.0902 379.72 77.0702C380.62 74.4302 382.42 72.4002 384.37 70.5402C386.33 68.6802 388.76 68.2602 391.32 69.2102C392.63 69.7002 393.96 70.2302 395.1 71.0002C396.66 72.0502 398.26 72.3202 400.04 71.9302C401.41 71.6302 402.79 71.3302 404.15 71.0002C407.11 70.2702 409.69 71.0202 412.05 72.8502C413.42 73.9102 414.81 74.9302 416.26 75.8702C418.12 77.0702 418.7 76.9602 419.38 74.9902C421.11 69.9602 425.87 69.0602 430.01 68.4602C431.15 68.2902 432.37 68.4602 433.45 68.1402C434.98 67.6902 436.43 67.6002 437.89 68.2302C440.55 69.3802 443.56 69.6402 445.98 71.4502C447.82 72.8302 449.55 74.2502 450.48 76.4402C450.69 76.9302 451 77.4002 451.34 77.8102C453.38 80.2402 454.66 82.8802 455.39 86.0902C456 88.7602 456.48 91.3302 456.34 94.0202C456.28 95.1902 456.13 96.4402 455.66 97.4902C453.88 101.53 452.01 105.53 450.05 109.49C448.72 112.19 447.48 115.02 445.66 117.37C441.39 122.89 438.4 129.12 435.13 135.19C433.53 138.16 433.88 141.41 434.59 144.36C435.28 147.22 434.51 149.7 434.03 152.31C433.74 153.86 432.6 154.68 430.96 154.66C429.99 154.65 429.01 154.59 428.04 154.6C427.29 154.61 426.42 154.47 425.81 154.79C422.17 156.71 419.4 154.71 416.62 152.85C415.52 152.12 414.98 151 414.84 149.56C414.59 147.01 414.07 144.62 414.6 141.92C415.38 138 417 134.53 418.85 131.14C422.11 125.18 426.29 119.78 429.47 113.74C432.03 108.87 435.24 104.35 437.86 99.5202C439.9 95.7402 440.65 91.6002 439.64 87.2902C439.03 84.6702 437.18 83.0602 434.77 82.6402C431.49 82.0602 428.11 82.0402 424.77 81.8102C424.37 81.7802 423.96 81.9902 423.16 82.1902C423.51 83.2002 423.7 84.1202 424.13 84.9102C426.46 89.2702 425.91 93.2802 423.2 97.3502C421.47 99.9402 420.12 102.82 418.85 105.68C415.76 112.69 412.92 119.81 409.78 126.8C407.67 131.5 405.23 136.06 402.93 140.68C402.64 141.26 402.31 141.82 401.94 142.36C398.04 148.09 394.91 154.22 392.5 160.72C391.19 164.26 387.84 166.31 384.13 166.01C380.38 165.71 376.08 160.13 376.9 156.31C377.3 154.45 378.09 152.59 379.1 150.98C382.36 145.77 385.89 140.72 389.12 135.5C390.41 133.42 391 130.91 392.29 128.83C395.04 124.4 397 119.66 398.82 114.79C401.08 108.73 403.92 102.89 406.28 96.8602C406.96 95.1202 407.09 93.0602 406.99 91.1702C406.93 90.0002 406.13 88.7302 405.33 87.7902C404.29 86.5502 402.82 86.0702 401.25 87.0402C397.92 89.1002 394.24 90.3702 390.65 91.8602C389.3 92.4202 388.03 93.8902 387.37 95.2602C384.37 101.47 381.46 107.74 378.77 114.09C375.87 120.95 373.32 127.95 370.5 134.85C369.08 138.34 367.39 141.71 365.85 145.15C365.32 146.33 364.84 147.54 364.36 148.74C363.12 151.84 361.86 154.93 360.68 158.05C359.81 160.37 359.05 162.74 358.25 165.09C357.18 168.25 356.15 168.91 352.75 168.93C349.35 168.94 346.06 168.69 343.04 166.87C341.68 166.05 340.16 166.24 338.62 166.58C334.94 167.4 330.47 164.27 329.48 160.64C328.76 157.99 329.24 155.81 330.77 153.63C331.43 152.69 331.81 151.53 332.17 150.42C333.13 147.44 334.13 144.47 334.87 141.44C335.32 139.58 335.56 137.6 335.42 135.7C335.19 132.74 333.4 131.63 330.57 132.26C330.15 132.35 329.72 132.5 329.3 132.5C326.04 132.48 324.57 134.66 323.36 137.21C321.48 141.2 319.65 145.22 317.66 149.15C315.57 153.29 313.38 157.38 311.09 161.42C308.79 165.48 304.24 166.38 300.35 163.7C299.9 163.39 299.47 163.07 299.03 162.76C297.67 161.76 296.41 161.61 294.88 162.65C292.56 164.23 290.19 165.8 287.64 166.96C280.77 170.1 273.56 171.88 265.93 171.45C264.67 171.38 263.4 170.98 262.2 170.56C260.67 170.03 259.17 169.39 257.73 168.66C254.57 167.04 252.2 164.48 250.22 161.64C246.6 156.45 244.14 150.7 242.51 144.59C242.4 144.17 242.38 143.73 242.25 143.32C241.54 141.22 240.33 140.85 238.61 142.39C235.55 145.12 232.44 147.82 229.62 150.79C225.07 155.58 219.77 159.19 213.72 161.73C212.84 162.1 211.84 162.18 210.89 162.4C208.84 162.89 207.43 164.06 206.74 166.11C206.09 168.05 205.43 169.99 204.62 171.87C203.27 175.03 201.78 178.14 200.39 181.29C200 182.17 199.69 183.1 199.39 184.01C199.12 184.83 199.04 185.73 198.66 186.49C195.26 193.38 193.38 200.86 190.24 207.86C188.28 212.24 182.02 213.86 178.11 210.82C174.11 207.7 172.59 202.8 175.78 197.94C179.77 191.87 182.86 185.36 184.99 178.37C186.02 174.99 187.93 171.89 189.43 168.65C190.02 167.38 190.66 166.12 191.11 164.79C192.17 161.62 191.58 160.38 188.66 158.68C186.99 157.71 185.37 156.64 183.84 155.47C180.42 152.85 179.01 148.92 177.33 145.18C176.9 144.22 176.45 143.28 176.03 142.35C174.14 142.46 173.54 143.7 173.06 144.83C172.15 146.99 170.65 148.64 169.06 150.29C167.34 152.07 165.91 154.16 164.02 155.74C161.22 158.09 158.32 160.44 155.12 162.16C151.63 164.04 147.77 165.27 144.02 166.64C142.74 167.11 141.31 167.31 139.94 167.37C137.13 167.49 134.31 167.47 131.49 167.42C129.88 167.39 128.81 168.01 128.16 169.48C124.88 176.87 120.46 183.73 117.98 191.51C117.39 193.35 116.29 195.02 115.55 196.81C114.64 199 113.71 201.19 113.03 203.46C111.96 207.07 111.11 210.75 110.12 214.38C109.21 217.73 106.46 218.94 102.72 218.69C100.63 218.55 98.6004 217.49 96.5604 216.77C96.0804 216.6 95.6304 216.19 95.3004 215.79C93.8204 213.99 93.3404 209.54 94.6104 207.57C98.0804 202.18 100.42 196.25 103.09 190.48C104.5 187.45 106.09 184.5 107.53 181.48C110.4 175.43 113.17 169.33 116.07 163.3C116.8 161.78 116.6 160.61 115.51 159.48C114.91 158.86 114.31 158.21 113.63 157.69C109.13 154.2 105.89 149.9 104.6 144.25C104.45 143.57 103.97 142.97 103.68 142.41C102.12 142.46 101.59 143.43 101.09 144.39C97.8304 150.68 92.9804 155.83 88.6404 161.32C87.0904 163.28 84.6804 164.63 82.5304 166.06C79.6304 167.99 76.3704 169.14 72.9604 169.84C72.0104 170.03 71.0004 170.25 70.0704 170.11C66.5604 169.59 62.9804 169.23 59.5904 168.24C53.9804 166.6 49.8104 163.05 46.8204 157.91C44.2804 153.53 42.8004 148.89 41.9004 143.98C41.4704 141.65 40.7804 139.42 39.4304 137.35C37.5604 134.49 38.1104 131.32 39.0404 128.28C39.2504 127.58 40.1504 126.89 40.8904 126.59C43.3904 125.61 45.9104 125.32 48.2404 127.17C49.2604 127.97 50.3504 128.68 51.4104 129.43C53.3104 130.76 54.0404 132.52 53.4104 134.79C53.2104 135.52 53.1004 136.32 52.7204 136.95C50.0304 141.46 51.7104 145.74 53.4604 149.95C54.1104 151.52 55.2804 152.88 56.2904 154.28C58.3504 157.16 61.5404 157.98 64.7404 158.48C69.1704 159.18 72.9204 157.78 76.2204 154.59C82.1904 148.82 87.0604 142.3 91.0804 135.08C92.6004 132.35 94.4404 129.79 96.0004 127.08C99.8804 120.33 103.25 113.34 106 106.05C107.06 103.23 106.49 102.6 103.47 102.06C96.0304 100.72 88.5604 101.46 81.1104 101.46C77.5304 101.46 74.8504 99.9702 72.4904 97.6402C70.0004 95.1802 70.6504 89.2802 73.6804 87.6302C74.8004 87.0202 76.4304 86.9502 77.7504 87.1602C84.2304 88.2102 90.6804 87.7702 97.1604 87.2102C99.9304 86.9702 102.76 87.5302 105.56 87.4802C107.91 87.4402 110.29 87.2402 112.57 86.7102C113.38 86.5202 114.13 85.2502 114.53 84.3102C116.27 80.2502 117.84 76.1102 119.55 72.0302C122.81 64.2602 126.16 56.5402 129.39 48.7602C130.84 45.2702 132.29 41.7602 133.38 38.1602C134.82 33.4302 135.96 28.6002 137.13 23.7902C137.43 22.5502 137.55 21.2202 137.46 19.9402C137.35 18.2202 135.97 17.5702 134.44 18.4302C133.79 18.8002 133.15 19.2702 132.65 19.8202C129.52 23.2502 126.28 26.6002 123.37 30.2202C121.55 32.4802 120.24 35.1402 118.72 37.6302C116.3 41.5902 113.82 45.5102 111.52 49.5302C109.7 52.7102 107.93 55.9502 106.49 59.3202C105.34 62.0002 103.41 63.9802 101.61 66.1102C100.82 67.0402 99.7004 67.2602 98.6704 66.6002C97.0404 65.5502 95.3404 64.5302 93.9804 63.1802C92.4704 61.6802 92.2604 59.7202 93.3704 57.8002C99.3704 47.4302 105.32 37.0302 112.58 27.4602C116.3 22.5502 120.04 17.6602 123.73 12.7302C127.61 7.54021 133.05 4.43021 138.68 1.65021C139.71 1.14021 141.33 1.24021 142.46 1.65021C145.74 2.84021 148.11 5.04021 149.32 8.48021C151.28 14.0702 150.57 19.8002 150.34 25.4802C150.22 28.3702 149.58 31.2402 149.16 34.1202C149.1 34.5502 148.99 34.9702 148.85 35.3802C147.19 40.1702 145.71 45.0402 143.79 49.7202C141.58 55.1102 138.89 60.3002 136.56 65.6402C134.36 70.6902 132.35 75.8202 130.27 80.9202C129.69 82.3502 129.55 83.8202 130.04 85.8302L130.14 85.8502ZM175.55 100.51C174.97 96.2602 174.5 92.5402 173.91 88.8402C173.78 88.0202 173.35 87.1602 172.83 86.5102C172.4 85.9702 171.68 85.4702 171.01 85.3302C168.28 84.7602 163.75 87.0002 162.49 89.6002C160.62 93.4802 158.9 97.4302 157.12 101.35C153.47 109.38 151.01 117.88 147.23 125.88C143.78 133.16 141.36 140.91 137.76 148.14C137.43 148.81 137.22 149.57 137.11 150.31C136.88 151.84 137.6 152.64 139.09 152.45C142.2 152.05 145.28 151.57 148.01 149.79C152 147.19 156 144.65 158.49 140.37C159.52 138.61 160.79 137 161.93 135.3C162.95 133.78 164.12 132.33 164.89 130.69C166.75 126.67 168.64 122.69 171.29 119.1C171.91 118.26 172.24 117.16 172.55 116.14C173.35 113.47 174.24 110.81 174.2 107.95C174.19 107 174.54 106.05 174.71 105.09C175.02 103.41 175.32 101.72 175.54 100.52L175.55 100.51ZM192.99 138.76C193.21 140.33 193.36 141.5 193.54 142.68C193.6 143.1 193.67 143.54 193.82 143.94C194.43 145.56 195.96 146.72 197.48 146.71C199.04 146.7 199.72 145.66 200.23 144.37C200.58 143.47 201.07 142.63 201.42 141.73C202.61 138.73 203.67 135.68 204.95 132.72C207.13 127.68 209.44 122.7 211.7 117.69C212.5 115.92 213.39 114.19 214.12 112.4C215.9 108 217.73 103.62 219.27 99.1402C219.84 97.4902 220.07 95.4802 219.69 93.8202C219.28 92.0102 217.06 92.7902 215.7 92.3702C212.8 91.4702 211.94 91.8902 210.37 94.5402C208.29 98.0602 206.1 101.55 204.44 105.27C201.9 110.98 199.69 116.83 197.51 122.69C196.28 126 195.36 129.44 194.4 132.84C193.81 134.9 193.4 137.01 193 138.76H192.99ZM245.65 93.8102C245.63 90.8502 244.79 89.0502 242.73 87.6602C240.8 86.3502 238.69 86.8402 237.57 88.8802C237.21 89.5402 236.91 90.2402 236.63 90.9402C234.14 97.1202 231.67 103.32 229.17 109.49C228.28 111.68 227.27 113.83 226.36 116.01C225.07 119.08 223.81 122.17 222.55 125.25C222.02 126.55 221.48 127.84 220.98 129.15C220.45 130.55 220.2 132.13 219.38 133.33C218.46 134.68 218.24 136.11 218.04 137.59C217.81 139.27 218.56 139.81 220.07 139.13C220.46 138.95 220.84 138.73 221.17 138.46C224.36 135.88 227.56 133.31 230.71 130.69C231.28 130.22 231.7 129.56 232.16 128.96C233.15 127.69 234.16 126.43 235.1 125.11C236.34 123.35 237.72 121.65 238.67 119.74C240.43 116.19 242.02 112.54 243.51 108.86C244.63 106.1 245.98 103.39 245.7 100.21C245.51 98.0902 245.66 95.9402 245.66 93.8002L245.65 93.8102ZM145.14 92.6102C143.9 93.4202 142.7 93.9402 141.86 94.8102C138.48 98.2902 134.95 101.59 132.09 105.6C130.21 108.24 128.6 111.01 126.93 113.76C126.15 115.05 125.28 116.31 124.72 117.69C123.39 120.98 122.19 124.32 120.99 127.66C120.44 129.17 119.7 130.71 119.59 132.27C119.29 136.45 119.11 140.67 120.8 144.69C121.25 145.76 121.82 146.61 123.04 146.77C124.44 146.95 125.3 146.12 125.83 144.98C127.04 142.34 128.28 139.71 129.3 136.99C131.3 131.66 134.04 126.66 135.95 121.28C138.83 113.17 142.18 105.23 145.24 97.1802C145.7 95.9602 146.39 94.5802 145.16 92.6102H145.14ZM269.12 118.47C270.83 118.14 272.07 118.15 273.07 117.66C275.68 116.38 278.36 115.12 280.7 113.42C286.43 109.24 292.53 105.47 297.07 99.8402C297.4 99.4302 297.86 99.1102 298.29 98.7902C301.06 96.6902 302.75 93.8202 303.93 90.6502C304.8 88.3102 303.95 87.1402 301.49 87.0002C298.27 86.8202 295.31 87.8902 292.52 89.2502C287.95 91.4902 285.06 95.6602 281.72 99.2802C280.55 100.54 279.53 101.94 278.46 103.29C276 106.38 273.51 109.46 271.11 112.6C270.4 113.53 269.83 114.61 269.38 115.7C269.12 116.33 269.23 117.1 269.12 118.47Z" fill="black"/>
<path d="M859 76.5502C860.2 75.2402 860.95 74.4902 861.61 73.6702C864.49 70.0502 866.87 66.0702 869.97 62.5802C872.73 59.4702 876.07 58.5802 879.82 58.8702C881.69 59.0202 883 58.7001 884.58 57.6702C887.68 55.6502 891.2 54.4102 894.98 54.6902C896.55 54.8002 898.23 55.2502 899.59 56.0202C903.68 58.3602 907.2 61.3902 908.79 66.0102C909.92 69.2802 910.54 72.6002 910.03 76.1702C909.48 80.0002 909.79 83.9602 909.19 87.7902C908.73 90.7302 907.69 93.6402 906.48 96.3801C904.65 100.5 902.46 104.47 900.39 108.49C899.1 110.98 897.64 113.4 896.44 115.93C894.29 120.48 891 123.86 886.65 126.35C885.26 127.14 884.14 128.39 882.86 129.38C881.84 130.17 880.65 130.78 879.73 131.66C877.72 133.59 875.72 135.55 873.94 137.69C872.73 139.16 872.03 141.04 870.89 142.58C869.23 144.83 867.41 146.96 865.58 149.08C865.19 149.53 864.49 149.92 863.91 149.97C858.57 150.42 853.35 149.71 849.28 146.08C846.41 143.53 844.11 140.29 843 136.41C842.56 134.89 841.9 133.44 841.15 131.45C840.04 132.49 839.12 133.06 838.59 133.89C836.39 137.33 833.5 140.36 832.21 144.38C831.92 145.27 831.11 145.99 830.69 146.86C829.31 149.78 826.99 150.56 824 149.95C822.62 149.67 821.23 149.46 819.86 149.14C818.45 148.81 817.22 148.15 816.47 146.83C815.56 145.25 814.39 143.75 813.79 142.06C812.65 138.83 814.5 136.33 816.66 134.37C821.05 130.39 823.82 125.18 827.58 120.74C827.79 120.5 827.97 120.21 828.08 119.91C829.57 115.62 832.34 111.97 834.08 107.81C835.82 103.63 837.53 99.4402 839.16 95.2102C840.39 92.0102 841.63 88.7902 842.56 85.4902C842.94 84.1301 842.65 82.5201 842.43 81.0602C842.29 80.1301 841.71 79.2701 841.31 78.3202C839.8 77.3102 838.14 77.1902 836.4 77.7802C834.47 78.4402 832.53 79.0702 830.64 79.8202C829.18 80.4002 828.57 81.5502 828.61 83.1602C828.69 86.6202 828.77 90.0902 828.61 93.5402C828.34 99.6302 826.95 105.42 824.09 110.89C820.79 117.19 817.75 123.62 814.61 129.99C814.51 130.18 814.37 130.37 814.34 130.58C813.57 136.43 809.68 140.88 807.35 146.02C806.11 148.77 804.67 151.43 803.39 154.16C802.62 155.8 801.58 156.71 799.62 156.55C798.35 156.45 797.02 156.61 795.77 156.88C793.32 157.4 791.19 156.96 789.68 154.89C788.55 153.33 787.62 151.62 786.64 149.95C785.98 148.83 786.61 147.84 787.14 146.91C789.43 142.88 791.78 138.89 794.06 134.85C795.65 132.04 797.21 129.21 798.67 126.33C800.71 122.28 802.68 118.2 804.61 114.1C806.81 109.43 809.15 104.8 811.04 100C812.58 96.0901 813.28 91.8702 813.42 87.6802C813.49 85.4802 812.91 83.1802 812.2 81.0602C811.46 78.8301 809.83 78.1502 807.55 78.7402C804.9 79.4302 802.57 80.7802 800.38 82.4302C797.79 84.3801 795.11 86.2001 792.52 88.1402C791.86 88.6301 791.16 89.2602 790.84 89.9802C787.88 96.5802 784.91 103.17 782.12 109.84C781.05 112.41 780.64 115.26 779.56 117.82C777.22 123.38 774.22 128.65 772.24 134.38C770.76 138.66 769.2 142.91 767.49 147.1C766.2 150.28 764.62 153.35 763.2 156.48C762.58 157.85 762.01 159.25 761.44 160.65C760.44 163.11 759.67 163.5 757.03 163.1C755.11 162.81 753.18 162.63 751.25 162.46C749.98 162.35 748.94 161.99 748.39 160.71C748.23 160.33 747.92 159.97 747.6 159.69C744.62 157.09 744.88 153.91 746.31 150.79C747.7 147.76 749.5 144.92 751.1 141.98C753.52 137.55 756.42 133.36 757.64 128.34C757.96 127.04 758.54 125.8 759.1 124.26C757.28 124.26 756.57 125.25 755.93 126.17C752.99 130.45 750.71 135.08 748.39 139.71C745.83 144.82 743.13 149.88 739.68 154.49C738.98 155.42 738.56 156.56 737.89 157.53C735.74 160.62 733.52 163.67 731.34 166.74C730.65 167.7 730.01 168.7 729.3 169.65C727.43 172.16 725.71 174.79 723.62 177.11C720.07 181.04 716.36 184.88 711.48 187.23C708.08 188.86 704.64 190.44 701.12 191.8C700.13 192.19 698.81 191.76 697.65 191.7C691.37 191.38 687.03 187.89 683.52 183.06C683.01 182.37 682.42 181.74 681.85 181.09C679.53 178.44 679.61 175.48 682.15 173.12C683.5 171.87 684.9 170.69 686.34 169.54C688.01 168.2 689.85 167.85 691.75 169.05C693.2 169.97 694.64 170.91 696 171.94C696.95 172.65 697.71 173.6 698.64 174.34C700.43 175.75 702.17 175.92 704.03 174.65C707.15 172.52 710.16 170.24 713.22 168.01C713.48 167.82 713.74 167.6 713.92 167.33C717.52 162.08 721.55 157.09 724.24 151.27C725.02 149.57 724.58 148.24 722.88 148.06C719.89 147.75 718.25 145.74 716.81 143.62C715.3 141.4 714.24 138.88 712.96 136.51C712.47 135.6 711.89 134.73 711.2 133.57C710.28 134.25 709.55 134.67 708.97 135.24C707.29 136.92 705.75 138.76 704 140.37C702.51 141.74 700.75 142.82 699.21 144.14C696.96 146.05 694.39 147.36 691.7 148.49C689.91 149.24 688.04 149.8 686.28 150.6C683.93 151.67 681.65 152.9 679.34 154.07C677.97 154.77 676.69 155.15 675.02 154.73C671.77 153.92 671.13 154.33 669.74 157.37C668.66 159.73 667.7 162.14 666.79 164.56C665.04 169.2 663.36 173.86 661.67 178.51C661.3 179.52 661 180.56 660.69 181.59C659.8 184.52 658.95 184.74 655.81 185.09C651.45 185.58 648.33 183.65 645.32 181C643.61 179.49 643.3 177.76 644.25 175.75C646.46 171.08 648.7 166.42 650.9 161.74C651.73 159.98 652.55 158.21 653.24 156.4C653.86 154.77 653.11 153.93 651.35 154.11C650.39 154.21 649.43 154.37 648.46 154.47C645.43 154.79 642.73 154.09 640.25 152.2C638.26 150.68 636.15 150.5 633.55 151.41C628.33 153.25 622.9 152.93 617.56 151.54C614.78 150.82 613.33 148.28 611.12 146.76C609.7 145.78 608.49 144.5 607.1 143.49C605.67 142.44 604.76 142.62 603.94 144.12C603.43 145.05 603.18 146.13 602.84 147.15C602.44 148.38 602.17 149.66 601.68 150.85C599.53 156.03 595.88 157.63 590.53 155.74C589.42 155.35 588.24 154.96 587.32 154.27C583.35 151.29 583.12 150.03 584.58 145.16C585.55 141.92 586.77 138.86 588.63 136.02C589.4 134.86 589.95 133.53 590.46 132.23C592.73 126.36 595.74 120.89 599.14 115.6C600.24 113.89 601.04 111.97 601.86 110.1C602.47 108.72 602.05 107.74 600.58 107.34C599.13 106.94 597.59 106.61 596.11 106.66C591.35 106.84 586.98 105.19 582.49 104.09C581.24 103.78 580.02 103.35 578.8 102.93C576.95 102.3 575.91 102.65 575.01 104.29C574.91 104.48 574.85 104.69 574.77 104.89C571.84 112.2 568.87 119.5 565.99 126.83C565.12 129.03 564.43 131.31 563.76 133.58C563.5 134.48 563.51 135.46 563.44 136.41C563.32 138.11 563.35 139.83 563.1 141.5C562.74 143.86 561.52 145.38 558.87 145.63C556.41 145.86 553.99 146.54 551.53 146.77C550.53 146.87 549.18 146.64 548.5 146.01C545.64 143.35 543.61 140.2 544.38 136.01C544.57 134.96 544.9 133.89 545.36 132.93C547.16 129.13 549.09 125.39 550.87 121.59C552.01 119.15 552.94 116.62 554.01 114.15C555.97 109.59 557.91 105.01 559.97 100.49C560.97 98.3102 561.88 96.1601 561.93 93.7001C561.99 90.9501 563.43 88.6902 565.16 86.7802C567.28 84.4602 568.37 81.6602 569.56 78.9102C572.44 72.2902 575.13 65.5902 577.88 58.9102C579.36 55.3202 580.78 51.7102 582.29 48.1402C582.92 46.6602 583.72 45.2502 584.43 43.8002C587.5 37.4902 590.6 31.1902 593.6 24.8502C594.47 23.0002 595.03 21.0102 595.75 19.0902C596.09 18.1802 596.4 17.2602 596.84 16.4002C598.95 12.2902 603.68 11.6402 607.08 14.8602C609.7 17.3402 611.77 20.0302 611.23 23.8802C611.09 24.8902 610.77 26.0502 610.12 26.7702C607.04 30.1802 604.67 33.9202 603.08 38.2702C601.94 41.4002 600.06 44.2502 598.68 47.3102C595.04 55.3702 591.44 63.4402 587.94 71.5602C585.81 76.5002 583.89 81.5402 581.87 86.5302C581.04 88.5802 581.28 89.1402 583.5 89.6902C586.75 90.4802 590 91.2902 593.29 91.9402C594.65 92.2102 596.14 92.3402 597.47 92.0502C601.37 91.2102 605.21 90.1301 609.07 89.1402C610.88 88.6802 612.11 87.5702 612.83 85.8602C614.21 82.5802 615.61 79.3001 617 76.0201C618.81 71.7501 620.64 67.4802 622.41 63.1902C623.51 60.5002 624.44 57.7402 625.56 55.0602C628.35 48.3902 631.12 41.7002 634.07 35.1102C635.65 31.5802 637.64 28.2302 639.38 24.7602C640.93 21.6702 642.51 18.5902 643.85 15.4102C644.99 12.7002 647.09 11.7002 649.73 11.6402C652.3 11.5802 653.83 13.3502 655.04 15.3602C655.37 15.9002 655.37 16.6802 655.77 17.1502C658.36 20.2102 657.14 23.2202 655.2 25.7202C650.77 31.4502 647.94 37.9402 645.25 44.5602C643.26 49.4602 641.19 54.3402 639.12 59.2002C638.69 60.2102 637.98 61.2902 639.04 62.1302C640.05 62.9302 641.1 62.1702 642 61.5702C642.63 61.1502 643.16 60.5902 643.78 60.1602C647.53 57.6102 651.65 56.1502 656.2 56.0802C656.94 56.0702 657.76 56.1702 658.41 56.4802C661.82 58.1002 665.32 59.5902 668.52 61.5702C670.38 62.7202 671.73 64.7002 673.32 66.3002C674.98 67.9702 675.76 68.0802 677.82 66.9302C678.2 66.7202 678.54 66.4402 678.92 66.2502C681.48 64.9602 683.68 65.2402 685.81 67.1102C686.7 67.9002 687.51 68.7901 688.45 69.5201C689.61 70.4202 690.5 70.3702 691.18 69.1802C692.82 66.2902 694.72 63.4302 695.73 60.3102C697.27 55.5502 700.23 52.0102 703.85 48.8502C704.62 48.1802 705.76 47.8802 706.76 47.5202C707.79 47.1502 708.64 47.5802 709.38 48.3402C712.04 51.0802 712.95 56.2802 711.28 59.8402C710.5 61.5002 709.58 63.1002 708.72 64.7202C707.69 66.6502 708.06 67.7402 710.24 68.2902C716.23 69.8202 719.84 73.7302 721.85 79.3902C722.08 80.0302 722.69 80.9602 723.15 80.9802C723.87 81.0002 724.61 80.3602 725.33 79.9802C725.42 79.9402 725.48 79.8202 725.52 79.7202C728.54 73.3602 734.12 68.9602 738.18 63.3902C739.6 61.4502 741.72 59.9002 743.79 58.5902C746.17 57.0802 750.51 58.4102 752.18 60.7002C754.42 63.7902 754.9 67.2501 754.3 70.8801C753.97 72.8502 752.24 73.8302 750.83 74.9802C749.08 76.4002 746.94 77.4801 745.6 79.2102C742.44 83.2802 739.12 87.1802 737.01 92.0802C734.55 97.8002 731.43 103.25 728.06 108.55C724.45 114.24 723.84 120.44 725.9 126.88C726.1 127.49 726.37 128.1 726.69 128.65C727.87 130.65 729.24 131.02 730.89 129.37C733.63 126.62 736.3 123.77 738.71 120.73C744.35 113.59 748.55 105.52 753.18 97.7402C755.27 94.2202 757.15 90.5702 758.93 86.8801C759.76 85.1501 760.44 83.2301 760.61 81.3401C760.89 78.2402 762.8 76.3002 765.09 74.9702C770.55 71.8102 771.49 72.0602 775.19 76.6202C775.39 76.8702 775.55 77.1702 775.76 77.4102C777.37 79.2202 778.76 79.0401 779.59 76.7701C780.59 74.0301 781.4 71.2201 782.31 68.4501C783.4 65.1301 786.03 63.2602 789.46 63.6102C790.56 63.7202 791.79 64.2302 792.63 64.9402C794.54 66.5402 796.39 66.6102 798.64 65.7102C801.55 64.5502 804.53 63.5402 807.56 62.7402C811.61 61.6802 815.54 62.5302 819.16 64.4102C820.92 65.3302 822.49 65.6402 824.41 65.1602C826.38 64.6602 828.47 64.6202 830.46 64.1602C832.45 63.7002 834.45 63.1102 836.32 62.3102C839.38 61.0002 842.62 60.7702 845.83 60.4602C848.21 60.2302 850.06 61.3802 851.75 63.2002C854.56 66.2402 855.62 70.0401 857.15 73.6702C857.5 74.5002 858.12 75.2202 858.94 76.5102L859 76.5502ZM625.88 136.51C630.34 136.8 632.96 133.75 635.73 131.05C636.81 130 637.65 128.73 638.69 127.63C642.85 123.24 647.06 118.89 650.43 113.85C651.49 112.27 652.49 110.48 652.89 108.65C653.69 104.98 655.34 101.78 657.33 98.6802C658.14 97.4202 658.87 96.0702 659.39 94.6702C660.82 90.8302 661.99 86.8802 663.53 83.0802C664.56 80.5602 664.47 78.4101 663.14 76.0302C661.37 72.8702 660.1 71.9902 656.45 72.2001C654.12 72.3401 651.96 72.9702 650.17 74.5002C646.72 77.4402 643.3 80.4202 639.92 83.4302C639.29 83.9902 638.78 84.7402 638.36 85.4802C636.33 89.0402 634.21 92.5602 632.39 96.2302C630.44 100.19 628.52 104.22 627.08 108.38C625.08 114.16 623.38 120.05 621.88 125.98C621.26 128.44 621.29 131.12 621.41 133.69C621.52 135.93 622.31 136.41 624.57 136.5C625 136.52 625.44 136.5 625.87 136.5L625.88 136.51ZM896.39 80.1802C896.39 77.4302 896.45 75.3802 896.37 73.3202C896.31 71.6802 895.57 70.8902 893.98 70.9302C893.05 70.9602 892.03 71.2502 891.24 71.7202C889.95 72.4902 888.71 73.4102 887.62 74.4302C882.41 79.3202 877.75 84.7202 873.25 90.2402C872.01 91.7502 871.22 93.5602 868.85 93.5602C868.43 93.5602 867.86 94.0901 867.63 94.5201C866.7 96.2201 865.39 97.9002 865.11 99.7202C864.5 103.72 862.57 107.25 861.63 111.11C861.15 113.1 860.4 114.99 860.77 117.12C860.91 117.92 860.61 118.81 860.49 119.65C860.22 121.56 859.79 123.47 859.7 125.39C859.64 126.67 858.99 128.46 860.73 129.09C862.34 129.67 863.23 128.17 864.16 127.16C865.76 125.42 867.2 123.5 868.96 121.94C871.13 120.01 873.67 118.51 875.84 116.58C878.42 114.28 880.84 111.8 883.19 109.27C887.44 104.7 889.89 98.9902 892.9 93.6402C895.37 89.2502 897.26 84.6802 896.4 80.1502L896.39 80.1802ZM680.63 135.18C681.69 135.08 682.85 135.27 683.73 134.85C689.39 132.17 694.24 128.54 697.36 122.94C698.15 121.53 698.89 120.07 699.82 118.76C701.37 116.58 701.97 114.12 702.47 111.56C702.91 109.36 703.65 107.22 704.23 105.04C704.97 102.26 705.71 99.4902 706.37 96.6902C706.76 95.0302 707.05 93.3301 707.24 91.6301C707.44 89.8202 707.62 87.9801 707.53 86.1702C707.46 84.6802 706.32 84.1501 704.99 84.8401C704.13 85.2802 703.43 86.1002 702.54 86.4002C699.42 87.4502 698.13 89.9102 697.03 92.7202C695.08 97.7002 692.94 102.6 690.9 107.54C689.91 109.93 689.02 112.36 687.97 114.73C685.96 119.25 683.85 123.73 681.83 128.25C680.93 130.27 679.44 132.19 680.62 135.2L680.63 135.18ZM657.22 146.1C657.72 145.27 658.35 144.44 658.76 143.51C660.94 138.59 663 133.62 665.23 128.73C667.33 124.12 669.56 119.57 671.75 115C674.31 109.65 676.97 104.35 679.43 98.9501C680.52 96.5501 681.8 94.1601 682.19 91.0302C681.52 91.5102 681.14 91.6802 680.91 91.9702C678.4 95.1102 676.53 98.6202 674.88 102.26C674.48 103.14 673.94 104.03 673.82 104.96C673.46 107.84 672.17 110.27 670.56 112.59C667.98 116.32 665.52 120.1 663.81 124.35C662.2 128.34 660.26 132.19 658.58 136.15C657.53 138.62 656.68 141.18 655.8 143.72C655.45 144.73 655.6 145.63 657.22 146.11V146.1Z" fill="black"/>
</svg>
