<svg width="950" height="220" viewBox="0 0 950 220" fill="none" xmlns="http://www.w3.org/2000/svg">
<path d="M279.19 120.85C283.59 121.27 288.69 120.21 293.93 118.45C301.18 116.02 308.8 114.73 316.24 112.85C319.35 112.07 322.33 110.74 325.47 110.16C330.28 109.27 334.29 106.87 338.6 104.8C343.23 102.57 346.84 99.3202 350.78 96.3702C353.04 94.6802 354.93 92.5002 357.1 90.6702C357.45 90.3702 358.63 90.4902 359 90.8502C361.01 92.8302 361.07 95.1702 359.43 97.5102C357.68 100.01 355.95 102.54 354.26 105.09C354.11 105.32 354.17 105.87 354.35 106.08C354.52 106.27 355.01 106.3 355.32 106.22C356.25 105.99 357.32 105.89 358.05 105.35C362.03 102.36 365.9 99.2102 369.85 96.1902C372.43 94.2202 374.98 92.1602 377.76 90.5002C379.77 89.3002 381.7 90.2302 383.06 92.2402C384.35 94.1402 383.38 95.2702 382.12 96.7202C375.07 104.79 365.51 109.01 356.28 113.73C355.61 114.07 354.74 114.1 354.14 114.52C352.9 115.39 352.35 116.78 353.3 118C353.84 118.69 355.25 119.28 356.07 119.08C359.23 118.32 362.28 117.14 365.42 116.26C369.83 115.02 374.32 114.04 378.71 112.71C386.03 110.49 393.87 109.06 399.35 103.2C403.12 99.1702 404.45 93.8202 404.82 88.3602C404.99 85.8702 404.81 83.3502 404.97 80.8502C405.19 77.5102 406.64 75.8502 409.99 75.7102C416.56 75.4302 422.89 74.3102 429.27 72.6602C433.4 71.5902 438.06 72.5202 442.48 72.6602C442.9 72.6702 443.31 73.3602 443.72 73.7402C443.36 74.1102 443.07 74.7002 442.64 74.8102C437.99 75.9902 434.11 79.0502 429.11 79.6102C424.99 80.0702 420.99 81.8202 416.98 83.1302C414.07 84.0802 411.3 88.4002 412.02 91.3002C412.33 92.5502 413.78 93.5802 414.84 94.5802C416.8 96.4402 417.54 98.6202 415.67 100.01C409.46 104.62 407.76 111.72 405.23 118.2C402.33 125.62 397.69 131.99 394.11 138.97C393.33 140.49 392.53 142 391.75 143.53C391.49 144.04 391.29 144.6 391.01 145.1C389.97 146.94 386.58 148.49 385.24 147.76C384.01 147.09 382.75 143.7 383.46 142.06C385.14 138.2 386.9 134.36 388.89 130.65C390.25 128.13 392.11 125.88 393.63 123.44C394.64 121.81 395.74 120.14 396.24 118.33C396.66 116.81 396.89 114.64 396.11 113.52C394.98 111.92 393.05 113.24 391.38 113.66C386.22 114.97 381.25 116.81 375.91 117.69C370.73 118.54 365.95 121.67 360.35 120.79C355.8 124.59 349.97 122.57 344.86 124.14C340.11 125.6 335.91 127.09 333.02 131.53C330.95 134.72 328.04 137.36 325.53 140.27C324.01 142.03 322.04 141.78 320.18 141.32C318.74 140.96 317.77 139.8 318.63 138.24C320.2 135.4 321.54 132.28 323.7 129.96C328.01 125.33 332.86 121.2 337.38 116.76C338.08 116.07 338.24 114.83 338.65 113.84C337.66 113.47 336.67 112.82 335.67 112.79C334.57 112.76 333.43 113.23 332.35 113.6C326 115.78 319.8 118.64 313.28 120.02C306.93 121.37 300.96 124.18 294.3 124.45C290.35 124.61 286.49 126.49 282.52 126.91C276.99 127.5 271.39 127.61 265.83 127.59C263.04 127.58 260.46 124.78 260.06 122.04C259.89 120.91 260.15 119.7 259.89 118.59C259.5 116.89 258.34 115.84 256.49 116.37C249.85 118.26 243.07 119.83 236.67 122.36C233.65 123.55 231.04 126.36 228.87 128.95C226.28 132.05 223.22 134.1 219.47 135.24C216.52 136.14 214.71 135.58 213.92 133.8C213.06 131.87 213.74 129.02 215.66 127.61C217.51 126.25 219.43 124.91 221.49 123.91C228.64 120.42 233.27 114.26 238.52 108.67C242.36 104.59 242.94 99.4202 244.57 94.6002C244.97 93.4102 244.54 91.2002 243.67 90.5102C242.82 89.8402 240.59 90.0202 239.5 90.7002C235.77 93.0202 232.15 95.5602 228.73 98.3102C223.35 102.65 218.1 107.16 212.91 111.73C208.3 115.79 203.7 119.89 199.4 124.27C197.9 125.8 197.19 128.16 196.35 130.23C196.01 131.06 196.16 132.16 196.32 133.09C197.55 140.51 194.41 146.56 190.38 152.38C186.33 158.23 181.88 163.68 176.84 168.76C170.36 175.3 164.51 182.45 158.22 189.18C156.55 190.96 154.44 192.48 152.26 193.6C148.56 195.52 145.66 193.43 145.23 189.23C144.03 177.54 148.91 167.94 155.42 158.87C160.66 151.57 166.93 145.21 173.66 139.28C174.24 138.77 174.86 138.27 175.29 137.65C177.72 134.14 180.58 131.18 184.19 128.77C187.18 126.77 187.37 125.1 184.85 122.71C180.73 118.8 177.54 113.66 171.33 112.31C168.94 111.79 167.71 109.94 166.89 107.5C165.73 104.07 164.45 103.84 161.23 105.66C156.21 108.51 151.57 111.79 147.28 115.77C142.95 119.79 137.87 123.05 132.93 126.37C131.42 127.39 129.35 127.71 127.48 128.01C124.52 128.5 122.77 126.33 123.8 123.49C125.04 120.1 127.33 117.52 130.75 116.21C135.09 114.54 139.06 112.34 142.75 109.47C148.62 104.9 155.09 101.09 160.55 95.9802C161.93 94.6902 163.2 93.2702 164.41 91.8202C164.68 91.5002 164.71 90.6302 164.46 90.3302C164.21 90.0302 163.43 89.9702 162.97 90.1002C161.5 90.5402 160 90.9702 158.66 91.6702C152.38 94.9802 146.02 98.1302 140.64 102.93C138.68 104.68 136.29 106.06 133.9 107.18C127.58 110.16 122.55 115.08 116.61 118.54C111.65 121.43 106.6 124.16 102.25 127.87C98.0098 131.48 94.0098 135.42 90.2998 139.57C88.5898 141.49 87.8197 144.25 86.6397 146.63C83.2397 153.48 82.0297 161.29 77.3397 167.61C76.4697 168.78 76.1898 170.42 75.7797 171.89C74.1697 177.69 67.5798 183.3 61.6298 183.86C59.4898 184.06 56.7998 182 56.2498 179.6C56.0398 178.68 56.0898 177.68 56.0898 176.72C56.1098 165.74 59.1698 155.97 67.4398 148.26C72.6398 143.41 78.0397 138.74 82.9197 133.58C85.4997 130.85 87.6497 127.45 89.0897 123.98C90.4197 120.76 92.5597 118.61 94.9897 116.41C97.3697 114.25 99.4898 111.8 101.66 109.41C102.77 108.2 102.01 107.49 100.87 106.73C98.9597 105.46 96.8897 105.54 95.5297 106.96C91.8997 110.75 86.8197 110.58 82.4098 112.18C79.4098 113.27 76.4997 110.6 77.0697 107.5C77.3298 106.04 77.9297 104.38 78.9297 103.37C81.7298 100.56 83.9697 97.0902 88.2598 95.9302C90.5997 95.3002 92.7297 93.8402 94.8797 92.6102C95.3897 92.3202 95.9997 91.2902 95.8397 90.9402C95.5797 90.3702 94.6697 89.7002 94.0997 89.7502C91.4397 90.0002 88.7197 90.2202 86.1598 90.9402C76.4198 93.7002 67.7998 98.6602 60.5898 105.66C56.3498 109.77 53.0397 114.83 49.2098 119.37C45.3898 123.89 42.0397 128.75 37.1898 132.46C32.6298 135.94 28.6898 140.23 24.5998 144.29C21.4798 147.39 17.8498 149.33 13.4698 149.7C8.99975 150.08 6.30975 148.28 5.37975 144.08C3.11975 133.85 8.20975 122.89 17.0598 119.67C21.6597 117.99 25.0398 114.72 29.1198 112.42C34.1098 109.62 38.9098 106.45 43.9798 103.82C47.8598 101.81 52.1998 100.67 56.0698 98.6402C61.2398 95.9402 65.3397 91.8502 68.8597 87.2202C70.7097 84.8002 72.3797 82.2102 74.4497 79.9902C76.4997 77.7902 77.8697 75.4902 78.2397 72.4402C78.4697 70.5902 79.4697 68.8402 80.0297 67.0102C81.0497 63.6902 79.3097 61.6302 75.8597 62.4702C72.3298 63.3302 68.8898 64.5902 65.4798 65.8702C54.1398 70.1602 43.5098 75.8602 33.3798 82.4702C29.5598 84.9602 25.7598 87.4302 22.9698 91.3902C21.6098 93.3202 18.5098 94.1202 16.0898 95.1902C15.2498 95.5602 14.8098 94.8702 15.3098 93.8802C15.8198 92.8802 16.6498 91.7502 16.5098 90.7902C16.0098 87.1602 18.0398 84.7602 20.5398 83.0002C24.4198 80.2702 27.4398 76.2702 32.4598 75.1202C34.0398 74.7502 35.3798 73.3202 36.8198 72.3502C39.6798 70.4202 42.4998 68.4302 45.9998 67.7602C46.5598 67.6502 47.1898 67.5002 47.6098 67.1602C54.1198 61.8602 62.3497 59.9402 69.5997 56.0802C73.7797 53.8502 78.6097 54.4402 83.0697 55.7902C86.2897 56.7602 87.1997 59.5902 87.2797 62.6602C87.4697 69.5802 84.7297 75.2802 79.9897 80.2002C78.2697 81.9802 76.7397 83.9702 75.3397 86.0102C74.9497 86.5902 75.0397 87.9702 75.4798 88.5002C75.9898 89.1002 77.2197 89.5302 77.9997 89.3702C79.2797 89.1102 80.4497 88.3102 81.6697 87.7502C87.0797 85.2902 92.1497 82.0702 98.1997 81.0502C100.22 80.7102 101.67 80.5102 103.52 81.7502C107.75 84.5802 112.18 84.2202 116.59 81.7502C118.41 80.7402 120.38 79.8602 122.39 79.3802C124.2 78.9602 126.33 78.7102 127.55 80.8202C128.59 82.6102 128.11 85.3702 126.27 87.0902C125.02 88.2502 123.55 89.2102 122.08 90.0902C118.32 92.3102 115.28 94.9902 113.97 99.4102C113.52 100.94 112.17 102.28 111.05 103.54C108.25 106.67 106.34 110.06 107.14 114.44C107.34 115.56 107.95 116.31 109.09 115.61C114.12 112.53 119.35 109.82 123.93 105.96C128.15 102.4 132.9 99.4202 137.55 96.3902C143.49 92.5102 149.52 88.7602 155.61 85.1002C159.37 82.8402 163.25 80.7302 167.19 78.8002C168.49 78.1602 170.19 77.9402 171.65 78.0902C174.12 78.3502 175.46 80.6502 174.6 83.0502C173.63 85.7502 172.28 88.3202 171.24 90.9902C169.98 94.2302 171.33 96.0502 174.71 95.2202C177.86 94.4402 180.85 93.0102 183.88 91.7902C190.8 88.9902 197.41 85.3102 205.09 84.7402C206.59 84.6302 208.05 83.9302 209.51 83.4602C215.98 81.4002 222.28 81.3702 228.35 84.8302C230.9 86.2902 233.43 86.2402 236.06 84.8502C238.09 83.7802 240.23 82.8302 242.42 82.1602C246.26 80.9902 251.3 83.7302 251.72 87.6502C252.2 92.1602 252.96 96.9502 250.11 101.1C248.95 102.79 247.42 104.25 245.99 105.74C245.33 106.43 244.16 106.81 243.84 107.58C243.3 108.88 243.25 110.39 242.99 111.81C244.22 111.81 245.49 111.98 246.68 111.77C248.73 111.4 250.73 110.74 252.77 110.27C258.22 109.01 263.5 107.47 268.11 104C273.93 99.6102 280.24 95.8802 285.32 90.5502C286.21 89.6202 287.6 89.1402 288.79 88.5302C292.2 86.7902 295.61 85.0402 299.06 83.4102C302.06 81.9902 305.25 81.2302 308.59 81.6202C309.72 81.7502 310.88 82.0202 311.91 82.4802C315.58 84.1102 316.24 87.3302 313.41 90.1302C307.56 95.9202 300.38 99.4602 292.77 102.37C286.87 104.62 281.17 107.39 275.27 109.61C272.22 110.76 270.22 113.06 268.1 115.18C267.25 116.04 266.97 118.05 267.31 119.29C267.51 120.02 269.41 120.6 270.59 120.7C273.08 120.91 275.61 120.76 279.16 120.76L279.19 120.85ZM189.37 137.12C188.82 136.87 187.9 136.11 187.48 136.32C185.96 137.09 184.44 138.01 183.23 139.19C176.63 145.66 169.82 151.97 163.68 158.86C159.28 163.79 154.68 168.92 153.77 175.95C153.62 177.1 153.94 179.06 154.62 179.38C155.55 179.81 157.32 179.37 158.25 178.66C159.89 177.41 161.21 175.72 162.59 174.15C169.15 166.69 175.48 159 182.31 151.8C185.79 148.13 186.91 143.48 189.19 139.32C189.44 138.86 189.3 138.19 189.37 137.11V137.12ZM13.2798 134.98C13.2798 136.56 13.2398 137.14 13.2798 137.71C13.4798 140.37 15.2498 141.31 17.5798 139.98C18.0698 139.7 18.4798 139.27 18.9098 138.89C25.8898 132.63 32.9198 126.43 39.7898 120.06C41.8598 118.15 43.5398 115.81 45.2998 113.58C45.8298 112.9 46.0098 111.95 46.3498 111.12C45.4497 110.89 44.4897 110.34 43.6698 110.51C42.4297 110.75 41.2398 111.41 40.1098 112.03C38.2798 113.05 36.6298 114.61 34.6798 115.18C30.1098 116.52 26.6198 119.46 22.9398 122.18C22.1698 122.75 21.5098 123.66 20.6698 123.88C14.2598 125.57 13.5998 130.66 13.2698 134.98H13.2798ZM196.91 110.56C195.33 110.56 194.94 110.56 194.56 110.56C192.63 110.56 190.52 110.75 189.71 108.45C189.01 106.45 189.73 104.77 191.31 103.32C192.72 102.03 193.98 100.58 195.27 99.1702C196.25 98.1002 195.54 97.3502 194.58 97.0202C193.71 96.7202 192.7 96.6502 191.78 96.7502C185.92 97.3602 181.81 101.3 177.43 104.57C175.57 105.96 176.52 108.86 178.75 110.25C180.81 111.54 182.84 112.92 184.7 114.48C186.45 115.95 188 117.68 189.57 119.36C190.82 120.69 192.08 120.88 193.64 119.9C196.06 118.37 198.65 117.09 200.91 115.37C202.01 114.53 202.77 113.01 203.2 111.64C203.54 110.56 203.11 109.32 201.36 109.7C199.5 110.1 197.63 110.42 196.92 110.55L196.91 110.56ZM215.95 88.8802C210.29 88.3402 206.95 91.1202 204.42 95.4902C203.75 96.6502 202.77 97.6302 202.17 98.8102C201.6 99.9202 200.39 101.29 201.89 102.39C202.69 102.98 204.08 103.27 205.04 103.04C209.72 101.93 214.07 100.04 218.12 97.4002C220.52 95.8302 223.23 94.6602 223.41 91.2402C220.93 90.4502 218.44 89.6602 215.96 88.8702L215.95 88.8802ZM65.4497 165.91C65.4497 167.25 65.3197 168.99 65.5197 170.68C65.5897 171.26 66.4798 171.73 66.9998 172.26C67.3598 171.84 67.8397 171.47 68.0597 170.98C71.0697 164.43 73.9897 157.84 77.0897 151.33C77.8697 149.69 76.8897 149.69 75.9597 149.76C75.0597 149.83 73.9097 150 73.3397 150.58C69.2097 154.77 64.3797 158.63 65.4497 165.91ZM297.69 91.3502C297.98 91.4802 298.27 91.6502 298.57 91.7202C298.66 91.7402 298.82 91.5102 298.95 91.4002C298.66 91.2702 298.38 91.1002 298.07 91.0202C297.97 91.0002 297.82 91.2302 297.69 91.3502Z" fill="black"/>
<path d="M913.599 67.7302C913.779 65.4402 913.999 63.1402 914.139 60.8502C914.289 58.2702 913.449 57.7102 910.919 57.9402C908.909 58.1202 906.769 58.1302 904.849 57.6002C903.919 57.3502 906.519 53.9202 909.449 52.4702C910.299 52.0502 911.229 51.7602 912.149 51.4902C913.069 51.2202 914.059 51.1802 914.939 50.8302C916.929 50.0402 919.409 48.9602 919.109 46.6602C918.749 43.9002 915.899 44.4202 913.859 44.5602C910.809 44.7702 907.789 45.3802 904.739 45.6402C894.809 46.4702 885.139 49.4702 875.079 49.2302C873.749 49.2002 872.229 49.1502 871.989 51.0202C871.739 53.0202 872.559 54.3802 874.619 54.8402C874.809 54.8802 874.999 54.9102 875.189 54.9202C876.909 55.0002 879.139 54.7302 879.589 56.7902C880.059 58.9502 880.319 61.5702 879.519 63.5202C877.699 67.9202 875.409 72.1702 872.849 76.1902C870.919 79.2302 868.189 81.7602 865.979 84.6402C860.499 91.7802 855.149 99.0202 849.679 106.16C848.639 107.52 847.479 108.95 846.049 109.79C845.079 110.36 843.239 110.43 842.329 109.86C841.459 109.31 841.049 107.69 840.879 106.47C840.759 105.62 841.189 104.54 841.709 103.78C844.289 100 846.349 95.9102 849.749 92.6102C854.689 87.8202 859.339 82.7002 863.749 77.4202C865.679 75.1102 866.859 72.1302 868.099 69.3302C869.009 67.2602 867.719 66.0502 865.389 66.5602C864.829 66.6802 864.259 66.8602 863.769 67.1302C856.069 71.3302 846.729 72.2302 840.219 78.8002C836.239 79.6202 833.669 82.5302 830.619 84.8802C826.809 87.8002 824.349 91.6202 822.079 95.5502C818.239 102.18 814.859 109.07 811.249 115.83C810.619 117.01 809.839 118.11 809.109 119.23C806.409 123.41 803.509 127.48 801.049 131.79C796.949 138.98 792.369 145.83 786.789 151.93C780.719 158.57 775.049 158.12 769.529 151.01C765.079 145.28 764.619 138.73 765.389 131.89C765.409 131.7 765.399 131.47 765.499 131.33C770.709 123.46 774.189 114.33 783.949 110.06C788.929 107.88 793.129 103.89 797.639 100.66C801.839 97.6502 805.969 94.5702 810.139 91.5202C814.319 88.4602 818.509 85.4202 822.669 82.3302C823.269 81.8902 823.929 81.2902 824.149 80.6302C824.599 79.2502 824.759 77.7702 825.039 76.3402C823.559 76.2402 821.959 75.7102 820.629 76.1202C818.279 76.8402 816.149 78.2502 813.849 79.1302C807.949 81.4002 802.059 83.7502 796.029 85.6702C792.959 86.6502 789.629 87.0002 786.389 87.2202C781.919 87.5102 780.509 85.1402 782.399 81.0102C782.479 80.8302 782.549 80.6502 782.639 80.4902C785.459 75.5102 788.309 70.5502 791.099 65.5602C791.549 64.7502 791.989 63.8302 792.059 62.9402C792.119 62.0502 791.709 61.1302 791.499 60.2202C790.779 60.4402 790.009 60.5702 789.349 60.9002C785.239 62.9602 781.159 65.0802 777.059 67.1402C774.709 68.3202 772.209 69.2502 769.979 70.6102C766.559 72.7002 763.289 75.0302 760.039 77.3802C759.339 77.8902 758.859 78.8502 758.539 79.7102C758.279 80.4002 758.259 81.2502 758.379 81.9902C759.689 90.3902 753.859 94.9502 748.589 99.6002C745.749 102.1 742.889 101.67 739.709 99.2902C739.249 98.9502 738.859 98.4902 738.389 98.1702C735.969 96.5402 735.389 96.6702 733.979 99.1902C732.099 102.54 730.279 105.92 728.379 109.25C720.409 123.26 711.419 136.58 701.649 149.41C697.829 154.42 694.849 160.07 691.459 165.41C690.849 166.38 690.229 167.37 689.469 168.23C687.799 170.12 686.139 170.36 683.849 169.21C682.089 168.33 681.189 166.44 682.299 164.27C684.479 160.02 686.829 155.79 689.589 151.89C696.779 141.72 704.379 131.84 711.499 121.63C714.439 117.42 716.569 112.66 719.079 108.15C722.239 102.46 725.439 96.8002 728.519 91.0702C728.999 90.1702 728.919 88.9802 729.099 87.9202C728.049 87.9502 726.799 87.6102 725.989 88.0702C714.799 94.3302 703.269 99.9302 691.759 105.56C687.709 107.54 683.379 108.23 678.869 108.1C676.599 108.03 675.459 107.03 674.769 104.86C673.169 99.8302 674.119 94.9802 675.399 90.1302C675.789 88.6502 676.539 87.2602 676.859 85.7702C677.039 84.9602 676.969 83.6802 676.459 83.2502C675.859 82.7402 674.509 82.5602 673.779 82.8802C671.869 83.7402 670.099 84.9302 668.299 86.0202C664.399 88.3702 660.339 90.3102 656.629 93.1202C652.739 96.0702 647.749 97.5902 643.189 99.6202C642.659 99.8602 641.659 99.5502 641.119 99.1602C640.369 98.6102 639.799 97.7802 639.239 97.0002C637.929 95.1602 637.019 92.3002 635.289 91.6902C633.619 91.1002 631.089 92.6902 629.019 93.5302C625.139 95.1202 621.359 96.9502 617.469 98.5102C615.709 99.2202 613.779 99.5002 611.929 100C608.969 100.79 606.059 101.77 603.059 102.36C600.269 102.91 597.409 103.22 594.569 103.35C592.789 103.43 591.659 102.16 591.649 100.41C591.649 95.1602 590.699 90.0702 594.629 85.1202C598.029 80.8502 599.849 75.3102 604.219 71.5902C604.559 71.3002 604.859 70.3802 604.679 70.1802C604.219 69.6502 603.519 69.3002 602.859 69.0102C602.549 68.8802 602.079 68.9802 601.729 69.1002C596.649 70.7902 591.589 72.5502 586.499 74.2002C583.589 75.1402 580.619 76.6502 577.689 76.6202C570.929 76.5402 566.039 79.8202 562.559 84.7802C557.589 91.8702 551.719 98.1902 546.509 105.05C543.269 109.31 540.579 113.99 537.649 118.49C537.439 118.81 537.319 119.19 537.129 119.52C535.189 122.8 532.629 124.03 530.729 122.61C528.729 121.12 528.279 117.15 529.999 114.68C534.469 108.24 538.889 101.76 543.559 95.4702C548.019 89.4802 552.709 83.6502 557.409 77.8402C561.019 73.3902 565.089 69.2802 568.439 64.6502C574.159 56.7302 581.509 50.0502 586.249 41.4002C587.999 38.2002 589.739 34.9902 591.559 31.8402C592.509 30.1902 593.479 28.5102 594.729 27.0802C596.629 24.9002 598.769 25.2202 599.189 27.9102C599.559 30.2402 599.549 33.1402 598.459 35.1002C595.109 41.1002 591.329 46.8902 587.379 52.5202C585.079 55.8002 582.159 58.6602 579.469 61.6702C577.879 63.4502 576.359 65.8402 577.549 67.6702C578.269 68.7802 581.469 68.8302 583.389 68.4802C585.989 68.0002 588.449 66.7102 590.949 65.7002C596.829 63.3302 602.569 60.5202 608.599 58.6502C616.839 56.0902 623.529 50.8602 630.859 46.7702C634.159 44.9302 636.859 42.0202 639.829 39.5802C640.429 39.0902 640.929 38.4602 641.589 38.0902C643.369 37.0902 646.419 37.4202 647.559 38.6402C648.789 39.9602 648.429 42.4702 646.369 44.2502C643.169 47.0002 639.889 49.6902 636.429 52.1202C631.569 55.5302 626.409 58.5202 621.619 62.0202C619.709 63.4202 618.389 65.6502 616.899 67.5702C615.019 69.9802 613.559 72.8402 611.319 74.8402C606.289 79.3502 603.969 85.5902 600.329 90.9602C598.589 93.5302 599.839 95.3202 602.949 95.4202C604.099 95.4602 605.499 95.7502 606.379 95.2302C610.259 92.9402 614.489 93.1402 618.719 93.0102C619.809 92.9802 620.889 92.3002 621.949 91.8502C626.649 89.8502 631.439 88.0302 635.999 85.7502C639.039 84.2202 642.039 82.3402 644.529 80.0502C649.479 75.5102 654.039 70.5702 658.799 65.8202C662.189 62.4402 665.239 58.6202 669.939 56.8202C670.609 56.5602 671.089 55.8202 671.639 55.2802C673.969 53.0102 676.159 50.6902 679.479 49.6402C681.219 49.0902 682.669 47.5402 684.139 46.3102C688.539 42.6402 694.129 42.8502 697.709 47.2302C699.759 49.7302 701.239 52.6802 702.989 55.4202C703.919 56.8702 703.259 58.1702 702.229 58.9902C700.759 60.1602 699.079 61.5802 697.349 61.7902C694.449 62.1402 692.949 64.0602 691.299 65.8602C690.629 66.6002 690.249 67.9102 690.279 68.9402C690.409 73.1102 689.399 76.8402 686.499 79.9102C681.999 84.6602 681.349 90.4302 681.909 96.5302C682.189 99.5302 683.899 101.02 686.539 99.7802C693.139 96.6702 700.329 95.2402 706.739 91.4102C714.739 86.6202 722.849 81.8302 731.879 78.8502C734.259 78.0702 736.149 75.1302 737.749 72.8202C740.579 68.7402 742.929 64.3302 745.649 60.1702C746.949 58.1802 747.569 56.1602 748.019 53.8202C748.759 49.9202 750.039 46.0902 751.459 42.3702C752.419 39.8402 754.949 39.2002 757.159 40.7202C761.679 43.8302 765.559 47.3002 765.399 53.5902C765.319 56.7902 766.029 60.0302 766.509 63.2302C766.669 64.2702 767.049 65.9502 767.659 66.1102C768.799 66.4102 770.389 66.1602 771.409 65.5202C774.329 63.7002 776.879 61.2802 779.879 59.6302C785.739 56.4102 791.739 53.4202 797.829 50.6402C799.149 50.0402 800.909 48.4202 802.609 50.1002C804.419 51.8902 804.889 54.0502 803.669 56.3802C801.909 59.7402 800.219 63.1502 798.259 66.3902C796.499 69.3102 794.389 72.0202 792.519 74.8702C792.009 75.6402 791.269 77.0602 791.559 77.3902C792.239 78.1802 793.489 78.9502 794.479 78.9202C795.949 78.8702 797.379 78.1002 798.839 77.6602C801.019 77.0002 803.229 76.4502 805.369 75.7002C807.889 74.8302 810.409 73.9002 812.849 72.8202C817.199 70.8902 821.809 69.3102 825.719 66.7002C830.619 63.4302 834.919 59.2902 839.469 55.5002C840.059 55.0102 840.569 54.4102 841.129 53.8902C843.779 51.4402 846.039 50.8802 847.709 52.2602C849.469 53.7202 849.289 57.1002 847.019 59.4102C843.779 62.7002 840.359 65.8002 837.009 68.9702C836.729 69.2302 836.369 69.3902 836.069 69.6402C834.669 70.7902 835.329 72.0002 835.929 73.2502C836.649 74.7602 837.639 74.4002 838.749 73.8102C842.649 71.7702 846.589 69.8102 850.449 67.7002C854.319 65.5902 858.149 63.3802 861.939 61.1302C863.049 60.4702 864.139 59.6202 864.949 58.6302C865.859 57.5102 865.789 56.3902 864.689 55.0802C862.219 52.1502 858.619 51.1602 855.549 49.2702C854.749 48.7702 853.739 48.6002 852.959 48.0802C851.359 47.0002 850.799 45.3802 851.179 43.5302C851.619 41.4302 853.229 40.9302 855.119 40.9602C856.469 40.9802 857.869 40.8302 859.159 41.1102C867.169 42.8702 875.129 42.7702 883.179 41.1902C887.109 40.4202 891.199 40.4202 895.229 40.2002C904.629 39.6802 914.039 39.2802 923.439 38.7102C926.209 38.5402 927.959 39.5502 928.539 42.1802C929.049 44.5002 930.729 45.1402 932.669 45.6102C933.789 45.8902 934.879 46.2402 936.009 46.4502C942.869 47.7702 946.029 53.3402 944.949 60.2502C943.729 68.0702 939.869 74.2702 932.569 77.9502C926.569 80.9702 920.539 83.9302 914.529 86.9202C913.839 87.2602 913.189 87.7202 912.459 87.9502C910.929 88.4402 909.479 90.3902 907.759 88.7102C906.219 87.2002 905.169 85.2402 905.729 82.9802C906.229 80.9402 906.859 78.8802 907.779 77.0002C909.409 73.6602 911.049 70.2902 913.729 67.6002C913.459 69.2902 913.269 71.0002 912.909 72.6702C911.869 77.4502 912.799 78.5402 917.799 78.0602C918.919 77.9502 920.049 77.6102 921.099 77.1802C926.039 75.2002 929.859 71.5602 933.489 67.9502C936.059 65.3902 936.959 61.5802 936.909 57.8302C936.869 54.6602 935.139 52.9302 931.989 52.5502C926.799 51.9302 926.049 52.3102 923.569 57.2602C922.799 58.8002 922.409 60.5402 921.529 62.0002C919.729 64.9802 917.799 67.9402 913.619 67.7202L913.599 67.7302ZM664.449 73.4002C666.909 73.1602 669.779 73.6502 671.759 72.5402C678.229 68.9202 684.409 64.7702 690.619 60.7102C692.219 59.6602 692.649 57.9202 691.769 56.1002C691.149 54.8302 691.429 52.9302 689.249 52.7202C685.559 52.3502 681.839 53.1602 679.889 56.0702C677.019 60.3702 673.309 63.3302 669.149 66.1502C666.719 67.8002 663.909 69.7202 664.559 73.5102C664.199 73.5402 663.749 73.4402 663.499 73.6202C663.119 73.8902 662.819 74.3202 662.609 74.7502C662.559 74.8502 663.169 75.4402 663.239 75.4002C663.649 75.1602 664.079 74.8602 664.339 74.4702C664.509 74.2102 664.419 73.7702 664.449 73.4102V73.4002ZM771.769 138.07C772.289 142.5 773.409 144.91 776.249 147.34C777.829 148.69 779.339 148.78 780.899 147.51C781.789 146.79 782.659 145.98 783.329 145.06C787.239 139.65 791.189 134.27 794.919 128.73C796.499 126.39 797.389 123.59 798.879 121.18C802.069 115.98 805.459 110.89 808.729 105.74C809.239 104.93 809.849 104.08 810.009 103.18C810.189 102.17 810.259 100.84 809.749 100.06C808.759 98.5802 807.799 99.9702 806.919 100.56C801.029 104.47 795.029 108.23 789.289 112.36C783.039 116.85 777.669 122.29 774.469 129.42C773.239 132.15 772.659 135.18 771.779 138.07H771.769ZM653.019 88.6802C654.289 88.3002 656.149 88.1502 657.509 87.2602C660.169 85.5102 662.609 83.4002 665.019 81.3102C665.349 81.0202 665.289 79.6302 664.929 79.3302C664.309 78.8202 663.099 78.3302 662.509 78.6102C658.369 80.5502 653.829 82.0202 651.499 86.5102C651.189 87.1002 650.719 87.6102 650.319 88.1602C651.059 88.3102 651.809 88.4502 653.019 88.6902V88.6802ZM744.439 86.9002C744.439 87.8102 744.409 88.1902 744.439 88.5802C744.679 91.3502 745.799 91.9002 748.169 90.6802C750.439 89.5202 751.479 87.5102 752.299 85.3402C752.519 84.7502 752.329 83.4802 751.959 83.3002C750.459 82.5802 748.789 81.7502 747.209 81.8102C746.359 81.8402 745.419 83.5102 744.829 84.6002C744.399 85.4002 744.489 86.4702 744.429 86.9002H744.439Z" fill="black"/>
</svg>
