<svg width="950" height="220" viewBox="0 0 950 220" fill="none" xmlns="http://www.w3.org/2000/svg">
<path d="M781.73 77.6499C781.84 80.6499 780.13 83.0799 777.8 83.9799C775.08 85.0299 774.73 85.5899 774.61 88.4899C774.56 89.7199 774.32 90.9299 774.16 92.1599C774.08 92.7499 773.75 93.4499 773.96 93.9199C774.73 95.6999 773.93 96.9199 772.7 97.9999C771.75 98.8299 771.71 99.6799 771.77 100.95C771.83 102.14 772.07 102.75 773 103.35C773.87 103.91 774.29 104.65 773.46 105.65C772.73 106.52 772.55 108.25 773.25 108.4C775.63 108.9 774.67 110.25 774.45 111.5C774.42 111.68 774.48 111.92 774.58 112.09C775.08 112.99 779.44 112.99 779.77 112.03C780.13 110.99 780.3 109.85 780.34 108.75C780.38 107.66 780.41 106.69 781.56 106.16C784.57 104.78 786.48 101.78 789.7 100.67C790.29 100.47 791.05 99.6599 791.06 99.1199C791.11 97.4799 791.38 96.3499 793.39 96.7499C794.45 94.8099 797.33 93.9099 796.63 90.8999C796.45 90.1199 796.89 89.1299 797.22 88.2999C797.59 87.3699 798.37 86.5799 797.76 85.4299C797.62 85.1699 797.79 84.5999 798 84.3199C798.99 82.9899 799.39 81.6599 798.74 79.9999C798.53 79.4699 798.97 78.6199 799.26 77.9699C799.74 76.8899 799.7 75.9499 798.74 75.1999C797.86 74.5099 797.79 73.7099 798.16 72.7299C798.3 72.3599 798.18 71.9099 798.23 71.4999C798.69 67.9699 799.26 67.2399 802.66 66.5899C804.22 66.2899 805.86 66.3099 807.46 66.3699C807.98 66.3899 808.51 66.9599 808.97 67.3399C810.48 68.5799 811.94 69.8799 813.48 71.0899C814.79 72.1199 814.42 73.4799 814.32 74.7799C814.19 76.6099 814.38 77.0799 815.88 76.9299C819.72 76.5299 823.04 78.4399 826.63 79.0999C826.83 79.1399 827.03 79.2199 827.2 79.3399C829.28 80.6999 831.09 77.4499 832.97 78.8699C834.89 80.3299 836.77 79.6599 838.51 79.0799C839.86 78.6299 840.94 77.3999 842.15 76.5199C842.69 76.1299 843.39 75.3399 843.77 75.4699C845.2 75.9599 846.98 75.3099 848.1 76.7399C848.42 77.1399 848.69 77.5799 849.02 77.9799C850.69 79.9899 851.07 80.1299 853.44 79.0799C854.51 78.6099 855.32 78.5899 856.28 79.3299C857.9 80.5799 859.73 80.8899 861.76 80.3299C862.49 80.1299 863.35 80.4899 864.15 80.4799C864.84 80.4799 865.59 80.4399 866.2 80.1599C866.88 79.8499 867.65 78.7199 867.99 78.8699C869.77 79.6199 871.99 78.3999 873.51 80.3099C874.71 81.8099 876.28 82.4299 878.12 81.0799C878.9 80.5099 879.72 80.7399 880.35 81.4199C881.2 82.3499 882.22 82.4199 883.43 82.4299C886.57 82.4599 889.17 85.2499 888.9 88.1999C888.83 88.9599 888.28 89.6599 888 90.4099C887.62 91.4499 886.97 91.4799 886.05 91.1299C885.76 91.0199 885.3 91.3599 884.92 91.4999C882.87 92.2999 882.83 92.3299 881.6 90.3199C881.24 89.7199 881.07 89.4099 880.25 89.5599C879.19 89.7499 878.05 89.5099 876.97 89.6599C874.85 89.9499 872.59 89.2599 870.65 90.8399C869.37 91.8799 867.88 91.0999 866.62 90.5999C865.81 90.2699 865.19 90.2399 864.34 90.3199C863.07 90.4299 861.7 90.1399 860.46 89.7599C858.21 89.0799 856.02 88.1999 853.79 87.4499C853.46 87.3399 853.02 87.5199 852.64 87.5699C852.77 87.8999 852.99 88.2199 853.01 88.5499C853.03 88.9499 853.04 89.5299 852.8 89.7299C851.83 90.5199 851.13 91.7399 849.4 91.2399C848.16 90.8899 847.37 91.9499 846.99 93.1399C846.75 93.8899 846.66 94.8799 846.13 95.3199C844.09 96.9799 843.58 99.2499 843.53 101.6C843.49 103.83 843.04 105.85 841.94 107.79C841.56 108.46 841.33 109.38 841.45 110.12C841.68 111.52 842.22 112.82 841.78 114.33C841.63 114.84 842.21 115.67 842.64 116.22C844.34 118.46 845.17 120.89 844.56 123.71C844.5 124 844.36 124.44 844.5 124.6C846.73 127.05 844.21 128.29 843.12 129.82C842.69 130.43 841.97 130.93 842.58 131.63C843.88 133.12 842.82 134.55 842.58 135.98C842.46 136.72 841.96 136.98 841.05 137.07C839.23 137.27 839.02 137.96 839.9 139.55C840.05 139.82 840.22 140.08 840.38 140.34C841.49 142.1 840.84 143.4 838.71 143.5C837.92 143.53 837.08 143.03 836.94 144.39C836.83 145.43 836.01 146.43 837.38 147.35C838.77 148.28 838.79 149.16 837.74 150.25C837.46 150.54 837.12 150.84 836.75 150.95C835.34 151.36 835.17 152.37 835.9 153.31C836.6 154.22 836.52 154.92 836.14 155.84C835.97 156.25 836.05 156.82 836.16 157.27C836.32 157.92 836.82 158.56 836.77 159.17C836.75 159.46 835.71 159.58 835.26 159.94C834.46 160.56 833.49 161.17 833.08 162.01C832.43 163.36 831.37 163.57 830.15 163.92C829.06 164.24 828.63 164.05 828.49 162.95C828.37 162.03 827.77 161.54 826.86 161.34C825.14 160.96 824.65 159.75 824.61 158.12C824.59 157.11 824.13 156.1 824.17 155.1C824.22 153.85 824.86 152.56 824.7 151.37C824.53 150.15 823.96 148.98 824.57 147.78C825.3 146.33 825.59 145 824.82 143.39C824.16 142.01 825.38 140.56 824.89 138.89C824.36 137.07 824.91 134.96 824.86 132.98C824.82 131.45 825.43 130.45 826.71 129.69C827.09 129.46 827.59 128.84 827.51 128.55C827.36 128.04 826.8 127.64 826.42 127.2C826.96 126.74 827.72 126.39 828 125.8C828.58 124.61 828.47 123.35 827.35 122.44C826.32 121.6 826.57 120.9 827.44 120.2C828.31 119.5 829.11 118.55 830.12 118.2C831.56 117.7 831.73 116.81 831.59 115.59C831.2 112.29 832.16 109.28 833.63 106.39C833.91 105.84 834.17 105.24 834.59 104.82C835.73 103.7 835.61 102.34 835.27 101.06C834.99 99.9899 835.24 99.1299 835.46 98.1099C836.1 95.1199 836.41 92.0799 835.53 89.0599C835.43 88.7099 835.15 88.2199 834.86 88.1399C833.1 87.6699 831.32 87.1999 829.52 86.9299C828.31 86.7499 827.08 86.9299 825.97 86.1399C825.35 85.6999 822.52 86.4299 821.04 87.1699C820.68 87.3499 820.14 87.8199 820.02 87.7299C818.27 86.3699 816.85 86.9499 815.48 88.3299C815.39 88.4199 814.89 88.2299 814.67 88.0599C812.86 86.5899 810.74 87.0299 808.7 87.1099C806.76 87.1899 806.28 87.7399 805.85 89.6699C805.65 90.5399 805.53 91.6799 804.93 92.1699C801.79 94.7699 801.16 98.5699 799.81 102.04C799.45 102.97 798.96 104.11 798.19 104.57C795.87 105.94 795.5 108.16 795.44 110.38C795.35 113.69 794.01 116.31 791.79 118.6C790.93 119.49 790.11 120.43 789.23 121.3C788.87 121.66 788.39 122.16 787.97 122.15C784.52 122.04 783.76 125.84 781.05 126.82C780.71 126.94 780.65 127.89 780.5 128.47C780.13 129.85 779.59 130.99 777.86 131C777.38 131 776.72 131.14 776.44 131.47C775.16 132.96 773.94 134.31 771.81 134.79C771.15 134.94 770.59 136.61 770.44 137.65C770.26 138.89 770.05 139.79 768.68 140.18C768.17 140.33 767.81 140.98 767.39 141.4C767.03 141.76 766.65 142.45 766.33 142.43C763.89 142.22 762.53 144.46 760.55 144.94C758.39 145.46 756.56 146.58 754.55 147.33C753.39 147.76 752.66 148.42 752.2 149.57C751.42 151.5 750.53 153.27 747.95 153.38C747.15 153.41 746.4 154.32 745.6 154.8C744.98 155.17 744.37 155.59 743.69 155.8C741.89 156.37 740.43 157.16 739.31 158.89C738.34 160.39 736.81 161.7 735.24 162.59C734.25 163.15 732.7 162.95 731.45 162.78C730.33 162.63 729.5 162.75 728.6 163.47C726.55 165.13 724 166.09 722.3 168.29C721.61 169.19 720.28 169.61 719.21 170.2C718.99 170.32 718.58 170.32 718.35 170.2C715.52 168.69 712.32 169.33 709.35 168.7C708.93 168.61 708.3 168.8 707.97 169.09C706.77 170.18 705.46 169.98 703.97 169.94C701.68 169.89 699.35 169.52 697.06 170.87C695.73 171.66 693.75 171.44 692.06 171.53C690.91 171.59 690.24 170.78 689.7 169.81C689.06 168.66 688.35 167.54 687.63 166.44C687 165.47 687.15 164.45 688.13 163.81C689.32 163.02 690.45 161.87 691.75 161.6C693.55 161.24 695.74 160.89 697.22 162.3C698.78 163.78 700.46 163.8 702.35 163.8C704.08 163.8 705.8 164.06 707.53 164.23C707.83 164.26 708.29 164.52 708.4 164.4C710.07 162.72 712.41 163.87 714.29 162.95C715.42 162.4 716.32 161.98 716.93 160.66C717.23 160.02 719.42 160.45 720.07 159.75C721.59 158.13 723.06 157.11 725.41 157.44C726.53 157.6 727.5 156.93 728.13 155.78C728.56 154.99 729.33 154.36 730.01 153.74C730.35 153.43 730.94 153.01 731.26 153.11C732.63 153.56 733.62 152.59 734.77 152.39C737.78 151.88 739.14 149.54 740.84 147.53C741.1 147.22 741.23 146.64 741.53 146.55C744.55 145.66 746.56 142.69 749.97 142.57C750.62 142.55 751.25 142.02 751.88 141.71C752.7 141.31 753.49 140.88 754.32 140.52C756.11 139.74 758.04 139.23 758.12 136.65C758.16 135.6 758.67 134.44 759.29 133.55C760.22 132.2 760.79 130.64 762.75 129.96C765.09 129.15 765.07 127.5 764.06 125.06C763.27 123.14 762.33 121.69 760.41 120.81C759.28 120.29 759.12 119.08 759.03 117.89C758.96 116.95 758.19 116.06 759.49 115.23C760.17 114.8 760.6 110.09 760.46 108.71C760.13 105.5 760.87 102.72 763.69 100.73C764.11 100.43 764.4 99.7699 764.5 99.2299C764.62 98.5299 764.7 97.6999 764.43 97.0899C763.28 94.4799 763.84 91.8599 764.17 89.2399C764.25 88.5699 764.53 87.8899 764.87 87.2999C765.43 86.3399 766.02 85.3699 766.75 84.5399C768.41 82.6499 768.32 80.7099 767.35 78.5399C766.71 77.0899 766.34 75.7699 764.27 75.6799C763.01 75.6299 762.38 74.5599 762.46 72.9699C762.55 71.0399 762.06 69.0699 763.85 67.6599C764.47 67.1699 765.2 66.5899 765.92 66.5199C767.23 66.3999 768.27 66.1699 769.09 64.9799C769.34 64.6099 770.56 64.4799 771.01 64.7599C772.1 65.4499 773.63 65.4599 774.31 66.8599C774.51 67.2699 775.05 67.6399 775.51 67.7799C779.1 68.8799 780.57 71.5499 781.09 75.0199C781.26 76.1199 781.64 77.1999 781.75 77.6299L781.73 77.6499Z" fill="black"/>
<path d="M275.44 85.2402C275.04 86.6902 274.64 88.1402 274.26 89.6002C274.06 90.3802 273.62 91.2402 273.78 91.9502C274.26 94.1402 273.22 95.9602 272.59 97.8802C272.42 98.4102 271.92 99.0902 271.44 99.2202C269.77 99.6502 269.02 101.06 267.91 102.1C265.12 104.68 262.44 107.42 259.38 109.63C257.52 110.97 255.04 111.47 252.83 112.32C252.35 112.5 251.66 112.39 251.35 112.7C249.48 114.55 246.99 114.22 244.73 114.61C243.21 114.88 241.89 115.31 240.46 115.99C238.66 116.84 236.31 116.92 234.24 116.77C230.68 116.51 230.17 116.61 228.27 119.68C227.47 120.97 226.51 122.16 225.62 123.4C225.5 123.57 225.33 123.75 225.32 123.93C225.1 127.47 223.19 130.91 224.6 134.54C225.24 136.2 224.27 137.54 223.7 138.82C222.62 141.24 222.23 143.66 222.26 146.27C222.3 149.44 222.41 152.66 221.89 155.76C221.57 157.65 220.4 159.61 219.1 161.08C217.71 162.65 215.27 163.36 214.12 165.03C213.04 166.59 213.06 168.9 212.61 170.89C212.32 172.17 211.51 172.85 210.22 172.91C208.9 172.96 207.96 173.28 207.3 174.67C206.66 176.03 203.62 176.28 202.7 175.11C201.91 174.11 201.47 172.81 200.99 171.6C200.77 171.05 200.97 170.32 200.74 169.78C200.04 168.17 200.64 167.05 201.8 165.96C202.46 165.34 202.95 164.52 203.51 163.79C204.72 162.19 204.88 160.54 204.25 158.58C203.66 156.76 203.53 154.77 203.32 152.85C203.12 150.96 203.76 148.96 202.57 147.19C203.31 144.53 202.47 141.64 203.83 139.05C204.28 138.19 204.46 137.13 204.5 136.14C204.55 134.82 204.12 133.45 205.21 132.34C205.28 132.27 205.34 132.13 205.31 132.06C204.19 129.29 206.59 128.1 207.81 126.33C208.83 124.85 209.59 123.19 210.44 121.59C210.82 120.87 211.14 120.12 211.48 119.39C210.78 119.32 210.06 119.36 209.4 119.17C207.32 118.56 205.28 117.99 203.06 118.64C202.47 118.81 201.69 118.31 200.99 118.16C200.29 118.01 199.54 117.71 198.89 117.85C197.37 118.19 195.82 117.82 194.41 117.97C191.34 118.32 188.57 117.19 185.66 116.93C185.09 116.88 184.34 116.65 184.04 116.23C181.94 113.36 179.18 110.84 178.74 107.03C178.61 105.93 178.67 104.8 178.7 103.69C178.72 103.08 178.94 102.47 178.93 101.87C178.82 95.4402 181.36 90.3702 186.75 86.7902C189.73 84.8102 192.75 82.9102 195.76 80.9802C196.01 80.8202 196.32 80.6902 196.62 80.6602C200.03 80.2102 202.83 78.5602 205.36 76.3502C205.74 76.0202 206.22 75.7102 206.7 75.5902C210.06 74.7402 213.4 73.7502 216.81 73.1802C220.96 72.4902 225.08 71.8402 228.9 69.9902C229.17 69.8602 229.49 69.7002 229.78 69.7202C233.31 70.0102 236.71 69.3302 240.11 68.5402C240.49 68.4502 240.93 68.5402 241.33 68.6302C245.14 69.4202 248.94 70.2402 252.74 71.0402C256.14 71.7602 259.54 72.4702 262.94 73.1702C263.65 73.3202 264.46 73.6702 265.06 73.4702C267.24 72.7202 268.82 74.1502 270.6 74.8002C271.14 75.0002 271.81 75.4602 271.99 75.9502C273.12 79.0002 275.33 81.7002 275.46 85.3002L275.44 85.2402ZM232.57 107.69C234.09 107.19 235.33 106.56 236.63 106.4C241.25 105.82 245.05 103.39 249 101.25C250.33 100.53 251.66 99.2202 253 99.2202C254.57 99.2202 255.38 98.5402 255.97 97.5402C256.71 96.3102 257.54 95.6102 258.99 95.2502C259.96 95.0002 261.22 94.0902 261.49 93.2202C262.47 90.0302 263.08 86.7302 263.82 83.4602C263.86 83.2702 263.82 83.0502 263.77 82.8502C263.28 80.9202 260.13 78.4202 258.1 78.3102C257.39 78.2702 256.44 78.4202 256 78.0402C253.43 75.7902 249.72 77.2602 247.06 75.1802C246.25 74.5402 245.32 75.2702 245.44 76.4702C245.55 77.5302 245.35 78.0102 244.28 78.1402C243.67 78.2102 243.09 78.4602 242.49 78.5802C240.44 78.9702 238.03 78.8802 238.08 81.9802C236.3 83.9402 234.63 86.0102 232.71 87.8202C231.95 88.5402 231.91 88.9002 232.56 89.4802C234.2 90.9502 234.33 92.6202 233.27 94.4402C232.69 95.4302 232.55 96.2502 233.41 97.2202C233.83 97.6802 234.18 98.6002 234 99.1302C233.16 101.63 233.58 104.4 232.3 106.79C232.2 106.98 232.46 107.36 232.58 107.72L232.57 107.69ZM204.6 111.22C204.61 111.35 204.63 111.48 204.64 111.61C207.38 111.21 210.16 110.96 212.86 110.36C214.49 110 215.82 107.73 215.6 106.36C215.42 105.25 215.48 103.96 214.91 103.09C212.79 99.8902 213.42 96.8602 214.83 93.6302C215.64 91.7802 216.42 89.8102 217.98 88.3002C219.51 86.8102 220.76 85.0702 222.89 84.1702C224.38 83.5402 224.55 81.2102 223.32 80.5702C222.45 80.1202 221.22 79.6702 220.38 79.9402C218.07 80.7002 215.65 81.5102 213.75 82.9402C212.56 83.8402 211.37 84.7802 210.05 84.8102C205.29 84.9202 201.59 88.3102 196.98 88.8202C196.4 88.8802 195.92 89.7302 195.35 90.1502C192.88 92.0002 191.95 95.3102 189.03 96.7302C188.82 96.8302 188.83 97.3102 188.64 97.5302C186.91 99.6702 187.82 102.29 187.36 104.66C187.27 105.14 187.73 105.9 188.16 106.27C189.55 107.46 190.92 108.78 192.52 109.61C195.5 111.14 198.71 111.88 202.12 111.34C202.93 111.21 203.77 111.26 204.59 111.23L204.6 111.22Z" fill="black"/>
<path d="M174.511 86.2C174.971 90.41 173.531 93.61 170.331 96.09C169.701 96.58 169.121 97.25 168.781 97.97C167.221 101.3 164.391 103.34 161.461 105.29C157.221 108.13 152.561 109.81 147.481 110.49C145.171 110.8 142.901 112.13 140.651 112.05C138.191 111.95 136.651 113.17 134.771 114.15C133.781 114.67 132.411 114.43 131.271 114.72C129.021 115.29 128.151 117.06 129.021 119.15C129.341 119.91 129.721 120.65 130.191 121.33C131.381 123.05 131.591 124.93 131.421 126.94C131.371 127.59 131.561 128.27 131.691 128.92C131.811 129.51 132.181 130.11 132.121 130.67C131.831 133.6 132.031 136.48 132.471 139.39C132.571 140.07 131.961 140.89 131.611 141.61C130.941 142.97 130.071 144.16 130.141 145.89C130.221 147.74 129.101 149.38 127.351 149.98C125.041 150.78 124.631 152.62 124.461 154.5C124.271 156.61 124.611 158.77 124.491 160.9C124.421 162.2 123.971 163.49 123.631 164.76C123.531 165.14 123.011 165.5 123.051 165.82C123.581 169.61 120.201 169.17 118.261 170.12C117.081 170.7 115.501 169.69 114.821 168.17C114.261 166.93 113.601 166 112.411 165.17C109.931 163.45 109.251 160.61 110.411 157.75C112.301 153.06 112.121 148.37 110.841 143.59C110.511 142.38 110.821 141 110.501 139.78C110.171 138.51 108.961 137.33 109.011 136.14C109.111 133.4 109.721 130.68 110.181 127.97C110.331 127.09 110.661 126.23 110.951 125.38C111.141 124.81 111.321 124.2 111.671 123.72C113.441 121.33 115.251 118.97 117.061 116.62C118.061 115.32 118.021 115.18 116.501 114.51C115.751 114.18 114.951 113.88 114.331 113.37C113.461 112.65 112.681 112.38 111.511 112.68C110.841 112.85 109.871 112.52 109.251 112.11C107.721 111.1 106.121 110.71 104.301 110.64C102.951 110.59 101.591 110.54 100.221 109.79C99.0706 109.16 97.4206 109.31 95.9906 109.33C94.6806 109.35 93.8206 108.99 93.3806 107.69C93.0806 106.82 92.4106 106.04 92.2606 105.16C92.0406 103.84 91.3506 102.96 90.4606 102.04C89.4806 101.02 88.6006 99.84 89.6206 98.23C89.9006 97.78 89.8806 97 89.7206 96.45C88.7306 93.03 90.2806 90.64 92.6406 88.37C96.0406 85.09 100.041 82.61 103.861 79.92C108.071 76.96 112.951 75.21 117.931 73.96C119.441 73.58 120.571 73 121.521 71.83C122.231 70.95 123.041 70.14 123.811 69.31C124.161 68.93 124.521 68.3 124.921 68.27C128.001 68.05 130.641 65.81 133.871 66.39C136.051 66.79 138.211 67.25 140.401 67.61C141.311 67.76 142.251 67.86 143.161 67.8C149.511 67.36 155.381 69.11 161.131 71.53C161.981 71.89 162.881 72.12 163.761 72.4C164.541 72.65 165.531 72.68 166.081 73.19C170.021 76.85 174.891 79.96 174.541 86.19L174.511 86.2ZM139.641 104.02C142.581 103.04 145.971 101.92 149.361 100.79C149.451 100.76 149.541 100.68 149.611 100.61C151.531 98.65 153.831 97.23 156.191 95.87C156.891 95.47 157.561 94.89 158.021 94.24C159.801 91.73 162.621 89.67 161.731 85.92C161.601 85.37 162.411 84.66 162.501 83.99C162.571 83.48 162.251 82.44 162.031 82.42C159.851 82.21 159.581 80.18 158.471 78.95C157.881 78.29 157.111 77.71 156.311 77.33C153.301 75.9 150.521 77.33 147.671 78.09C145.381 78.69 143.661 80.36 143.071 82.16C142.371 84.28 141.061 84.75 139.411 85.31C138.761 85.53 138.011 85.76 137.571 86.23C135.231 88.72 135.651 92.34 134.021 95.14C133.861 95.41 134.111 95.93 134.191 96.33C134.261 96.73 134.511 97.16 134.421 97.5C133.971 99.15 133.421 100.77 132.951 102.42C132.821 102.87 132.851 103.36 132.811 103.84C133.291 103.84 133.901 104.04 134.221 103.81C135.301 103.03 136.231 103.15 137.331 103.78C137.811 104.06 138.541 103.92 139.671 104.01L139.641 104.02ZM114.281 104.91C114.281 104.82 114.291 104.72 114.301 104.63C114.501 104.61 114.721 104.54 114.911 104.58C116.381 104.9 117.711 104.96 118.871 103.68C119.881 102.57 120.481 101.42 120.661 99.89C120.881 98.08 121.321 96.26 121.941 94.54C122.941 91.77 122.611 88.88 122.941 86.06C123.171 84.07 122.651 83.77 120.711 83.51C119.181 83.3 117.671 83.04 116.141 82.83C115.431 82.73 114.691 82.53 114.011 82.64C108.781 83.44 104.721 86.27 101.461 90.25C100.401 91.55 99.4806 93.02 99.6306 95C99.7506 96.5 99.2706 98.04 97.7206 98.95C97.0006 99.37 96.7606 100.12 97.4306 100.76C99.2406 102.5 100.771 104.79 103.901 104.11C104.671 103.94 105.531 104.21 106.351 104.27C108.991 104.48 111.641 104.7 114.281 104.91Z" fill="black"/>
<path d="M360.23 129.52C360.99 130.72 360.37 131.2 359.55 131.6C359.36 131.69 359.2 131.82 359 131.89C357.66 132.37 356.64 133.84 354.81 132.52C352.62 130.94 350.99 129.06 351.6 126.4C352.16 123.96 352.53 121.4 354.14 119.2C355.05 117.95 355.47 116.21 355.7 114.64C355.9 113.31 356.38 112.34 357.32 111.45C358.57 110.28 359.44 109.03 358.8 107.09C358.57 106.39 359.18 105.4 359.47 104.56C359.7 103.9 360.33 103.23 360.25 102.64C359.99 100.75 360.77 99.2903 361.66 97.7403C362.18 96.8303 362.37 95.6303 362.39 94.5503C362.44 92.0603 362.89 89.8803 364.16 87.5603C365.75 84.6503 366.3 81.1603 367.23 77.9103C367.36 77.4603 367.2 76.8903 367.05 76.4203C366.49 74.6603 366.57 73.1003 367.7 71.4803C368.71 70.0303 368.64 68.3203 367.39 66.9003C366.6 66.0003 366.21 65.0303 366.19 63.8303C366.16 61.1603 368.48 59.1603 371.07 59.7303C371.47 59.8203 371.83 60.0403 372.23 60.1703C373.697 60.6636 374.777 60.2169 375.47 58.8303C375.61 58.5503 375.71 58.2503 375.88 58.0003C376.68 56.8303 377.59 56.5503 378.71 57.5103C380.12 58.7103 381.26 58.8203 382.83 57.7103C384.25 56.7103 384.93 57.1703 385.95 58.7803C386.86 60.2303 387.46 61.4203 386.39 63.2203C385.81 64.1903 386.03 65.9303 386.45 67.1203C387.07 68.8903 386.87 70.3203 385.78 71.7403C385.37 72.2803 385.31 72.6703 385.88 73.3003C387.22 74.7603 386.82 76.2103 385.02 77.0003C382.93 77.9103 382.75 78.3103 383.24 80.4303C383.49 81.5203 383.61 82.6503 383.87 83.7403C384.34 85.7103 385.73 86.2103 387.28 84.9703C388.96 83.6403 390.55 82.2003 392.29 80.9503C393.19 80.3003 394.28 79.8703 395.34 79.5103C397.15 78.9003 398.62 77.8903 399.93 76.4803C402.44 73.7503 405.03 71.0803 408.68 69.8003C408.96 69.7003 409.33 69.5203 409.42 69.2903C410.31 67.0503 412.43 66.7303 414.33 66.0103C416.1 65.3403 418.28 65.1603 418.74 62.7203C419.98 62.2603 421.2 61.7303 422.46 61.3703C423.14 61.1803 423.98 61.0803 424.61 61.3103C427.49 62.3803 429.84 61.0303 432.18 59.7503C432.94 59.3303 433.55 58.9403 434.46 59.2803C434.9 59.4503 435.67 59.5703 435.91 59.3403C437.4 57.8803 438.67 58.9903 440.11 59.4303C443.99 60.6303 446.52 63.6203 449.4 66.1503C449.82 66.5203 450.11 67.1503 450.26 67.7103C450.93 70.2503 451.73 72.7903 451.18 75.4903C451.12 75.7803 451.12 76.1603 451.26 76.4003C452.5 78.4103 451.48 79.5203 449.86 80.7103C447.17 82.6703 444.8 85.0603 442.11 87.0403C441.07 87.8003 440.12 88.1403 438.98 87.7303C437.23 87.1003 435.48 87.3303 433.81 87.8203C432.75 88.1303 432.17 88.0403 431.46 87.1403C430.25 85.6103 428.85 84.2403 427.51 82.8103C425.72 80.9003 425.62 79.9903 426.77 77.6103C427.16 76.7903 427.32 75.8603 427.6 74.9903C427.81 74.3203 427.85 73.4003 428.31 73.0403C430.21 71.5403 432.25 70.2103 434.24 68.8203C435.18 68.1603 435.96 68.5403 436.76 69.1703C437.32 69.6103 437.98 69.9403 438.63 70.2403C438.85 70.3403 439.29 70.3403 439.43 70.1903C439.6 70.0203 439.7 69.5203 439.58 69.3703C438.73 68.3503 437.78 67.4203 436.92 66.4103C435.88 65.2003 434.74 65.2203 433.3 65.6903C432.36 66.0003 431.2 66.0303 430.24 65.7803C428.95 65.4403 427.97 65.7403 427.13 66.5803C426.14 67.5803 424.99 67.9003 423.63 68.2103C420.76 68.8703 417.78 69.5103 415.6 71.8303C415.12 72.3403 414.48 72.7603 413.84 73.0603C412.43 73.7203 411.65 74.8603 411 76.1903C410.46 77.2903 409.84 78.3703 409.12 79.3603C408.4 80.3503 407.62 81.3803 406.05 80.6603C405.71 80.5003 405.1 80.8503 404.65 81.0503C403.62 81.5003 402.58 81.9403 401.61 82.4903C400.64 83.0303 399.46 83.5103 398.89 84.3703C397.97 85.7503 396.94 86.7103 395.34 87.1203C394.85 87.2403 394.32 87.4803 393.98 87.8303C392.12 89.7303 390.32 91.6803 388.49 93.6103C387.86 94.2803 387.3 95.0403 386.58 95.5903C385.48 96.4203 385.13 97.5303 385 98.8003C384.9 99.8203 385.13 100.63 386.17 101.06C388.2 101.89 389.3 103.62 389.45 105.59C389.66 108.22 391.51 109.74 393.33 110.19C395.97 110.84 397.26 112.98 399.36 114.11C401.27 115.14 403.25 116.06 405.14 117.13C406.36 117.82 407.68 118.52 408.59 119.54C409.22 120.24 409.56 120.82 410.52 120.35C412.15 119.56 413.03 120.54 413.79 121.74C414.12 122.26 414.41 122.82 414.66 123.38C415.15 124.48 415.83 125.18 417.13 125.43C419.92 125.97 421.42 128.47 423.61 129.95C426 131.57 427.99 133.64 429.94 135.75C430.93 136.81 431.84 137.44 433.44 136.68C434.4 136.22 435.66 136.42 436.79 136.29C437.81 136.18 438.84 136.11 439.83 135.88C442.23 135.31 443.65 136.14 444.25 138.58C444.52 139.67 444.65 140.82 445.09 141.83C445.95 143.8 445.09 145.19 443.79 146.49C443.35 146.93 442.84 147.29 442.43 147.75C441.53 148.76 440.72 148.93 439.27 148.51C436.64 147.74 433.93 147.2 431.5 145.89C429.43 144.77 427 144.21 425.84 141.65C425.34 140.56 424.02 139.93 422.39 140.31C419.82 140.92 419.12 140.17 418.56 137.23C418.45 136.62 417.86 135.75 417.36 135.64C415.89 135.33 415.14 134.34 414.28 133.31C413.39 132.25 412.3 131.82 410.72 132.14C407.71 132.76 405.18 131.17 402.82 129.58C402.33 129.25 402.22 128.09 402.24 127.32C402.31 125.53 401.36 124.78 399.82 124.24C397.11 123.29 394.43 122.24 391.8 121.08C391.13 120.78 390.44 120.03 390.19 119.34C389.54 117.52 388.24 117.18 386.54 117.16C385.66 117.15 384.79 116.75 383.91 116.59C383.46 116.51 382.81 116.38 382.53 116.61C381.01 117.87 379.6 116.81 378.17 116.51C377.69 116.41 377.25 115.87 376.8 115.88C374.06 115.97 371.46 115.53 368.96 114.39C368.6 114.23 367.87 114.42 367.54 114.71C366.62 115.52 365.53 116.34 365.03 117.4C364.35 118.82 363.74 120.12 362.35 121.04C361.89 121.34 361.69 122.3 361.7 122.96C361.72 124.75 361.5 126.42 360.52 127.99C360.23 128.46 360.26 129.13 360.17 129.55L360.23 129.52ZM381.56 86.9403C380.99 86.5603 380.61 86.3003 380.23 86.0503C380.01 86.4503 379.61 86.8603 379.64 87.2303C379.67 87.5603 380.19 87.8503 380.5 88.1503C380.81 87.8003 381.11 87.4503 381.56 86.9403ZM435.65 80.6503C436.02 80.2203 436.38 79.9403 436.34 79.8303C436.14 79.3203 435.85 78.8403 435.51 78.4103C435.45 78.3403 435.02 78.5603 434.76 78.6403C435.02 79.2403 435.29 79.8303 435.65 80.6503Z" fill="black"/>
<path d="M454.279 61.0701C454.329 60.2501 454.189 59.3701 454.459 58.6401C454.979 57.2701 454.739 56.0801 454.309 54.7501C453.489 52.2301 453.789 51.6201 456.249 50.5101C458.079 49.6801 459.219 48.2401 459.989 46.5501C460.999 44.3401 462.719 43.9701 464.799 44.2701C466.729 44.5401 468.639 45.0001 470.569 45.1501C471.849 45.2501 472.519 45.6401 472.459 46.9601C472.409 48.0101 472.759 48.7501 473.909 48.9701C474.179 49.0201 474.579 49.3001 474.609 49.5201C475.099 52.3801 476.799 51.7201 478.699 51.1001C480.029 50.6601 481.349 51.1901 482.519 51.9401C483.119 52.3301 483.669 53.0501 484.289 53.1201C487.939 53.5301 491.599 53.8201 495.259 54.1001C496.279 54.1801 496.999 53.6801 497.509 52.7701C498.029 51.8501 499.029 51.8301 499.639 52.4101C501.899 54.5501 504.739 53.6101 507.299 53.9301C508.849 54.1301 510.489 53.5601 512.099 53.4401C515.969 53.1601 519.849 52.7601 523.619 54.2601C524.449 54.5901 525.439 54.7901 526.319 54.6901C527.959 54.5001 529.489 54.3201 531.109 55.0601C531.749 55.3501 532.969 54.9001 533.669 54.4201C536.089 52.7401 539.039 53.2001 541.629 52.3101C541.989 52.1901 542.569 52.1801 542.839 52.3901C545.579 54.5401 547.599 52.2701 549.679 51.1801C550.759 50.6101 551.559 50.0701 552.749 50.7201C553.169 50.9501 553.819 51.1301 554.219 50.9701C555.469 50.4501 556.239 51.0401 556.839 51.9401C557.369 52.7501 558.049 53.0001 558.939 52.8501C560.529 52.5901 561.699 53.0201 562.549 54.5201C563.039 55.3701 564.079 55.9001 564.659 56.7201C565.479 57.8801 566.309 59.1301 565.769 60.7101C565.739 60.8101 565.659 60.9201 565.689 61.0001C566.309 63.1501 566.909 65.2201 564.189 66.5701C563.829 66.7501 564.049 68.1101 563.999 68.9301C563.869 70.9501 562.949 71.6701 560.959 71.2901C559.679 71.0501 558.579 70.3001 557.089 70.5901C556.459 70.7101 555.469 69.5001 554.799 68.7501C553.259 67.0501 553.199 66.9101 551.689 68.2701C550.459 69.3801 549.479 69.4601 548.159 68.4701C546.949 67.5601 545.659 66.5201 543.929 67.3701C543.849 67.4101 543.679 67.4201 543.639 67.3701C541.939 65.3001 539.869 66.6501 537.949 66.7601C536.389 66.8401 535.119 66.3101 534.019 65.2701C533.039 64.3501 531.999 64.1201 531.079 65.2501C530.009 66.5701 528.829 66.4701 527.519 65.7601C526.889 65.4201 526.199 65.1501 525.619 64.7301C524.749 64.0901 524.199 64.2701 523.559 65.0901C521.529 67.6801 518.279 68.1501 515.529 66.1301C514.119 65.0901 512.709 64.5001 510.959 64.6301C510.069 64.6901 509.659 65.1601 509.039 65.8001C507.439 67.4601 506.659 69.5201 505.799 71.5001C504.949 73.4501 504.779 75.6801 503.929 77.6301C503.369 78.9201 502.139 79.9201 501.249 81.0701C500.949 81.4501 500.529 81.9201 500.539 82.3401C500.639 86.3401 497.819 89.1101 496.389 92.4601C495.749 93.9501 495.109 95.5301 494.979 97.1101C494.849 98.7401 494.459 100.13 493.399 101.33C492.159 102.74 491.809 104.38 491.979 106.22C492.339 110.16 491.349 113.96 490.489 117.74C490.279 118.67 490.279 119.27 490.989 119.92C493.849 122.52 493.559 125.64 492.409 128.89C492.139 129.65 491.819 130.44 491.809 131.22C491.799 132.5 491.349 133.5 490.769 134.65C489.729 136.71 489.199 139.02 488.439 141.22C487.929 142.68 487.369 144.09 486.179 145.2C485.539 145.8 485.129 145.95 484.359 145.4C483.019 144.46 481.579 144.24 479.979 144.98C479.019 145.42 478.289 145.15 478.019 143.84C477.419 140.93 476.559 138.08 475.929 135.17C475.679 134.03 475.949 132.82 477.209 132.34C478.749 131.75 478.739 130.72 478.509 129.35C478.329 128.27 478.329 127.07 478.639 126.03C479.079 124.56 479.699 123.23 479.219 121.58C479.059 121.02 479.729 120.07 480.239 119.5C481.019 118.64 481.249 117.88 480.889 116.72C480.639 115.9 480.899 114.92 480.959 114.01C480.989 113.6 481.259 113.13 481.129 112.81C480.229 110.67 480.219 108.86 482.489 107.49C482.779 107.32 482.829 106.25 482.599 105.81C482.009 104.68 482.529 103.84 482.989 102.92C483.359 102.2 483.589 101.4 483.989 100.7C485.809 97.5901 486.269 93.9501 487.799 90.7801C489.009 88.2801 488.779 85.8801 488.899 83.3001C489.079 79.4801 488.489 75.4501 490.579 71.8801C490.879 71.3701 491.129 70.8001 491.559 70.4301C493.109 69.1101 493.539 67.7901 492.889 65.9501C492.629 65.2101 492.409 64.4501 492.069 63.7501C491.919 63.4401 491.579 63.1401 491.249 63.0301C489.319 62.3801 487.379 61.7401 485.409 61.2101C484.909 61.0801 484.089 61.1301 483.789 61.4401C482.259 63.0901 480.489 62.9001 478.649 62.3101C477.379 61.9101 476.119 61.4601 474.919 60.8901C474.019 60.4701 473.419 60.4501 472.829 61.3501C472.379 62.0301 471.809 62.6401 471.219 63.2301C469.689 64.7701 468.029 65.0501 466.299 63.6701C465.089 62.7101 464.299 62.9101 463.399 63.8301C462.619 64.6301 461.809 65.4001 461.149 66.2901C459.499 68.5301 457.619 68.4801 456.019 66.2001C454.919 64.6301 454.129 63.0301 454.209 61.0601L454.279 61.0701Z" fill="black"/>
<path d="M663.16 113.23C662.9 113.31 662.02 113.55 661.15 113.83C660.29 114.11 659.43 114.37 658.59 114.71C656.37 115.61 654.34 117.02 651.81 117.1C651.42 117.11 650.94 117.69 650.7 118.11C648.6 121.74 646.58 125.43 644.46 129.05C642.48 132.41 640.4 135.72 638.37 139.05C638.32 139.14 638.23 139.21 638.19 139.3C636.34 143.31 633.58 146.73 631.05 150.3C630.71 150.79 630.62 151.45 630.34 151.99C630.06 152.52 629.81 153.24 629.35 153.48C626.33 155.06 624.5 157.83 622.28 160.22C622 160.52 621.76 160.95 621.41 161.09C619.28 161.98 617.24 162.94 615.88 164.97C615.65 165.32 614.72 165.33 614.13 165.3C612.08 165.22 610.29 165.78 608.68 167.07C606.97 168.44 605.03 168.85 602.88 168.2C601.23 167.7 599.56 166.87 597.91 166.89C595.83 166.92 593.52 166.8 591.73 168.25C589.18 170.32 586.51 170.42 583.63 169.1C582.61 168.63 581.46 168.4 580.52 167.81C579.53 167.18 578.61 167.16 577.58 167.44C576.99 167.6 576.39 167.95 575.83 167.9C574.15 167.73 572.21 168.23 571.27 165.97C570.97 165.25 569.83 164.87 569.08 164.34C567.98 163.57 567.34 162.55 567.63 161.18C567.91 159.82 568.86 159.09 570.18 158.8C571.08 158.6 572 158.44 572.89 158.18C573.77 157.91 574.78 157.72 575.45 157.16C576.48 156.3 577.1 156.72 578.14 157.18C581.09 158.47 583.71 160.81 587.3 160.34C587.98 160.25 588.85 160.38 589.4 160.75C592.18 162.61 594.92 161.32 597.7 160.86C599.18 160.62 600.73 160.79 602.24 160.7C603.56 160.62 604.89 160.53 606.18 160.27C607.27 160.06 608.32 159.61 609.39 159.26C609.68 159.17 610.03 159.14 610.26 158.96C611.99 157.56 613.76 156.19 615.4 154.69C616.83 153.38 618.16 152.07 619.9 151.03C623.51 148.89 625.89 145.53 627.71 141.72C628.71 139.62 630.01 137.6 631.48 135.79C633.91 132.8 635.71 129.51 637.04 125.93C637.61 124.4 638.2 122.87 638.74 121.33C638.97 120.67 639.23 119.97 639.24 119.28C639.27 117.66 639.62 116.31 640.98 115.2C641.94 114.42 641.47 113.31 640.18 112.97C638.7 112.59 637.21 112.24 635.72 111.9C633.23 111.32 632.44 109.08 631.7 107.19C631.36 106.32 632.49 104.77 633.15 103.65C633.65 102.81 634.49 102.16 635.15 101.41C636.49 99.9001 637.84 99.7701 638.94 101.43C639.82 102.77 640.6 102.87 641.99 102.37C643.9 101.68 645.99 101.46 647.87 100.71C649.59 100.02 650.62 98.4101 650.72 96.5901C650.79 95.2601 651.32 94.2501 651.91 93.1701C652.54 92.0001 653.09 90.7901 653.59 89.5601C655.16 85.6901 656.75 81.8301 658.18 77.9101C658.76 76.3101 659.54 74.6401 658.73 72.8401C658.25 71.7701 659 71.1101 659.6 70.4101C660.72 69.1101 661.72 67.9101 662.23 66.0501C662.64 64.5701 663.95 62.9701 665.1 61.6501C665.58 61.1001 666.81 61.1301 667.71 61.0401C668.79 60.9201 670.31 60.4901 670.89 61.0201C671.95 61.9701 672.48 63.5201 673.19 64.8401C673.57 65.5401 673.76 66.3501 674.2 67.0001C675.52 68.9801 676.27 70.9801 674.97 73.2701C674.27 74.5001 674.1 75.7201 674.79 77.0701C675.2 77.8801 675.38 78.8301 675.52 79.7401C675.65 80.5401 675.87 81.5101 675.55 82.1801C673.95 85.5301 674.15 89.0801 674.17 92.6201C674.17 93.4401 674.19 94.3201 674.49 95.0501C674.96 96.1701 674.82 97.1801 674.69 98.3301C674.47 100.25 674.64 102.23 674.72 104.17C674.73 104.51 675.09 105.12 675.3 105.12C677.18 105.13 678.51 106.76 680.57 106.56C683.14 106.31 684.29 107.34 685.09 109.83C685.52 111.19 686.04 112.65 685.93 114.01C685.84 115.11 685.08 116.44 684.19 117.11C683.22 117.84 681.72 117.83 680.53 118.34C679.08 118.96 678.16 118.58 677.47 117.26C677.33 116.99 677.08 116.78 676.86 116.57C676.22 115.95 675.49 115.56 674.66 116.17C673.93 116.71 674.11 117.41 674.47 118.11C675.04 119.2 675.64 120.28 676.13 121.4C676.62 122.52 677.15 123.67 677.36 124.85C677.89 127.84 679.1 130.43 680.87 132.93C682.59 135.37 683.9 138.1 682.04 141.23C681.7 141.79 682.06 142.78 682.13 143.57C682.27 145.2 682.54 146.84 682.54 148.47C682.54 149.95 681.78 150.42 680.28 150.08C678.94 149.78 677.63 149.46 677.7 147.61C677.76 146.18 676.67 145.41 675.69 144.67C673.92 143.35 673.02 141.82 674.08 139.63C674.12 139.54 674.17 139.42 674.14 139.33C673.23 136.51 673.94 133.41 672.59 130.65C671.97 129.38 671.57 128 671.08 126.67C671.04 126.57 671.06 126.44 671 126.38C668.65 123.73 669.32 120.4 668.95 117.31C668.63 114.62 666.55 112.98 663.18 113.23H663.16ZM665.45 88.5401C665.18 88.2601 664.77 87.4301 664.18 87.2901C663.13 87.0301 662.45 87.7201 662.33 88.8301C662.32 88.9301 662.33 89.0401 662.3 89.1401C661.75 91.7401 661.2 94.3301 660.65 96.9301C660.39 98.1401 661.44 100.63 661.68 101.69C662.16 103.78 663.95 103.88 665.29 104.65C666.13 105.13 666.76 104.67 666.56 103.73C666.19 102.03 665.69 100.35 665.13 98.7101C664.63 97.2301 664.27 95.8501 664.72 94.2201C665.18 92.5701 665.18 90.7901 665.44 88.5601L665.45 88.5401Z" fill="black"/>
<path d="M14.4697 123.42C14.4997 122.68 14.3897 122.28 14.5397 122.08C16.4697 119.44 16.9297 115.62 20.2297 114.13C22.5097 113.1 25.0597 111.27 27.5897 113.88C27.6597 113.95 27.7597 114.03 27.8497 114.04C31.2997 114.26 31.8197 117.14 32.8597 119.53C33.2497 120.43 32.9697 121.72 34.2197 122.12C35.5897 122.56 36.5897 121.69 37.5797 120.95C38.2997 120.41 38.7597 119.64 39.9497 119.83C41.7697 120.13 42.6597 118.12 44.2697 117.79C45.8697 117.46 47.4897 117.24 49.0797 116.89C49.4297 116.81 49.7097 116.37 49.9797 116.06C50.6797 115.25 51.5497 114.93 52.5897 114.61C55.6897 113.68 58.3997 112.02 59.7597 108.92C60.2097 107.9 60.5697 107.12 61.7197 106.81C62.1697 106.69 62.5697 106.25 62.9097 105.87C63.5597 105.16 63.4997 104.65 62.4497 104.35C61.1297 103.96 59.9697 103.83 58.5797 104.45C56.5397 105.37 54.3397 106 52.1497 106.53C51.3597 106.72 50.3197 106.45 49.5697 106.05C48.5897 105.53 48.0597 105.73 47.5397 106.58C47.1097 107.28 46.6497 107.96 46.1497 108.61C45.1697 109.88 43.8997 110.34 42.3097 109.95C41.5197 109.76 40.6897 109.72 39.8997 109.53C39.4297 109.41 38.8697 109.24 38.5697 108.9C37.5097 107.67 36.5297 106.37 35.5397 105.08C35.3497 104.84 35.0597 104.49 35.1197 104.28C36.0097 101.52 34.2297 98.2603 36.8397 95.8003C37.8797 94.8203 38.5797 93.5103 39.5697 92.4703C41.9897 89.9203 43.9497 89.7303 46.7897 91.9303C47.6197 92.5703 48.0897 92.2703 48.6797 91.9103C49.8197 91.2203 50.9197 90.8803 52.0997 91.8303C53.1897 92.7003 54.1797 91.9803 54.8197 91.2603C55.2697 90.7603 55.3997 89.7603 55.2997 89.0403C55.1697 88.1503 54.6997 87.3003 54.2897 86.4703C53.3697 84.6203 51.4497 83.5603 49.4297 83.9503C48.0297 84.2303 46.5297 84.5703 45.3497 85.3103C42.9697 86.8203 40.5897 86.5303 38.3297 85.4903C36.8597 84.8103 35.7497 84.9903 34.5897 85.7703C33.2297 86.6803 31.8897 86.9903 30.2297 86.5503C28.7197 86.1503 27.5097 86.8103 26.1097 87.8403C24.0097 89.3803 21.4797 90.3103 20.3097 92.9103C18.6497 93.4303 16.9897 94.4003 15.3397 94.3603C13.3497 94.3103 11.3197 93.5503 9.40971 92.8503C7.91971 92.3103 6.82971 91.3103 6.87971 89.3803C6.89971 88.4403 6.21971 87.4803 5.84971 86.5403C5.54971 85.7803 4.97971 85.0203 4.98971 84.2703C4.99971 82.2303 4.84971 80.0403 5.53971 78.1903C6.17971 76.4803 7.70971 75.0203 9.05971 73.6603C9.89971 72.8103 11.2297 72.4503 12.1697 71.6703C13.7797 70.3203 15.3497 71.8903 16.9597 71.6003C17.4297 71.5103 18.2397 72.4503 18.6697 73.0703C19.2497 73.9103 19.7097 74.3603 20.9097 74.1203C22.0597 73.8903 23.3897 74.0203 24.5297 74.3503C26.3797 74.8903 28.0297 74.5203 29.5597 73.6403C30.8497 72.9003 32.0397 72.8003 33.3897 73.3103C33.9597 73.5303 34.8197 73.9203 35.1597 73.6803C37.5697 71.9703 40.3497 73.4103 42.9097 72.6003C44.9897 71.9503 47.4497 71.5303 49.0897 73.9303C49.2497 74.1603 49.6197 74.4303 49.8597 74.4003C51.8697 74.1503 53.5697 75.3903 55.4397 75.5303C57.3297 75.6803 58.9797 76.7003 61.0697 76.4203C62.4597 76.2303 64.1397 77.3803 65.0097 79.0003C65.5297 79.9703 66.2597 80.8403 66.9997 81.6803C69.0197 83.9903 71.1097 86.2503 73.1297 88.5603C73.5197 89.0103 73.8497 89.6203 73.9497 90.2003C74.1497 91.3803 74.5397 92.2703 75.6897 92.9203C76.2297 93.2303 76.6297 94.2503 76.6397 94.9503C76.6597 96.4803 76.3997 98.0203 76.2397 99.5503C76.2097 99.8503 76.1197 100.17 75.9697 100.43C75.0997 101.91 74.0597 103.31 73.3597 104.87C72.6497 106.44 72.2997 107.97 70.6397 109.14C69.1497 110.19 68.1597 112.11 67.2397 113.8C65.7697 116.51 64.7197 119.45 61.0297 119.99C60.0797 120.13 59.1597 120.83 58.3397 121.42C53.9297 124.6 48.9497 126.73 44.1297 129.14C43.4097 129.5 42.5997 129.73 41.7997 129.87C39.5797 130.25 37.3397 130.54 35.1097 130.89C34.7097 130.95 34.2997 131.1 33.9597 131.31C31.6897 132.68 29.4297 134.08 27.1697 135.48C26.9097 135.64 26.5897 136 26.3997 135.94C24.1997 135.3 21.5897 136.57 19.6797 134.5C19.1297 133.9 18.4797 133.34 17.7797 132.92C16.9597 132.43 16.6297 131.76 16.6897 130.87C16.8097 129.04 16.1897 127.47 15.2797 125.9C14.7797 125.04 14.6697 123.97 14.4897 123.38L14.4697 123.42ZM63.6397 91.5503C63.3797 91.3503 63.1397 91.0303 62.9697 91.0603C62.7697 91.1003 62.4397 91.5303 62.4897 91.6303C62.6297 91.9203 62.9397 92.1303 63.1797 92.3703C63.3197 92.1203 63.4497 91.8803 63.6297 91.5503H63.6397Z" fill="black"/>
<path d="M885.591 131.33C885.501 128.28 885.211 125.22 885.381 122.18C885.501 120.07 886.021 117.92 886.791 115.95C887.171 115 887.301 114.37 887.021 113.42C886.501 111.72 886.331 110.04 887.751 108.51C888.241 107.98 888.361 107.02 888.431 106.24C888.671 103.37 889.651 100.88 891.631 98.7301C892.451 97.8401 892.961 96.68 893.591 95.63C894.491 94.14 895.531 92.7201 896.241 91.1501C897.611 88.1101 899.481 85.5601 902.071 83.4101C903.681 82.0701 904.801 80.17 906.221 78.59C906.481 78.3 907.091 78.2801 907.551 78.2201C909.071 78.0201 910.591 77.7401 912.111 77.7201C914.771 77.7001 917.461 77.65 920.081 78.02C921.131 78.17 922.041 79.3601 922.991 80.1101C924.101 80.9901 925.071 80.9801 925.811 79.6901C926.361 78.7501 926.921 79 927.531 79.57C927.911 79.92 928.311 80.2501 928.681 80.6101C929.441 81.3701 930.131 81.9201 931.371 81.2901C932.461 80.7401 933.091 81.29 933.581 82.56C934.561 85.1 935.871 87.5201 937.131 89.9401C937.331 90.3301 937.971 90.47 938.351 90.78C938.721 91.08 939.281 91.4401 939.301 91.8001C939.391 93.2201 940.451 94.23 940.791 95.43C941.561 98.1201 943.411 100.6 942.681 103.66C942.521 104.31 942.661 105.08 942.851 105.75C943.311 107.4 943.201 108.94 942.581 110.57C942.211 111.55 942.141 112.8 942.381 113.82C942.711 115.22 942.781 116.37 941.891 117.6C941.371 118.33 941.321 119.4 940.811 120.13C940.051 121.22 939.981 122 940.891 123.1C941.831 124.25 941.221 125.59 940.261 126.41C939.271 127.25 939.171 128.2 938.931 129.34C938.471 131.48 937.991 133.65 936.461 135.44C935.491 136.57 934.581 137.93 934.191 139.34C933.551 141.71 932.051 143.46 930.731 145.39C929.521 147.18 928.111 148.49 925.941 148.95C925.161 149.11 924.221 149.41 923.761 149.97C923.001 150.89 922.811 152.36 921.941 153.09C921.171 153.74 919.881 153.61 919.331 154.9C918.601 156.6 917.091 156.84 915.411 156.43C914.611 156.23 913.801 156 912.991 155.99C912.351 155.98 911.491 156.06 911.111 156.46C910.141 157.48 909.361 157.75 908.291 156.63C907.021 155.31 905.261 155.62 903.891 156.03C900.871 156.94 898.631 155.26 896.161 154.27C895.511 154.01 894.901 153.28 894.311 153.32C891.701 153.49 891.171 151.55 890.851 149.8C890.551 148.13 890.211 146.6 889.071 145.3C888.811 145 888.601 144.59 888.541 144.2C887.921 139.84 885.361 135.9 885.581 131.33H885.591ZM904.701 148.76C906.651 148.29 908.881 149.01 909.541 146.21C909.591 145.99 910.241 145.91 910.621 145.78C913.671 144.74 916.721 143.75 919.021 141.26C921.851 138.2 925.361 135.7 926.681 131.46C926.791 131.09 927.131 130.78 927.411 130.49C928.791 129.05 930.931 125.65 931.361 124.08C932.341 120.52 933.331 116.96 934.261 113.38C934.981 110.61 935.031 107.72 934.731 104.94C934.411 101.97 934.081 98.7801 931.091 96.9001C930.951 96.8101 930.951 96.52 930.871 96.34C930.401 95.29 929.751 95.19 929.021 96.06C928.291 96.93 927.761 96.51 927.351 95.81C926.991 95.2 926.821 94.4701 926.441 93.8701C926.291 93.6301 925.661 93.41 925.481 93.53C924.511 94.16 923.541 94.83 922.711 95.63C921.691 96.61 921.311 96.77 920.371 95.52C919.731 94.67 919.321 94.68 918.691 95.2901C917.751 96.2101 917.001 97.65 915.901 98C913.831 98.64 912.311 99.9 910.771 101.24C910.211 101.73 909.681 101.83 909.261 101.1C908.621 99.99 907.821 100.04 906.641 100.31C905.481 100.57 904.421 100.28 903.941 101.93C903.631 102.97 902.091 103.63 901.711 104.68C901.021 106.58 900.671 108.62 900.391 110.64C900.201 112.04 899.631 112.93 898.301 113.36C897.831 113.51 897.151 113.66 896.991 114C896.301 115.47 895.721 116.99 895.181 118.52C894.711 119.86 894.291 121.22 893.961 122.61C893.761 123.45 893.521 124.44 893.771 125.2C894.191 126.45 894.201 127.55 893.821 128.8C893.601 129.53 893.771 130.41 893.881 131.21C894.051 132.52 894.461 133.82 894.511 135.13C894.581 137.31 895.331 139.18 896.811 140.7C898.381 142.32 898.991 143.92 897.451 145.87C896.951 146.5 897.091 147.09 897.861 147.28C900.131 147.83 902.421 148.29 904.701 148.79V148.76Z" fill="black"/>
<path d="M739.611 75.7299C739.321 78.0699 738.941 80.2199 738.321 82.4299C737.471 85.4299 736.191 88.3399 736.171 91.6199C736.151 94.1899 734.791 96.4599 732.621 98.0899C732.071 98.4999 731.691 99.1299 731.141 99.5499C730.611 99.9599 729.921 100.58 729.411 100.49C727.671 100.18 726.741 101.13 725.771 102.26C725.341 102.76 724.731 103.32 724.141 103.41C722.121 103.7 720.071 103.96 718.041 103.89C716.801 103.85 716.091 104.09 715.601 105.2C715.361 105.76 714.991 106.26 714.631 106.76C713.921 107.73 711.751 107.16 711.911 108.78C712.071 110.34 710.481 110.39 710.231 111.51C709.961 112.71 709.441 113.85 708.991 115C708.581 116.04 708.111 117.07 707.661 118.1C707.501 118.48 707.231 118.83 707.161 119.23C706.741 121.53 706.261 123.82 706.001 126.13C705.731 128.56 705.591 131.02 705.551 133.47C705.521 135.85 705.721 138.24 705.751 140.63C705.761 141.53 705.851 142.6 705.421 143.29C704.541 144.67 704.811 145.78 705.531 147.03C705.761 147.42 705.741 147.95 705.841 148.42C704.201 148.65 703.861 149.68 704.101 151.14C704.131 151.31 703.681 151.74 703.481 151.73C701.431 151.58 700.921 153.26 699.891 154.45C698.911 155.58 697.581 156.43 696.381 157.36C696.181 157.51 695.791 157.56 695.551 157.47C694.121 156.94 693.001 154.48 693.721 153.08C694.231 152.1 694.671 151.3 694.061 150.23C693.571 149.35 694.031 148.63 694.671 148.04C695.491 147.27 695.301 146.67 694.511 146.01C693.501 145.16 694.011 144.67 694.981 144.27C695.311 144.13 695.831 143.61 695.811 143.57C694.471 141.55 697.631 139.8 696.171 137.75C696.051 137.58 696.651 136.77 697.051 136.4C697.871 135.64 698.271 135.02 697.761 133.75C696.841 131.44 697.561 129.06 698.251 126.81C699.061 124.17 700.131 121.6 701.051 118.99C701.221 118.52 701.301 117.97 701.241 117.48C700.971 115.04 700.901 112.53 700.231 110.2C699.721 108.42 698.391 106.88 697.491 105.19C696.361 103.06 696.661 99.2999 698.101 97.9799C698.591 97.5299 699.421 96.9799 699.911 97.1199C701.391 97.5499 702.091 96.1699 703.251 95.9299C703.601 95.8599 703.881 94.9699 704.011 94.4099C704.471 92.4099 704.861 90.3899 705.271 88.3799C705.371 87.8799 705.731 87.2499 705.551 86.8999C704.331 84.5699 705.571 82.2999 706.221 80.3699C706.881 78.3799 706.771 76.3599 707.391 74.4599C707.731 73.4199 707.551 72.7099 706.671 72.0499C706.231 71.7099 705.871 71.1599 705.661 70.6299C704.911 68.6699 703.491 67.6999 701.741 68.6399C699.521 69.8299 697.171 70.3499 694.811 71.0299C693.661 71.3599 692.641 72.1499 691.561 72.7199C690.861 73.0899 690.151 73.7299 689.441 73.7399C688.231 73.7599 687.011 73.4199 685.811 73.1499C685.601 73.0999 685.401 72.6899 685.341 72.4199C684.881 70.0199 684.921 67.6899 686.721 65.7799C687.181 65.2899 687.881 64.7699 688.501 64.7399C690.191 64.6299 691.381 63.8099 692.541 62.7099C693.521 61.7799 694.601 61.1199 696.161 61.4999C696.761 61.6499 697.631 61.0199 698.291 60.5999C699.331 59.9499 700.241 59.6499 701.411 60.4599C702.101 60.9399 703.221 61.3699 703.911 61.1299C705.331 60.6399 706.861 60.0299 707.571 58.4799C707.831 57.9299 708.181 57.3399 708.191 56.7699C708.231 54.6799 710.091 54.4199 711.331 53.5599C711.551 53.4099 712.181 53.5299 712.381 53.7399C713.131 54.5299 713.871 54.4199 714.541 53.7599C715.501 52.8099 716.201 53.3099 716.881 54.0499C717.501 54.7299 717.991 55.5399 718.661 56.1599C719.251 56.7099 719.981 57.1499 720.721 57.4899C721.701 57.9399 722.581 58.3699 722.661 59.6299C722.741 60.9099 723.591 61.3299 724.771 61.3999C726.101 61.4799 727.431 61.7399 728.771 61.7399C730.981 61.7399 732.331 62.7899 733.431 64.6699C734.931 67.2299 736.851 69.5399 738.391 72.0699C739.051 73.1499 739.221 74.5199 739.621 75.7599L739.611 75.7299ZM728.361 78.3299C728.521 75.5999 727.301 73.7799 724.831 72.7299C724.281 72.4999 723.671 72.3099 723.241 71.9299C721.731 70.5999 721.721 70.5299 720.501 71.7899C719.431 72.8999 718.501 74.1299 716.691 74.0899C716.401 74.0899 715.971 74.9299 715.801 75.4399C714.541 79.1799 713.261 82.9199 712.141 86.6999C711.601 88.5399 710.441 90.2499 710.831 92.3199C711.111 93.8199 711.381 95.3199 711.591 96.8299C711.851 98.5999 712.601 99.2299 714.311 98.6699C715.551 98.2599 716.621 97.3799 717.841 96.8899C720.021 95.9999 721.111 94.5899 720.851 92.1299C720.781 91.4599 721.241 90.2899 721.761 90.0799C723.971 89.1799 725.011 87.2399 726.151 85.4799C727.541 83.3399 728.251 80.8799 728.351 78.3199L728.361 78.3299Z" fill="black"/>
<path d="M582.809 134.99C582.289 135.01 581.769 135 581.259 135.05C578.939 135.29 577.769 134.4 577.599 132.19C577.559 131.68 577.539 131.13 577.689 130.66C578.459 128.34 579.379 126.07 580.059 123.73C580.479 122.27 580.449 120.69 580.809 119.21C581.749 115.34 582.769 111.49 583.789 107.64C584.239 105.97 584.759 104.45 584.359 102.55C584.009 100.88 584.769 98.9803 585.059 97.1803C585.089 97.0003 585.229 96.7403 585.379 96.6803C590.279 94.7303 589.279 89.3203 591.699 85.9203C591.939 85.5803 591.969 84.7003 591.719 84.4703C589.939 82.7903 591.699 82.7303 592.629 82.0803C593.319 81.6003 593.969 80.7903 594.199 80.0003C594.729 78.2403 594.849 76.3503 595.409 74.6003C595.959 72.8703 596.869 71.2403 597.599 69.5703C598.169 68.2703 598.869 67.0003 599.219 65.6403C599.699 63.7603 599.859 61.8103 600.249 59.9003C600.609 58.1403 601.919 56.8503 603.229 56.7903C604.649 56.7303 605.949 57.6703 606.629 59.3103C607.059 60.3503 607.369 61.4503 607.849 62.4603C608.369 63.5803 607.949 64.5703 607.839 65.6803C607.519 68.8403 606.629 71.5703 604.469 74.0203C603.709 74.8803 603.319 76.7003 603.669 77.8003C604.359 79.9303 603.579 81.6003 602.439 82.9403C600.579 85.1303 600.169 87.7203 599.559 90.3103C599.279 91.4903 598.859 92.6303 598.509 93.8003C598.299 94.4703 597.959 95.1403 597.919 95.8203C597.839 97.2903 598.349 98.0803 599.779 98.1603C602.099 98.2803 604.519 98.8803 606.669 97.3203C607.049 97.0403 607.649 96.8703 608.119 96.9203C611.249 97.3103 614.179 96.5803 617.119 95.6303C618.019 95.3403 619.109 95.5403 620.089 95.6303C621.619 95.7703 622.789 95.3003 622.599 94.1403C622.119 91.2203 624.109 89.3603 625.199 87.1203C626.499 84.4403 627.729 81.7903 628.519 78.8803C629.199 76.3703 630.599 74.0603 631.609 71.6303C632.229 70.1203 632.779 68.5703 633.249 67.0103C634.119 64.1403 635.999 62.3003 638.779 61.2903C639.899 60.8803 640.569 61.2503 640.679 62.4703C640.739 63.1703 640.539 63.8903 640.509 64.6003C640.459 65.6203 640.419 66.6403 640.449 67.6603C640.459 68.1603 640.779 68.6703 640.729 69.1503C640.539 70.9803 639.079 72.1603 638.329 73.6803C637.649 75.0503 637.989 76.6903 636.369 77.9303C635.169 78.8503 634.619 80.7803 634.089 82.3703C633.679 83.6003 633.769 85.0003 633.569 86.3103C633.499 86.7703 633.289 87.4303 632.959 87.5803C632.049 87.9803 632.039 88.7503 631.699 89.4903C630.879 91.2603 630.249 92.9603 630.309 94.9703C630.339 95.9203 629.839 97.0103 629.269 97.8203C628.379 99.0803 628.399 100.06 629.569 101.03C630.319 101.66 630.389 102.24 629.819 103.15C629.129 104.25 628.739 105.54 628.229 106.75C627.559 108.34 626.919 109.95 626.229 111.53C626.079 111.88 625.729 112.45 625.509 112.43C623.099 112.23 623.609 113.95 623.449 115.33C623.309 116.55 622.989 117.75 622.719 118.95C622.479 120.03 622.189 121.09 621.929 122.16C621.839 122.55 621.929 123.15 621.689 123.33C619.739 124.81 620.599 127.18 619.819 129.02C619.669 129.37 619.639 129.92 619.819 130.22C620.839 132 620.259 133.58 619.389 135.18C618.929 136.02 618.809 136.76 619.459 137.73C620.349 139.04 620.189 139.15 618.539 139.72C617.959 139.92 617.389 140.22 616.799 140.33C613.729 140.9 611.139 139.03 610.659 135.79C610.369 133.83 610.729 131.94 611.469 130.06C612.819 126.63 613.959 123.13 615.199 119.66C614.339 116.48 617.069 113.92 616.679 110.75C616.429 108.75 615.619 107.82 613.699 108.09C612.169 108.31 610.629 108.39 609.089 108.5C608.259 108.56 607.439 108.59 606.939 107.68C606.529 106.94 605.909 106.84 605.089 107.13C604.709 107.27 603.989 107.13 603.729 106.84C602.779 105.8 601.549 105.85 600.319 105.66C597.879 105.28 597.559 105.37 596.899 107.73C596.509 109.1 596.539 110.59 594.919 111.31C594.569 111.47 594.349 112.15 594.269 112.62C593.719 116 592.869 119.23 590.419 121.81C589.699 122.57 589.579 123.43 589.909 124.38C589.979 124.57 590.059 124.77 590.149 124.95C591.649 127.72 590.369 130.05 588.919 132.31C587.489 134.55 585.419 135.42 582.789 134.95L582.809 134.99Z" fill="black"/>
<path d="M291.961 119.47C293.591 119.62 295.221 119.79 296.851 119.91C297.361 119.95 297.901 119.96 298.381 119.83C302.341 118.73 306.321 118 310.441 118.82C311.121 118.96 311.921 118.88 312.581 118.65C313.921 118.18 315.161 117.96 316.381 118.95C316.591 119.12 317.061 119.25 317.241 119.14C319.201 117.88 322.021 118.55 323.541 116.28C324.111 115.43 324.831 114.85 325.551 116.33C326.101 117.45 327.111 117.11 327.911 116.57C328.411 116.24 328.791 115.71 329.211 115.25C329.881 114.52 330.551 114.42 331.361 115.08C332.631 116.12 333.971 117.08 335.251 118.11C335.951 118.68 337.671 123.94 337.521 124.86C337.121 127.37 334.241 130.31 331.861 130.6C331.481 130.65 330.971 130.69 330.721 130.49C328.831 128.91 326.531 129.1 324.301 128.91C323.391 128.83 322.481 128.65 321.591 128.42C318.311 127.56 315.061 127.67 311.851 128.74C311.471 128.87 310.871 128.89 310.741 129.15C309.691 131.17 308.181 130.27 306.741 129.87C305.361 129.48 303.971 129.1 302.611 128.65C301.261 128.21 299.851 127.84 298.611 127.17C297.131 126.37 295.751 126.08 294.201 126.83C291.641 128.05 289.301 127.68 287.001 126.02C286.351 125.55 285.271 125.69 284.391 125.51C283.621 125.35 282.521 125.39 282.161 124.91C280.771 123.05 279.591 121.04 278.401 119.05C277.381 117.34 277.221 115.66 278.371 113.83C279.171 112.55 279.621 111.04 280.171 109.61C281.581 105.86 284.091 102.99 287.331 100.73C288.291 100.06 289.231 99.4701 289.391 98.2001C289.421 98.0001 289.471 97.6801 289.591 97.6401C292.201 96.6901 291.441 94.1401 292.161 92.3001C292.711 90.8801 292.481 89.6101 291.921 88.1601C290.851 85.4001 290.751 82.6301 292.671 79.9701C293.921 78.2301 294.961 76.2801 295.741 74.2901C296.311 72.8401 297.211 71.9701 298.581 71.8101C300.031 71.6401 301.001 70.9101 302.051 70.0301C304.671 67.8401 307.391 65.7401 311.171 66.1901C311.661 66.2501 312.211 66.1601 312.691 66.0001C315.081 65.1601 317.471 64.3001 319.831 63.3701C320.451 63.1301 321.131 62.7001 321.461 62.1601C322.101 61.1001 322.811 60.6801 324.011 61.1401C324.251 61.2301 324.761 61.2001 324.841 61.0601C326.291 58.3101 327.861 61.6101 329.341 60.9501C329.381 60.9301 329.541 61.0501 329.571 61.1301C330.251 63.2101 331.341 65.2601 331.111 67.4501C330.931 69.1301 330.091 70.7501 329.421 72.3501C329.171 72.9601 328.681 73.5701 328.141 73.9301C326.051 75.3201 324.521 75.2101 323.571 73.0201C322.721 71.0701 321.151 71.2001 319.831 71.0301C318.361 70.8401 316.651 71.2501 315.801 72.7301C315.121 73.9101 314.471 74.3901 313.091 73.9001C311.551 73.3601 310.171 73.7401 308.751 74.7101C307.531 75.5501 305.951 75.8501 304.531 76.4001C304.151 76.5401 303.691 76.6001 303.411 76.8601C301.521 78.6001 299.701 80.4101 297.801 82.1401C296.431 83.3901 296.921 84.6701 297.501 86.0701C298.061 87.4401 298.821 88.3101 300.431 88.3301C302.481 88.3601 304.551 88.4401 306.181 90.0001C306.391 90.2001 306.771 90.4201 306.991 90.3501C309.341 89.6401 310.821 91.3601 312.451 92.4101C313.711 93.2201 314.891 93.7901 316.401 93.9401C318.801 94.1901 319.121 94.5801 319.181 97.1101C319.211 98.3201 319.211 99.6501 318.741 100.71C317.871 102.67 314.191 103.56 312.381 102.31C311.251 101.53 310.481 101.46 309.411 102.41C307.761 103.86 307.651 103.77 307.141 106.09C306.891 107.25 306.331 107.84 305.101 108.02C304.381 108.13 303.641 108.61 303.061 109.1C300.901 110.96 298.671 111.54 296.091 109.9C295.421 109.47 294.571 109.3 293.781 109.07C291.951 108.54 290.451 108.61 289.591 110.77C289.241 111.66 288.251 112.31 287.561 113.07C287.141 113.53 286.661 113.94 286.311 114.44C285.521 115.56 284.801 116.81 285.401 118.17C286.031 119.6 287.481 119.7 288.861 119.69C289.891 119.69 290.921 119.62 291.961 119.58C291.961 119.54 291.971 119.5 291.981 119.45L291.961 119.47Z" fill="black"/>
<path d="M720.859 73.1801C720.989 73.0601 721.109 72.9401 721.239 72.8301C721.379 73.0201 721.529 73.2201 721.669 73.4101C721.499 73.4801 721.309 73.6401 721.159 73.6001C721.029 73.5701 720.959 73.3301 720.859 73.1801Z" fill="black"/>
<path d="M718.059 75.8602C717.939 75.9802 717.819 76.0902 717.699 76.2102C717.559 76.0202 717.429 75.8302 717.289 75.6402C717.449 75.5702 717.639 75.4202 717.779 75.4502C717.899 75.4802 717.969 75.7102 718.059 75.8602Z" fill="black"/>
</svg>
