<svg width="950" height="220" viewBox="0 0 950 220" fill="none" xmlns="http://www.w3.org/2000/svg">
<path d="M152.65 126.72C151.47 125.99 150.37 125.03 149.1 124.57C146.53 123.64 144.32 122.57 143.16 119.78C142.6 118.44 141.23 117.39 140.08 116.37C139.58 115.93 138.72 115.9 137.81 115.62C137.3 117.07 136.81 118.28 136.45 119.53C135.29 123.54 134.23 127.58 133.02 131.58C132.16 134.42 131.08 137.18 130.17 140C129.36 142.5 128.71 145.05 127.89 147.55C127.1 149.96 126.16 152.31 125.35 154.7C123.49 160.18 121.82 165.74 119.78 171.15C117.66 176.79 115.15 182.28 112.89 187.87C111.95 190.19 111.6 192.74 110.1 194.85C109.15 196.18 108.26 197.54 107.4 198.8C105.01 198.98 102.87 199.57 101.15 197.78C100.48 197.09 99.8804 196.31 99.3804 195.49C97.6804 192.67 96.0404 189.82 94.2904 186.83C95.8104 183.91 97.4604 180.72 99.1304 177.54C99.3304 177.15 99.5304 176.69 99.8604 176.45C103.77 173.61 105.73 169.43 107.6 165.2C108.57 163.02 109.55 160.88 109.46 158.33C109.41 156.91 110.28 155.46 110.75 154.04C111.2 152.69 111.61 151.32 112.14 150C112.63 148.79 113.27 147.64 114 146.16C113.48 143.42 115.55 141.08 116.47 138.41C118.03 133.85 119.71 129.4 120.16 124.5C120.48 121.04 121.68 117.66 122.45 114.24C122.59 113.62 122.55 112.97 122.59 112.3C121.05 111.4 119.93 112.16 118.88 112.95C115.8 115.26 112.77 117.61 109.58 120.05C109.35 123.21 107.33 124.36 104.26 124.54C102.75 124.63 101.28 125.26 99.4904 125.73C98.4104 125.38 97.0504 124.93 95.6904 124.49C92.9604 123.59 90.7804 122.16 89.7004 119.26C89.1704 117.86 88.0404 116.69 87.2204 115.39C84.8804 111.65 82.8104 108.02 83.8004 103.13C84.5804 99.2702 85.2704 95.3902 86.2304 91.5702C86.9904 88.5402 88.6404 85.9402 90.2404 83.3102C91.0404 82.0102 91.8104 80.6902 92.8504 78.9302C93.9304 78.3302 95.4504 77.4802 97.1604 76.5302C97.1204 76.0202 97.0604 75.4102 96.9804 74.4802C99.5404 73.6002 101.91 71.9902 104.91 71.9202C106.88 71.8702 108.91 71.6902 110.78 71.1302C112.81 70.5202 114.63 70.7402 116.62 71.1602C118.98 71.6602 121.43 71.7102 123.84 71.9702C128.09 72.4202 131.48 74.7302 134.71 77.2002C136.16 78.3102 137.3 79.9302 138.31 81.4902C139.4 83.1702 140.84 83.4902 142.6 83.2102C145.09 82.8202 147.63 82.6102 150.04 81.9202C152.76 81.1402 155.44 80.0902 157.99 78.8602C162.16 76.8702 166.62 76.4802 171.1 76.1002C171.65 76.0502 172.25 76.0002 172.75 76.1802C176.78 77.6202 181.09 78.4102 184.74 80.7602C187.21 82.3602 188.95 84.7102 189.82 87.5202C191.06 91.5502 191.34 95.6202 190.32 99.8302C189.3 104.04 186.94 107.45 184.51 110.86C183.75 111.94 182.91 112.96 182.03 113.95C180.48 115.68 178.77 117.16 176.8 118.48C171.4 122.1 165.41 124.24 159.28 126.07C157.2 126.69 155 126.92 152.86 127.33C152.79 127.12 152.72 126.91 152.64 126.71L152.65 126.72ZM146.85 90.5502C145.06 91.1702 144.47 92.5302 144.1 93.9002C142.94 98.2302 141.87 102.59 140.84 106.96C140.6 107.98 140.67 109.08 140.59 110.26C141.8 110.54 142.78 111.07 143.66 110.93C147.43 110.34 151.29 110.09 154.86 108.54C156.36 107.89 157.77 106.98 159.32 106.53C161.97 105.77 163.98 104.22 165.93 102.36C169.56 98.9102 171.65 94.6502 173.14 89.9802C172.86 89.1402 172.6 88.3202 172.24 87.2302C171.04 87.3402 169.82 87.2802 168.71 87.6002C165.98 88.3902 163.19 89.1302 160.61 90.3202C156.03 92.4302 151.55 92.6402 146.84 90.5502H146.85ZM98.9904 111.96C99.8504 111.69 100.63 111.61 101.23 111.23C105.76 108.4 110.42 105.77 114.28 101.97C117.37 98.9402 120.18 95.7302 122.34 91.9702C123.07 90.7002 123.75 89.3102 123.19 87.8902C122.02 84.9602 121.23 81.7302 117.54 79.8302C116.21 80.2102 114.45 80.9902 112.65 81.1402C110.23 81.3302 108.55 82.5402 107.21 83.8502C106.69 85.5202 106.53 87.0302 105.81 88.1902C103.18 92.4402 101.13 96.9202 99.7604 101.71C98.8304 104.97 98.1404 108.29 98.9804 111.96H98.9904Z" fill="black"/>
<path d="M268.38 119.35C267.75 118.13 267.41 117.47 267 116.66H261.46C259.73 117.6 259.23 119.57 258.6 121.45C257.52 124.66 256.71 128 255.35 131.09C251.98 138.72 248.26 146.19 244.91 153.82C243.76 156.44 242.67 159.01 241.12 161.45C239.9 163.36 238.44 164.63 236.42 165.38C235.31 165.79 234.14 166.05 233.04 166.37C230.57 162.67 228.22 159.15 225.72 155.4C226.15 154.64 226.43 153.5 227.15 153.02C229.43 151.49 230.06 149.01 231.16 146.79C232.18 144.73 233.2 142.67 234.16 140.58C236.32 135.88 238.62 131.22 240.55 126.43C242.72 121.04 244.37 115.45 245.73 109.8C246 108.67 245.77 107.42 245.77 105.95C242.62 106.79 240.04 108.31 237.8 110.07C233.36 113.57 228.53 116.41 223.69 119.28C221.72 120.45 219.75 121.62 217.97 122.68C215.31 121.73 213.03 120.92 210.89 120.16C209.64 119.13 208.35 118.27 207.32 117.16C206.52 116.31 205.7 115.22 205.5 114.12C205.2 112.47 204.41 111.32 203.31 110.18C202.55 109.4 202.02 108.41 201.17 107.21C201.17 105.83 201.24 104.17 201.15 102.52C200.99 99.5002 201.41 96.6102 202.64 93.8202C204.49 89.6102 205.86 85.1902 208.71 81.4402C209.6 80.2802 209.97 78.7302 210.63 77.2602C211.75 77.4802 212.59 77.6402 213.58 77.8402C214.85 77.2102 216.23 76.5302 217.43 75.9402C218.84 72.1902 220.18 68.6402 221.47 65.2002C225.14 64.3902 228.42 63.6702 231.8 63.1802C235.29 62.6702 238.29 63.5202 241.46 64.2302C242.85 64.5402 244.22 65.0402 245.62 65.2002C250.22 65.7002 253.53 68.2802 256.46 71.5702C256.82 71.9802 257.26 72.3202 257.7 72.7302C261.1 73.0302 264.49 73.3402 267.69 73.6202C268.95 72.4902 269.93 71.6102 271.04 70.6202C271.95 71.3102 272.81 71.9602 273.75 72.6702C274.46 72.6402 275.3 72.7902 275.99 72.5302C279.67 71.1702 283.6 71.3302 287.35 70.5702C291.84 69.6702 295.8 70.4502 299.71 72.5602C301.33 73.4402 303.21 73.8402 304.8 74.7502C311.46 78.5502 314.03 87.6302 309.82 94.2902C308.53 96.3202 307.55 98.5402 306.38 100.65C306.06 101.22 305.61 101.74 305.13 102.18C301.79 105.24 298.5 108.35 295.05 111.28C291.62 114.19 288.15 117.05 283.55 118.12C281.45 118.61 279.46 119.6 277.62 120.28C274.39 119.97 271.36 119.67 268.4 119.38L268.38 119.35ZM217.39 105.16C217.98 105.16 218.38 105.29 218.62 105.14C221.7 103.22 224.98 101.57 227.44 98.7702C228.23 97.8702 229.29 97.2202 230.19 96.4102C230.93 95.7502 231.64 95.0502 232.3 94.3102C233.18 93.3302 234 92.2902 234.83 91.2702C235.45 90.5102 236.07 89.7302 236.66 88.9502C237.52 87.8202 238.29 86.6002 239.23 85.5402C240.74 83.8402 241.8 81.9902 241.89 79.6502C241.93 78.6802 242.21 77.7102 242.38 76.7602C240.36 72.3802 238.31 71.1702 233.97 71.5402C230.74 72.8502 229.99 76.6702 226.78 77.4302C226.06 76.8702 225.52 76.4502 224.98 76.0302C223.72 77.0602 223.8 77.9002 224.53 79.0402C226.11 81.5102 226.42 84.2102 225.17 86.9002C223.74 90.0002 222.14 93.0202 220.64 96.1002C219.53 98.3702 218.41 100.64 217.42 102.96C217.16 103.58 217.38 104.4 217.38 105.16H217.39ZM292.63 78.8102C289.27 78.2402 285.91 78.4802 282.82 79.6202C277.31 81.6602 273.38 85.6602 271 90.9802C268.99 95.4802 267.18 100.08 265.51 104.71C265.04 106.02 264.14 107.47 264.87 109.2C266.99 108.83 268.56 107.61 270.08 106.45C272.42 104.67 274.6 102.67 276.81 100.73C278.63 99.1302 280.68 97.7002 282.15 95.8102C284.81 92.3902 287.77 89.3302 291.24 86.7402C292.77 85.6002 293.1 83.7702 293.61 82.1102C293.98 80.8802 293.56 79.7202 292.64 78.8102H292.63Z" fill="black"/>
<path d="M862.3 61.1402C860.41 59.5402 858.24 61.5602 856.44 60.2602C855.94 59.2069 855.746 57.2935 855.86 54.5202C856.14 54.1602 856.46 53.7102 856.82 53.3002C858.39 51.5602 858.76 49.8102 857.58 47.5802C856.38 45.3302 856.75 44.3502 858.73 42.2502C859.5 42.2502 860.38 42.2102 861.26 42.2502C863.57 42.3902 865.88 42.6802 868.19 42.7002C875.05 42.7702 881.83 43.3602 888.59 44.6402C894.83 45.8202 900.59 48.1902 906.46 50.4102C909.56 51.5802 912.25 53.4902 915.69 54.7102C916.82 54.2102 918.21 53.6002 919.41 53.0702C922.27 54.5802 925.2 55.8602 927.84 57.5902C930.77 59.5002 933.74 61.5302 936.16 64.0302C940.18 68.2002 941.12 73.3002 939.89 79.0402C939.14 82.5202 937.32 85.5202 936.35 88.8702C935.35 92.3202 933.45 95.3302 931.1 97.9402C928.39 100.95 925.88 104.25 922.01 106.05C920.85 106.59 920.01 107.78 918.94 108.55C915.71 110.86 912.44 113.1 909.74 116.08C908.05 117.94 905.59 118.54 903.22 119.09C902.61 119.23 901.81 119.18 901.28 118.9C899.17 117.76 897.13 116.48 895.3 115.4C894.77 111.81 894.58 108.61 892.74 105.82C892.36 105.24 892.3 104.32 892.38 103.58C892.71 100.75 893.22 97.9502 893.57 95.1202C894.25 89.4802 896.37 84.2802 898.44 79.0702C900.07 74.9902 902.06 71.0502 903.76 67.0002C904.52 65.2002 905.35 63.3402 904.86 60.9502C904.3 60.6002 903.63 59.9102 902.84 59.7302C894.99 57.9302 887.15 55.9702 878.98 56.7402C878.67 56.7702 878.37 56.9202 877.81 57.0902C877.81 57.5902 877.77 58.1102 877.81 58.6302C877.98 60.3702 878.44 62.1202 878.34 63.8402C878.06 68.7802 877.4 73.6502 875.55 78.3202C874.34 81.3802 873.42 84.5502 872.35 87.6702C871.96 88.8102 871.51 89.9302 871.11 91.0602C870.19 93.6402 869.3 96.2302 868.38 98.8002C868.12 99.5202 867.92 100.3 867.5 100.93C864.13 105.93 862.08 111.72 858.25 116.45C857.92 116.86 857.87 117.48 857.59 117.93C856.79 119.21 855.93 120.46 855.04 121.81C853.72 121.41 852.7 121.05 851.65 120.79C849.65 120.3 848.45 119.37 848.14 117.05C847.92 115.38 846.72 113.85 845.96 112.26C845.95 112.03 845.91 111.81 845.92 111.59C846.17 105.87 849.32 101.2 851.64 96.2702C855.16 88.8002 857.87 81.0502 860.61 73.2802C862.01 69.3202 862.74 65.4502 862.3 61.1202V61.1402ZM926.23 67.2102C924.92 66.5302 923.86 65.9902 922.62 65.3402C920.72 66.8302 917.99 65.2002 915.85 66.7502C916.1 67.6002 916.21 68.3702 916.53 69.0402C918.22 72.4302 917.51 75.6402 915.9 78.8002C915.45 79.6802 914.95 80.5402 914.51 81.4302C912.36 85.7502 910.18 90.0502 908.13 94.4202C907.7 95.3402 907.75 96.4902 907.52 97.9202C910.96 96.3702 913.1 93.8302 915.78 91.9002C916.13 92.6502 916.37 93.1802 916.73 93.9502C917.54 92.7702 918.22 91.8002 918.89 90.8302C918.71 90.2102 918.54 89.6102 918.3 88.7402C919.08 88.4702 919.75 88.1502 920.45 88.0102C921.91 87.7102 923.34 87.1802 923.98 85.8302C925.07 83.5702 926.08 81.2302 926.75 78.8202C927.18 77.2702 926.63 75.4502 927.06 73.9002C927.71 71.5002 927.07 69.4202 926.23 67.2302V67.2102Z" fill="black"/>
<path d="M741.389 92.3504C740.509 93.4704 739.709 94.1304 739.379 94.9704C737.669 99.2704 736.129 103.63 734.449 107.94C733.449 110.49 732.299 112.99 731.199 115.51C729.229 120.01 727.249 124.52 725.259 129.01C721.789 136.85 718.269 144.66 714.849 152.52C713.399 155.84 712.139 159.23 710.719 162.77H706.199C705.019 162.05 704.099 160.78 703.969 159.17C703.629 155.18 702.129 151.49 701.189 147.66C700.799 146.08 700.309 144.26 700.729 142.81C701.629 139.69 703.079 136.72 704.349 133.71C705.239 131.59 706.339 129.55 707.089 127.38C707.749 125.48 708.549 123.74 709.849 122.17C711.199 120.54 712.129 118.65 711.909 116.33C712.699 115.86 713.449 115.42 714.039 115.07C714.609 113.89 714.989 112.75 715.649 111.8C718.679 107.41 720.599 102.49 722.379 97.5304C723.569 94.2304 724.459 90.8304 725.479 87.4704C725.609 87.0504 725.849 86.6204 725.819 86.2004C725.619 82.7804 726.989 79.7704 728.139 76.6704C728.589 75.4604 728.209 73.9404 728.209 72.4304C728.379 72.4204 728.769 72.3804 729.379 72.3304C729.929 70.7804 730.699 69.1904 731.059 67.5004C731.759 64.1904 733.649 61.5504 735.439 58.8004C737.279 55.9804 739.689 53.4504 739.929 49.7704C739.989 48.7904 740.729 47.6504 741.509 46.9704C743.219 45.4804 743.789 43.4904 744.409 41.5004C744.989 39.6204 745.469 37.7004 746.029 35.6504C746.969 36.1004 747.759 36.4504 748.519 36.8504C749.749 37.5004 751.009 37.7804 752.349 37.2104C753.659 36.6504 754.879 36.8504 756.209 37.2704C757.659 37.7304 759.219 37.8504 760.729 38.1404C761.369 38.2604 762.029 38.3704 762.629 38.6004C764.059 39.1504 765.419 39.8804 766.879 40.3304C770.359 41.4104 773.149 43.4304 775.589 46.0604C776.559 47.1004 777.649 48.0504 778.789 48.8904C781.609 50.9704 782.649 54.0204 783.019 57.1904C783.389 60.3604 783.519 63.6504 783.059 66.7904C782.549 70.2304 781.409 73.6204 780.239 76.9104C779.409 79.2604 777.919 81.3704 776.969 83.6804C774.999 88.4504 771.469 91.9904 767.579 95.0404C762.979 98.6504 757.499 99.9504 751.639 99.2504C750.899 99.1604 750.209 98.7004 749.499 98.4004C748.509 97.9804 747.519 97.5604 746.519 97.1504C745.399 96.6904 744.309 96.3004 743.729 95.0104C743.339 94.1604 742.479 93.5204 741.409 92.3304L741.389 92.3504ZM765.209 49.5604C764.649 49.7404 764.139 49.9704 763.609 50.0504C760.179 50.6104 757.779 52.3704 756.379 55.6204C754.849 59.1604 753.089 62.6004 751.509 66.1104C750.199 69.0204 749.019 71.9804 747.739 74.9004C747.099 76.3504 746.789 77.7504 747.639 79.2104C750.049 78.8004 752.319 78.4304 754.579 78.0404C755.009 77.9704 755.489 77.8904 755.819 77.6504C757.849 76.1304 760.009 74.7404 761.779 72.9604C763.309 71.4304 764.689 69.5804 765.609 67.6304C767.199 64.2704 768.389 60.7104 769.729 57.2304C769.799 57.0404 769.729 56.7904 769.729 56.4704C769.139 55.7704 768.509 55.0104 767.919 54.3004C767.789 52.3304 767.819 50.3604 765.209 49.5504V49.5604Z" fill="black"/>
<path d="M9.60961 63.57C9.93961 61.83 10.7796 60.81 12.1496 60.04C16.7896 57.42 21.6996 55.5 26.8296 54.1C29.1596 53.47 31.4696 52.75 33.7996 52.13C37.5296 51.12 41.2396 50.98 44.7596 52.85C48.3496 54.76 52.4596 55.47 55.8496 57.87C58.5896 59.81 60.7396 62.29 62.9896 64.71C63.2096 64.95 63.3696 65.26 63.4796 65.57C64.7796 69.07 66.2596 72.52 67.2896 76.1C68.3496 79.79 69.0296 83.59 69.7296 87.37C70.3996 90.94 71.0196 94.52 71.3996 98.12C71.8196 102.02 71.0096 105.74 69.4896 109.4C67.2696 114.74 64.4796 119.64 60.4796 123.88C57.0196 127.54 52.7696 129.68 48.0796 131.19C46.0096 131.86 44.0396 132.83 41.9696 133.51C39.3596 134.36 36.6996 135.07 34.0596 135.8C33.6496 135.91 33.1696 135.89 32.7396 135.82C30.3596 135.43 27.9796 135.01 25.6096 134.58C23.3696 134.18 21.3996 133.32 20.0296 131.37C19.6596 130.84 19.0996 130.38 18.5296 130.08C17.2996 129.43 16.3996 128.64 16.0596 127.17C15.9096 126.51 15.0696 126.03 14.6896 125.38C14.3896 124.87 14.3296 124.23 14.0896 123.41C15.0896 123.33 15.8396 123.23 16.5796 123.21C18.7796 123.14 20.8896 122.68 23.0596 122.24C27.8196 121.27 31.8396 118.22 36.7296 117.79C37.1296 117.76 37.4896 117.38 37.8696 117.16C40.3596 115.73 42.7896 114.19 45.6896 113.66C46.2196 113.56 46.7896 113.33 47.1896 112.98C49.5196 110.97 51.9196 109.01 54.0796 106.82C55.7596 105.12 56.1696 102.74 56.5596 100.45C56.5996 100.21 56.2396 99.91 55.8796 99.33C53.5396 99.95 51.0896 100.44 48.7396 101.26C46.5296 102.03 44.3396 102.59 41.9896 102.66C37.3496 102.8 32.7196 103.07 28.0796 103.3C26.6196 103.37 25.2096 103.33 23.8996 102.52C23.4396 102.24 22.8596 102.01 22.3396 102.02C20.3596 102.06 18.9796 101.13 18.0096 99.54C16.6396 99.2 15.3596 98.87 14.0696 98.55C13.2696 97.39 12.4796 96.24 11.5496 94.89C12.1296 94.39 12.6896 93.51 13.2296 93.52C16.4196 93.58 19.4496 92.48 22.7396 92.77C26.7496 93.13 30.8996 92.73 34.8996 92.11C39.0396 91.47 43.1796 90.95 47.3496 90.6C50.7496 90.31 54.1596 90.09 57.4996 89.84C58.4396 88.91 58.7096 87.97 58.4596 86.76C57.8196 83.64 57.4396 80.45 56.0496 77.54C54.0596 73.38 52.0796 69.21 49.9296 65.14C49.2996 63.94 48.1096 63.04 47.4396 62.3C44.3496 61.85 41.8796 62.33 39.4096 63.03C35.0796 64.27 30.7196 65.42 26.5996 67.3C26.4996 67.35 26.3596 67.32 26.2796 67.38C23.5096 69.59 20.2696 70.39 16.4796 70.53C13.3996 69.34 11.1996 66.84 9.59961 63.55L9.60961 63.57Z" fill="black"/>
<path d="M325.289 91.8103C326.709 92.4603 328.099 93.0903 329.769 93.8603C330.409 92.7703 331.429 91.7903 331.519 90.7303C331.879 86.2603 334.339 82.7403 336.379 79.0003C339.379 73.5003 343.679 69.1303 348.079 64.7603C352.339 60.5203 357.599 58.1203 362.859 55.7003C364.869 54.7703 367.359 54.8803 369.519 54.5303C370.459 55.1403 371.179 55.6403 371.939 56.0903C373.449 56.9803 374.889 58.0803 376.519 58.6703C380.259 60.0303 383.279 62.2403 385.909 65.1903C387.909 67.4303 388.599 70.1803 389.549 72.6803C389.109 75.7103 388.639 78.5503 386.589 80.7903C385.479 82.0003 384.219 83.0803 383.129 84.3003C382.129 85.4103 381.249 86.6403 380.559 88.0303C378.979 89.2203 377.349 90.3703 375.809 91.6103C371.749 94.8903 367.109 97.1803 362.419 99.3903C360.839 100.13 359.439 101.25 357.809 102.29C360.449 103.68 362.989 103.52 365.549 102.62C367.799 101.83 370.869 101.75 372.959 102.52C372.299 104.21 370.609 104.63 369.289 105.02C366.799 105.76 364.589 106.86 362.449 108.62C359.049 108.84 355.529 109.17 352.009 109.27C349.439 109.34 347.729 110.8 346.189 112.35C343.969 112.95 342.119 112.65 340.449 111.24C338.429 109.54 335.679 109.64 333.419 108.52C331.849 107.74 330.229 107.03 328.759 106.09C327.339 105.17 326.619 103.8 326.269 102.03C325.809 99.6803 324.819 97.4303 324.069 95.1303C323.669 93.9003 323.509 92.7303 325.299 91.8303L325.289 91.8103ZM369.739 73.2003C367.779 72.9503 365.489 73.5603 362.699 75.5203C359.959 77.4403 356.699 78.8703 355.289 82.3103C357.029 81.6203 358.589 80.6803 360.189 79.8003C361.409 79.1203 362.679 78.5303 363.899 77.8503C366.059 76.6503 368.179 75.3903 369.739 73.2103V73.2003Z" fill="black"/>
<path d="M425.16 101.04C425.88 101.29 426.68 101.8 427.5 101.81C430.58 101.87 433.67 102.4 436.75 101.47C437.75 101.17 438.94 101.4 440.03 101.52C441.45 101.68 442.85 101.96 444.96 102.31C445.9 102.69 446.5 104.08 446.98 105.5C445.81 107.27 444.7 108.97 443.48 110.81C440.25 112.07 436.67 113.07 432.95 115.2C431.11 115.25 428.78 115.11 426.43 114.09C423.83 112.97 421.01 112.36 418.27 111.53C417.37 109.46 416.56 107.43 415.59 105.48C414.71 103.69 415.27 101.22 413.09 99.8904C411.64 100.6 410.84 101.63 410.22 103.02C408.08 107.83 405.83 112.6 403.53 117.34C402.97 118.5 402.08 119.49 401.41 120.45H395.82C392.97 116.8 392.53 112.32 391.76 108.32C393.61 104.22 395.32 100.42 397.04 96.6303C398.77 92.8203 400.63 89.0703 402.2 85.2003C403.73 81.4303 404.88 77.5004 406.32 73.6904C407.77 69.8404 408.52 65.7304 410.35 61.9704C412.71 63.1304 414.76 64.1404 417.39 65.4404C418.57 68.9004 419.93 72.9304 421.38 77.1904C422.25 76.9404 423.25 76.6504 424.25 76.3704C424.18 76.2604 424.11 76.1404 424.04 76.0303C425.18 75.0303 426.34 74.0603 427.45 73.0203C428.89 71.6703 430.24 70.2304 431.68 68.8904C434.27 66.4904 436.95 64.1904 439.5 61.7504C441.23 60.0904 443.2 58.6404 443.98 56.1304C444.24 55.3104 445.28 54.7204 446.12 53.8604C447.64 55.2604 448.99 56.5104 450.39 57.8004C451.45 57.9704 452.52 58.1404 453.6 58.3104C455.07 61.0704 456.49 63.7404 457.75 66.1204C457.18 69.2604 455.27 71.0804 453.58 72.8704C449.41 77.2704 444.95 81.3703 439.94 84.8503C438.05 86.1604 436.28 87.7003 434.62 89.3103C431.7 92.1404 428.24 94.4203 425.89 97.8403C425.31 98.6903 424.61 99.3703 425.12 101.02L425.16 101.04Z" fill="black"/>
<path d="M679.169 38.3403C682.739 40.5703 686.079 42.6603 689.429 44.7503C691.569 46.0903 693.819 47.1303 696.219 47.9703C698.729 48.8503 699.709 51.2003 700.509 53.5403C700.859 54.5703 701.009 55.7303 701.579 56.6303C703.849 60.2303 703.409 63.8803 701.489 67.2703C700.229 69.4903 700.409 71.4203 701.379 74.0103C698.119 81.3003 695.709 89.2403 694.489 97.6403C693.429 97.9703 692.399 98.2903 691.389 98.6003C690.599 98.2103 689.919 97.8303 689.209 97.5303C687.679 96.8803 686.659 95.9503 686.479 94.1303C686.379 93.0703 685.909 91.9903 685.389 91.0303C683.379 87.3603 682.579 83.4403 682.529 79.2903C682.519 78.2603 682.069 77.2303 681.839 76.2603C678.889 75.4803 677.469 78.1103 675.189 78.3603C674.169 80.3003 673.189 82.1503 672.299 83.8403C669.379 85.7103 666.609 87.4903 663.659 89.3903C658.709 88.3103 657.809 83.4303 655.189 79.8903C655.009 76.8603 654.839 73.6803 654.619 70.5003C654.339 66.5403 655.459 62.8903 657.309 59.4903C658.349 57.5703 659.679 55.7803 661.069 54.0903C666.199 47.8203 672.009 42.3003 679.169 38.3503V38.3403ZM673.989 68.7803C674.159 68.9803 674.319 69.1703 674.489 69.3703C676.919 68.1803 679.349 66.9903 681.519 65.9403C682.109 64.6803 682.569 63.7103 682.989 62.8003C684.642 63.047 685.796 62.807 686.449 62.0803C684.759 59.7403 683.459 59.4303 681.389 61.0803C680.009 62.1803 678.889 63.6303 677.429 64.5803C675.759 65.6703 674.909 67.2103 673.989 68.7803Z" fill="black"/>
<path d="M571.929 105.62C570.369 105.94 568.979 106.23 567.389 106.57C566.869 106.23 566.229 105.81 565.679 105.45C564.669 105.54 563.719 105.63 562.559 105.74C562.379 102.89 561.069 100.78 559.689 99.0102V93.1302C565.349 89.2702 567.349 82.6602 570.839 77.3602C569.139 73.2902 568.009 72.4402 563.729 71.8102C563.299 70.2602 561.879 68.7502 563.779 66.7302C565.959 66.7302 568.369 66.7202 570.789 66.7302C575.009 66.7502 576.079 65.9902 577.479 61.8602C579.379 56.2602 581.359 50.6802 583.149 45.0402C584.049 42.2302 584.609 39.3102 585.339 36.4402C585.529 35.7002 585.659 34.9202 586.019 34.2502C586.789 32.7902 586.859 31.4202 586.359 29.8102C585.949 28.4802 586.119 26.9802 586.029 25.3002C585.179 24.2002 583.889 22.9402 585.229 20.9502C587.219 21.7402 589.249 22.5402 591.469 23.4202C592.039 23.2902 592.779 22.9602 593.519 22.9702C594.359 22.9902 595.369 23.0802 595.999 23.5502C600.139 26.6202 602.039 30.7402 601.279 35.9002C600.559 40.7802 599.659 45.6202 598.109 50.3202C596.939 53.8602 595.769 57.3902 594.609 60.9402C594.199 62.1902 593.729 63.4402 593.489 64.7202C593.359 65.4002 593.639 66.1702 593.739 66.9502C594.449 67.1302 594.969 67.3802 595.489 67.3702C600.229 67.2502 604.999 67.8702 609.699 66.7702C610.309 66.6302 611.069 67.0902 611.799 67.2802C611.659 68.5002 611.549 69.4302 611.429 70.4702C612.279 70.9302 613.029 71.3302 613.859 71.7802C613.699 72.0702 613.619 72.5002 613.409 72.5802C611.869 73.1502 610.309 73.6502 608.729 74.1802C608.279 75.1302 607.859 76.0102 607.449 76.8602C605.359 77.5602 603.309 78.2502 600.839 79.0802C597.689 79.0802 594.039 79.2002 590.399 79.0202C588.849 78.9402 588.149 79.6102 587.609 80.7702C586.219 83.7702 584.899 86.8102 583.459 89.7802C580.929 95.0002 576.249 101.37 571.909 105.6L571.929 105.62Z" fill="black"/>
<path d="M791.36 43.5603C794.17 44.2003 796.17 44.6603 798.18 45.1203C799.9 47.1303 801.63 49.2403 803.45 51.2503C807.58 55.8003 810.11 61.2703 812.56 66.8003C813.32 68.5203 814.13 70.2203 815.01 71.8703C815.34 72.4903 815.95 72.9703 816.42 73.5003C818.75 72.6603 820.01 70.8903 821.35 69.3503C824.46 65.7803 827.32 61.9903 830.39 58.3803C833.15 55.1303 836.07 52.0103 838.99 48.7603C841.51 49.1403 842.87 51.4303 844.6 52.3003C845.39 55.3903 846.09 58.1303 846.79 60.8703C847.64 64.1603 846.38 66.9203 844.55 69.4903C843.92 70.3803 842.95 71.0203 842.2 71.8303C840.87 73.2703 839.48 74.5803 838.65 76.5203C837.9 78.2803 836.43 79.8203 835.03 81.2203C831.98 84.2603 829.67 87.8803 826.83 91.0703C825.3 92.7903 823.55 94.3103 821.97 95.9903C819.48 98.6203 817.13 101.39 814.58 103.96C812.17 106.39 809.55 108.6 807.09 110.98C806.06 111.97 805.16 113.09 804.27 114.21C802.15 116.87 799.81 119.08 796.11 119.28C794.64 119.36 793.5 120.32 792.48 121.42C791.68 122.29 790.69 122.98 789.87 123.68C788.53 122.71 787.42 121.92 785.96 120.87C785.69 119.8 785.31 118.33 784.92 116.78C787.45 112.93 789.87 109.12 792.44 105.42C793.81 103.43 795.43 101.61 796.96 99.7303C798.32 98.0603 798.89 95.7803 801.14 94.7303C801.83 94.4103 801.9 92.9603 802.49 92.2103C804.24 89.9603 806.14 87.8103 807.93 85.5803C808.88 84.4003 809.73 83.1303 810.68 81.8403C809.53 79.5603 808.58 77.4503 807.44 75.4403C806.03 72.9503 804.86 70.3903 803.81 67.7103C802.25 63.7403 800.13 59.9603 798.08 56.2003C796.82 53.8803 795.28 51.7503 794.97 48.9803C794.86 47.9903 793.98 47.0603 793.37 46.1403C792.9 45.4203 792.32 44.7803 791.36 43.5503V43.5603Z" fill="black"/>
<path d="M468.1 62.4002C470.1 61.6002 471.79 60.9202 473.89 60.0802C472.87 59.5402 472.27 59.2202 471.67 58.9102C471.81 58.6202 471.85 58.3702 472 58.2502C474.2 56.4702 477.01 56.4202 479.53 56.1902C484.03 55.7802 488.6 56.0702 493.16 56.0702C493.79 56.8002 494.35 57.4402 494.51 57.6302C496.61 57.7402 498.2 57.8402 499.78 57.8802C500.19 57.8902 500.6 57.7102 501.02 57.6602C502 57.5402 502.99 57.2802 503.96 57.3602C505.93 57.5102 507.9 58.0902 509.86 58.0202C511.88 57.9602 513.41 58.9802 514.85 59.5302C515.78 60.8902 516.56 62.0402 517.46 63.3602C516.47 65.8302 513.82 63.8902 512.05 65.3102C511.78 65.8602 511.36 66.7302 510.92 67.6302C510.63 67.7602 510.33 68.0002 510.03 68.0102C507.04 68.0502 504.32 68.6402 501.47 69.8702C498.43 71.1902 495.14 72.3602 491.68 72.6502C489.72 72.8202 488.11 73.7502 487.34 75.7402C486.86 76.9702 486.36 78.2002 485.82 79.4002C483.18 85.3302 480.45 91.2202 477.91 97.2002C476.1 101.45 474.53 105.79 472.86 110.1C472.74 110.41 472.74 110.84 472.53 111.01C470.61 112.55 470.81 114.98 469.78 117.34C468.18 118.21 466.3 119.24 464.3 120.34C461.5 115.9 460.11 111.46 461.45 106.2C462.62 101.61 463.98 97.1302 465.77 92.7402C467.77 87.8502 469.56 82.8702 471.44 77.9302C471.6 77.5202 471.66 77.0702 471.83 76.6702C472.43 75.2202 472.1 74.0102 471.35 72.6202C470.15 70.4102 469.25 68.0202 468.39 65.6502C468.07 64.7602 468.2 63.7102 468.1 62.4002Z" fill="black"/>
<path d="M626.999 102.11C624.979 103.01 623.199 103.81 621.399 104.61C620.009 102.58 618.509 100.81 617.499 98.7904C616.559 96.9204 616.309 94.7204 616.789 92.6304C617.399 89.9604 618.489 87.3904 618.919 84.7004C619.469 81.2804 620.849 78.1904 621.979 74.9904C624.049 69.0804 626.049 63.1404 628.079 57.2204C629.259 53.7804 630.419 50.3404 631.599 46.9004C633.609 41.0904 635.679 35.3004 637.609 29.4604C638.069 28.0604 638.079 26.5004 638.339 24.6704C640.879 26.3804 643.269 27.7204 645.859 27.6104C646.679 28.9804 647.369 30.1504 648.089 31.3104C648.669 32.2504 649.289 33.1504 649.869 34.0904C651.309 36.4504 650.389 38.9104 649.699 41.1204C648.389 45.3104 646.619 49.3504 645.059 53.4504C644.669 54.4804 644.319 55.5304 643.959 56.5604C641.939 62.3804 640.349 68.4004 637.769 73.9604C634.929 80.0604 633.799 86.7604 630.429 92.6704C628.819 95.4904 628.149 98.8304 626.999 102.11Z" fill="black"/>
<path d="M719.139 95.21C720.539 93.81 720.479 92.33 720.709 90.88C721.149 88.09 721.919 85.35 722.659 82.62C723.119 80.95 723.769 79.33 724.379 77.7C724.519 77.34 724.849 77.05 725.219 76.54C726.149 77.69 726.219 78.92 725.569 79.7C724.599 80.86 724.639 82.08 724.539 83.39C724.419 84.9 723.139 85.95 723.059 87.63C722.979 89.52 722.159 91.41 721.509 93.24C721.219 94.06 720.929 95.13 719.129 95.21H719.139Z" fill="black"/>
</svg>
