<svg width="950" height="220" viewBox="0 0 950 220" fill="none" xmlns="http://www.w3.org/2000/svg">
<path d="M631.259 68.9002C631.039 73.4102 631.669 76.6302 632.039 79.8902C632.549 84.3702 633.189 88.8602 633.509 93.3702C633.719 96.3502 633.539 99.3602 633.659 102.35C633.769 105.12 633.909 107.9 634.289 110.63C634.429 111.66 635.159 112.72 635.879 113.54C636.649 114.42 636.719 115.24 636.049 116.01C634.769 117.49 634.699 119.2 634.829 120.97C635.189 125.99 635.599 131 635.969 136.02C636.029 136.84 636.189 137.71 636.009 138.49C635.049 142.63 636.309 146.62 636.609 150.68C636.839 153.8 637.229 156.8 638.509 159.67C638.719 160.13 638.739 160.67 638.849 161.18C639.369 163.62 638.369 165.72 636.489 166.18C633.329 166.95 630.639 165.66 629.989 163.04C629.189 159.85 628.399 156.66 627.619 153.47C627.549 153.17 627.469 152.87 627.449 152.56C627.229 149.89 626.969 147.23 626.829 144.56C626.549 139.21 626.359 133.86 626.069 128.51C625.979 126.77 625.709 125.03 625.459 123.3C625.079 120.71 624.179 120.08 621.699 120.92C618.969 121.84 616.159 121.35 613.399 121.65C611.769 121.83 610.149 122.11 608.529 122.37C607.919 122.47 607.329 122.74 606.729 122.77C600.859 123.02 594.989 123.24 589.109 123.43C588.199 123.46 587.279 123.15 586.359 123.14C584.629 123.13 582.889 123.06 581.179 123.3C577.009 123.88 572.999 125.42 568.709 125.33C568.109 125.32 567.509 125.59 566.919 125.73C565.629 126.03 564.349 126.44 563.039 126.6C558.489 127.17 554.079 128.44 549.599 129.24C546.249 129.83 543.019 131.21 539.689 131.32C535.009 131.47 530.249 131.96 525.609 130.62C525.119 130.48 524.599 130.37 524.089 130.34C519.289 130.05 520.079 130.08 519.849 134.05C519.609 138.15 519.309 142.26 519.009 146.36C518.689 150.74 518.259 155.11 518.039 159.5C517.949 161.33 518.209 163.19 518.439 165.03C518.719 167.25 518.029 168.2 515.829 168.05C511.829 167.78 509.309 166.73 509.379 161.61C509.439 157.39 509.779 153.18 509.899 148.96C510.019 144.85 509.979 140.73 510.089 136.61C510.139 134.66 510.449 132.72 510.509 130.77C510.619 127.37 510.669 123.96 510.679 120.56C510.699 115.81 510.679 111.06 510.659 106.31C510.639 103 510.449 99.7202 509.609 96.4902C509.359 95.5102 509.409 94.4402 509.379 93.4202C509.289 89.2102 509.379 84.9802 509.109 80.7802C508.929 78.0302 508.159 75.3202 507.789 72.5802C506.999 66.6702 506.329 60.7502 505.549 54.8402C505.319 53.1102 504.789 51.4202 504.539 49.7002C504.369 48.5202 503.779 46.9902 504.959 46.2402C506.119 45.5002 507.449 46.1102 508.729 46.7702C512.279 48.5802 513.999 51.3902 514.419 55.2902C515.149 62.0402 515.819 68.8102 516.959 75.4902C517.969 81.4302 518.089 87.3702 518.139 93.3502C518.149 95.0902 518.419 96.8302 518.669 98.5602C519.729 106.1 520.739 113.65 520.509 121.3C520.439 123.72 520.549 123.78 522.929 124.21C529.799 125.44 536.629 125.4 543.379 123.43C544.169 123.2 544.979 123.04 545.779 122.86C548.089 122.34 550.399 121.85 552.709 121.3C553.709 121.06 554.679 120.52 555.679 120.47C563.539 120.06 571.089 117.79 578.849 116.79C581.199 116.49 583.599 116.59 585.979 116.53C593.619 116.33 601.269 116.34 608.899 115.89C613.509 115.62 618.079 114.7 622.669 114.01C624.289 113.77 624.859 112.88 624.789 111.15C624.589 106.83 624.529 102.5 624.179 98.1902C623.789 93.4902 623.119 88.8102 622.619 84.1202C622.469 82.6902 622.509 81.2402 622.439 79.8002C622.249 75.8902 621.699 71.9702 621.929 68.0902C622.189 63.8102 620.989 59.8002 620.569 55.6502C620.509 55.0402 620.279 54.4502 620.139 53.8502C619.299 50.1102 620.079 49.7102 623.829 50.3502C627.879 51.0302 629.169 53.7402 629.599 56.9802C630.169 61.3402 631.989 65.5802 631.219 68.9002H631.259Z" fill="black"/>
<path d="M61.4497 34.01C68.5497 34.33 75.0497 34.52 81.5397 34.95C86.6297 35.29 91.3397 37.15 96.0697 38.96C105.49 42.57 113.04 48.77 119.64 56.08C123.76 60.65 127.22 65.82 130.9 70.78C132.8 73.34 134.53 76.03 136.36 78.65C139.16 82.66 140.81 87.24 142.76 91.66C143.92 94.28 144.86 97 145.86 99.69C146.56 101.58 146.79 101.79 148.77 101.65C149.48 101.6 150.2 101.43 150.88 101.23C151.82 100.94 152.73 100.56 153.65 100.22C153.72 101.21 153.93 102.22 153.83 103.19C153.77 103.81 153.41 104.61 152.91 104.95C151.91 105.65 150.77 106.24 149.61 106.6C148.25 107.02 147.76 107.79 147.99 109.12C148.7 113.16 149.43 117.2 150.11 121.25C150.26 122.16 150.4 123.11 150.28 124.01C149.48 130.12 149.54 136.33 147.94 142.34C147.83 142.74 147.86 143.18 147.69 143.55C145.26 149.06 143.57 154.88 139.68 159.74C136.46 163.76 133.46 167.95 129.43 171.23C126.31 173.77 123.05 176.24 119.23 177.59C115.75 178.81 112.13 179.83 108.49 180.36C100.96 181.46 93.4197 182.84 85.7297 182.29C85.0097 182.24 84.1597 182.39 83.5997 182.06C80.5497 180.21 77.0497 180.46 73.7597 179.75C71.7597 179.32 69.7497 178.78 67.8697 178C63.7897 176.3 59.7997 174.39 55.7597 172.62C52.1797 171.05 48.5297 169.65 44.9997 168.01C42.2997 166.75 39.6897 165.28 37.1097 163.79C35.2497 162.72 33.4597 161.53 31.7097 160.3C29.4397 158.7 27.2297 157.02 24.9997 155.36C24.7497 155.18 24.5297 154.95 24.3397 154.7C23.3597 153.43 23.4397 151.83 24.5297 150.79C25.5897 149.78 26.7197 149.8 28.0697 151C31.9997 154.51 36.0897 157.81 40.6297 160.51C42.7497 161.77 44.9997 162.81 47.1797 163.97C52.1697 166.64 57.0497 169.56 62.1897 171.92C66.6697 173.98 71.3497 175.77 76.1097 177.02C80.0597 178.06 84.2496 178.19 88.3397 178.63C92.3497 179.06 96.3597 178.61 100.37 178.55C100.78 178.55 101.22 178.59 101.61 178.48C106.17 177.25 110.92 176.63 115.25 174.66C117.02 173.86 118.8 172.89 120.26 171.64C123.7 168.68 127.01 165.57 130.25 162.4C133.75 158.97 135.82 154.61 138.03 150.31C140.37 145.76 141.12 140.73 142.63 135.95C143.63 132.79 143.49 129.23 143.56 125.84C143.67 120.57 142.93 115.37 141.79 110.22C141.32 108.11 140.71 107.74 138.52 108.13C136.7 108.46 134.9 108.91 133.07 109.16C125.22 110.27 117.38 111.63 109.39 111.02C108.36 110.94 107.32 111.03 106.29 110.99C102.9 110.86 99.5097 110.56 96.1197 110.58C89.3397 110.62 82.5697 110.95 75.8897 112.19C75.3897 112.28 74.8597 112.27 74.3497 112.29C68.1697 112.62 61.9997 113.07 55.8197 113.26C49.5497 113.46 43.3297 112.86 37.1897 111.54C36.1897 111.32 35.1597 111.23 34.1497 111.1C33.6397 111.03 33.0997 111.08 32.6097 110.96C31.5397 110.69 30.4997 110.06 30.6497 108.92C30.7497 108.18 31.5897 107.21 32.3097 106.96C33.7497 106.46 35.3297 106.18 36.8497 106.2C39.2097 106.23 41.5697 106.61 43.9297 106.82C46.3897 107.04 48.8497 107.34 51.3097 107.4C57.6097 107.56 63.8697 106.7 70.1397 106.45C74.9597 106.26 79.6597 104.99 84.4797 105.23C87.4797 105.38 90.3497 104.62 93.2897 104.4C95.8297 104.21 98.4197 104.72 100.98 104.76C106.95 104.86 112.93 104.9 118.9 104.86C120.54 104.86 122.17 104.45 123.8 104.28C128.29 103.81 132.78 103.34 137.28 102.93C139.77 102.7 140.23 102.26 139.47 99.82C138.52 96.78 137.25 93.84 136.27 90.81C133.26 81.5 127.34 73.95 121.47 66.37C120.08 64.58 118.75 62.74 117.36 60.95C113.65 56.18 109.26 52.17 104.01 49.13C100.89 47.32 97.8697 45.32 94.6697 43.67C92.5797 42.59 90.2897 41.77 87.9897 41.26C84.7897 40.55 81.5897 39.8 78.2297 39.75C74.6397 39.69 71.0597 39.12 67.4697 38.77C67.1597 38.74 66.8197 38.6 66.5497 38.69C63.8897 39.64 61.2397 38.62 58.5997 38.67C52.1097 38.79 45.6297 39.06 39.2097 40.23C34.4497 41.1 29.6097 41.48 24.8597 42.39C22.4697 42.85 20.1897 43.99 17.8997 44.91C17.3597 45.13 16.9097 45.65 16.5197 46.12C15.1297 47.76 14.8497 47.8 13.2497 46.41C11.6297 45 11.5897 44.31 12.9497 42.85C14.6597 41.01 17.0897 40.62 19.2597 39.72C23.5897 37.93 28.2097 37.32 32.8097 36.7C38.2197 35.98 43.5697 34.82 49.0597 34.7C53.3897 34.61 57.7097 34.22 61.4597 34L61.4497 34.01Z" fill="black"/>
<path d="M340.669 155.9C340.409 158.25 339.989 160.59 339.939 162.94C339.879 165.69 339.429 168.44 340.249 171.23C340.719 172.85 340.449 174.71 340.339 176.46C340.269 177.58 339.479 178.4 338.359 178.54C337.249 178.68 336.069 178.68 334.969 178.46C333.779 178.22 332.979 177.39 332.939 176.06C332.939 175.96 332.939 175.85 332.929 175.75C332.759 171.44 332.419 167.12 332.459 162.81C332.519 156.74 332.579 150.64 333.169 144.6C333.729 138.96 334.039 133.33 334.349 127.68C334.679 121.74 335.679 115.83 336.019 109.89C336.449 102.38 336.519 94.8498 336.719 87.3298C336.759 85.9898 336.689 84.6498 336.649 83.3098C336.469 77.7498 336.459 72.1798 336.049 66.6398C335.719 62.1398 334.889 57.6798 334.309 53.1998C333.889 49.9398 333.489 46.6698 333.119 43.3998C332.899 41.4598 333.939 40.6898 335.699 41.4398C339.169 42.9298 341.229 45.4498 341.049 49.3298C340.779 54.9498 342.239 60.3298 343.049 65.7998C344.909 68.4598 343.519 71.7098 344.619 74.5198C344.779 74.9198 344.399 75.5098 344.409 75.9998C344.429 78.4598 344.499 80.9198 344.549 83.3698C344.589 85.2898 344.699 87.2198 344.649 89.1398C344.539 93.5598 344.229 97.9798 344.229 102.4C344.229 108.48 344.009 114.53 342.569 120.47C342.499 120.77 342.349 121.11 342.439 121.37C342.729 122.21 343.119 123.01 343.459 123.83C343.939 123.22 344.569 122.68 344.889 121.99C348.549 114.16 351.819 106.17 354.289 97.8698C354.869 95.9098 355.789 94.0398 356.429 92.0898C357.539 88.6798 358.649 85.2598 359.589 81.7998C360.619 78.0298 361.499 74.2198 362.389 70.4098C362.899 68.2198 363.189 65.9598 363.799 63.7998C364.409 61.6298 365.189 59.4898 366.069 57.4098C367.529 53.9798 368.389 50.4098 369.089 46.7698C369.379 45.2698 369.889 43.7798 370.559 42.3998C371.419 40.6198 374.859 40.4598 376.579 42.0298C378.799 44.0498 378.829 46.7098 378.089 49.2098C376.629 54.1298 374.749 58.9198 373.179 63.8098C372.119 67.1098 371.159 70.4498 370.369 73.8198C368.479 81.8298 366.189 89.7298 363.439 97.4798C361.869 101.92 359.789 106.18 358.139 110.6C355.809 116.84 353.199 122.95 350.459 129.01C348.979 132.28 347.559 135.58 346.029 138.83C345.489 139.96 345.309 140.88 346.179 141.95C347.079 143.07 347.749 144.36 348.609 145.52C350.379 147.9 352.629 149.95 353.439 152.97C353.589 153.53 354.089 154.01 354.459 154.5C356.399 157.14 358.699 159.5 359.909 162.68C360.429 164.06 361.739 165.14 362.669 166.37C364.539 168.82 366.419 171.27 368.229 173.76C368.629 174.32 368.879 175.04 368.999 175.73C369.079 176.19 368.949 177.05 368.699 177.15C367.279 177.68 365.819 178.2 364.329 178.35C363.779 178.41 362.969 177.56 362.559 176.95C361.479 175.34 360.689 173.51 359.539 171.96C356.649 168.09 353.529 164.39 350.649 160.51C348.259 157.29 346.079 153.92 343.819 150.61C343.199 149.71 342.819 148.11 341.539 148.56C340.909 148.78 340.619 150.46 340.489 151.52C340.319 152.94 340.449 154.4 340.449 155.85C340.519 155.85 340.579 155.86 340.649 155.87L340.669 155.9Z" fill="black"/>
<path d="M913.939 158.35C911.419 158.17 908.95 158.1 906.78 156.61C906.61 156.5 906.39 156.36 906.21 156.38C903.13 156.73 901.06 154.51 898.58 153.37C897.02 152.66 895.949 151.5 895.479 149.75C895.139 148.48 894.399 147.32 893.879 146.09C893.639 145.54 893.449 144.95 893.319 144.37C893.159 143.67 893.169 142.93 892.979 142.25C892.039 138.8 890.639 135.39 891.979 131.73C891.489 126.72 892.289 121.72 892.049 116.71C891.939 114.39 892.019 112.09 893.049 109.86C893.489 108.92 893.15 107.63 893.21 106.5C893.57 99.8399 894.109 93.1799 894.179 86.5199C894.199 84.7299 894.589 83.1599 894.879 81.4899C895.129 80.0099 894.92 78.4199 894.71 76.9099C894.49 75.3599 894.219 73.8799 894.929 72.3699C895.499 71.1699 896.34 70.5999 897.65 70.9299C898.74 71.2099 899.839 71.5099 900.889 71.8999C903.929 73.0399 906.15 71.4699 905.4 68.2699C904.95 66.3599 905.709 65.2299 906.309 63.7199C907.419 60.9599 908.509 58.1199 908.999 55.2099C909.579 51.7899 911.82 49.6499 914.21 47.8099C916.91 45.7299 920.179 44.5499 923.759 44.8399C924.369 44.8899 924.999 44.9399 925.569 45.1499C926.519 45.4899 927.419 45.6599 928.479 45.7199C930.019 45.8099 931.539 46.7599 932.999 47.4799C933.339 47.6399 933.409 48.3399 933.609 48.7899C933.899 49.4399 934.03 50.3599 934.53 50.6799C935.85 51.5099 936.249 52.8899 937.099 53.9899C939.369 56.9499 939.339 60.4999 940.199 63.8199C938.929 65.8099 940.049 67.7299 940.349 69.6799C940.379 69.8799 940.369 70.0899 940.349 70.2999C940.169 72.9199 939.909 75.5399 939.809 78.1699C939.549 85.0599 939.119 91.9599 939.229 98.8399C939.309 103.75 939.21 108.66 939.03 113.55C938.85 118.34 937.919 123.11 937.259 127.88C936.919 130.32 936.549 132.76 936.039 135.16C935.439 137.97 934.719 140.76 933.919 143.52C933.739 144.16 932.999 144.61 932.609 145.21C932.059 146.07 931.419 146.93 931.129 147.88C929.389 153.56 925.439 156.95 919.699 157.59C917.759 157.81 915.839 158.1 913.909 158.36L913.939 158.35ZM913.859 153.9C918.119 153.96 918.609 153.83 920.859 150.66C922.039 149 922.93 147.13 923.83 145.3C926.16 140.53 927.109 135.35 927.989 130.2C928.649 126.37 928.939 122.47 929.349 118.59C929.749 114.82 930.359 111.05 930.419 107.28C930.509 101.63 930.009 95.9599 930.139 90.3199C930.239 85.9399 930.929 81.5699 931.319 77.1899C931.429 75.9099 931.319 74.5999 931.449 73.3199C931.669 70.9899 932.009 68.6599 932.219 66.3299C932.259 65.8799 931.999 65.3399 931.729 64.9299C930.889 63.6699 930.789 62.3999 931.729 61.2199C932.419 60.3499 932.179 59.7399 931.499 59.0999C930.399 58.0499 930.06 56.7399 929.78 55.2599C929.51 53.7999 928.779 52.3699 927.999 51.0799C927.059 49.5199 926.24 49.3099 924.65 50.2099C923.14 51.0699 921.82 52.2699 920.33 53.1799C918.1 54.5399 916.799 56.4199 916.059 58.9499C914.729 63.4799 913.279 67.9999 910.699 72.0399C909.929 73.2499 909.249 74.5299 908.719 75.8599C907.799 78.1899 906.57 80.2599 904.71 81.9899C904.06 82.5899 903.47 83.4999 903.33 84.3399C902.71 88.1199 901.95 91.8899 901.889 95.7299C901.839 99.0799 900.749 102.42 901.799 105.8C901.969 106.35 901.769 107.02 901.679 107.63C901.149 111.38 900.379 115.12 900.659 118.94C900.899 122.3 900.32 125.63 900.58 129.02C900.75 131.3 900.379 133.61 900.539 135.97C900.839 140.35 902.339 144.33 903.789 148.36C904.289 149.76 905.239 150.81 906.559 151.57C908.899 152.92 911.28 154.11 913.84 153.92L913.859 153.9Z" fill="black"/>
<path d="M240.84 46.9399C243.18 47.2499 245.51 47.6099 247.86 47.8599C249.07 47.9899 250.31 48.1199 251.4 47.1999C252.6 46.1899 253.83 46.4499 255.09 47.2999C257.81 49.1199 259.9 51.3399 261.22 54.4299C262.86 58.2899 264.99 61.9499 266.65 65.8099C267.53 67.8499 267.86 70.1199 268.43 72.2899C269.62 76.8799 269.03 81.4799 268.42 86.0699C268.31 86.8799 268.17 87.6999 267.89 88.4599C266.1 93.4199 262.82 97.3499 259 100.85C257.97 101.79 256.59 102.38 255.34 103.06C253.72 103.94 252.9 105.28 252.98 107.09C253.06 109.03 253.29 110.96 253.37 112.9C253.46 115.34 253.54 117.79 253.47 120.23C253.34 124.68 254.11 129.03 254.52 133.43C254.89 137.42 255.25 141.4 255.81 145.38C256.13 147.67 255.89 150.06 256.01 152.41C256.15 155.29 256.3 158.12 256.95 160.98C257.58 163.76 257.52 166.69 257.84 169.55C258.13 172.2 258.38 174.87 258.89 177.49C259.94 182.91 257.97 184.86 252.56 183.6C251.63 183.38 251.13 182.83 250.99 181.93C250.8 180.71 250.56 179.49 250.48 178.27C250.23 174.37 250.13 170.45 249.8 166.56C249.36 161.45 248.71 156.35 248.22 151.24C247.88 147.69 247.78 144.11 247.32 140.58C246.01 130.54 246 120.45 246 110.36C246 109.84 246.02 109.32 245.96 108.81C245.64 106.26 244.94 104.27 241.86 103.56C238.14 102.71 234.84 100.81 231.93 98.1699C227.99 94.5799 224.93 90.3899 222.56 85.6599C222.33 85.1999 222.32 84.6199 222.03 84.2099C219.84 81.1499 219.82 77.6699 219.96 74.1299C220.04 72.2799 219.99 70.4099 219.97 68.5599C219.93 65.1499 221.09 62.1799 222.88 59.2899C224.73 56.2899 227.11 53.7899 229.42 51.1899C232.07 48.1999 235.31 46.8299 239.3 47.1599C239.81 47.1999 240.33 47.1599 240.85 47.1599C240.86 47.0899 240.87 47.0199 240.88 46.9499L240.84 46.9399ZM243.14 78.1799L243.56 78.1499C243.46 77.5499 243.33 76.9399 243.25 76.3399C242.93 73.6999 242.58 71.0599 242.32 68.4099C242.04 65.5499 241.92 62.6699 241.58 59.8199C241.35 57.8899 240.91 55.9799 240.48 54.0799C240.18 52.7499 239.74 52.5999 238.53 53.1699C238.16 53.3499 237.76 53.5199 237.46 53.7899C233.82 57.0399 230.69 60.7099 228.63 65.1599C227.04 68.5799 227.07 72.1999 227.29 75.9399C227.56 80.5899 229.79 84.4199 231.83 88.2599C233.34 91.0999 235.86 93.4399 238.07 95.8699C239.17 97.0799 240.54 98.0399 242.34 98.0899C243.43 98.1199 244.17 97.8599 244.14 96.5799C244.11 95.1399 244.18 93.6899 244.09 92.2499C243.8 87.5599 243.47 82.8699 243.15 78.1799H243.14ZM251.33 80.1199L250.72 80.1999C251.22 85.0899 251.72 89.9899 252.24 94.8799C252.38 96.2099 253.16 96.6399 254.07 95.7699C255.7 94.2199 257.37 92.6299 258.63 90.7899C261.38 86.7699 261.32 81.9699 261.35 77.4299C261.37 74.9199 261.48 72.0399 259.85 69.6799C259.79 65.4699 256.56 62.4499 255.61 58.5499C255.42 57.7599 254.52 57.0299 253.77 56.5299C252.5 55.6899 251.11 55.0399 249.74 54.3399C248.96 53.9399 248.58 54.3799 248.51 55.1199C248.45 55.7299 248.43 56.3599 248.49 56.9699C248.96 61.4499 249.43 65.9299 249.97 70.4099C250.36 73.6499 250.87 76.8799 251.32 80.1199H251.33Z" fill="black"/>
<path d="M188.52 165.31C188.46 161.73 188.45 158.14 188.33 154.56C188.12 148.18 187.94 141.8 187.54 135.43C187.43 133.68 187.42 132.01 187.71 130.29C188.24 127.16 187.78 124.03 187.7 120.9C187.56 115.14 187.64 109.38 187.63 103.62C187.63 103.1 187.62 102.58 187.67 102.07C187.86 100.36 187.03 99.3502 185.48 98.7802C185 98.6002 184.55 98.3102 184.06 98.1602C178.45 96.4502 174.25 92.7602 170.17 88.7502C166.52 85.1602 163.6 81.0802 161.19 76.6602C158.72 72.1102 157.63 67.0402 158.6 62.0002C159.34 58.1902 160 54.0202 163.42 51.2602C168.08 47.5202 172.6 43.5302 178.92 42.8002C179.32 42.7502 179.7 42.5102 180.1 42.4202C181.38 42.1402 182.1 41.6602 181.68 40.0702C181.35 38.8302 182.01 38.2902 183.18 38.6502C185.29 39.2902 187.23 40.2102 188.15 42.4502C189.12 44.8302 190.81 45.6602 193.46 45.4702C197.22 45.1902 200.54 46.5002 203.17 49.3702C204.07 50.3502 205.22 51.0802 206.24 51.9502C208.78 54.1202 209.71 57.4602 211.96 59.8502C212.28 60.1902 212.28 60.8102 212.46 61.2902C213.2 63.3002 213.97 65.3102 214.7 67.3302C215.47 69.4602 216.4 71.5502 216.28 73.8902C216.26 74.3002 216.18 74.7502 216.31 75.1202C218.2 80.5002 215.26 84.9402 213.5 89.6002C213.22 90.3302 212.54 90.9302 211.96 91.5102C210.28 93.1802 208.59 94.8302 206.84 96.4302C205.01 98.1102 202.51 98.2302 200.31 99.0702C200.03 99.1802 199.7 99.1602 199.4 99.2402C195.67 100.17 195.12 100.72 195.22 104.47C195.41 111.47 195.85 118.45 196.03 125.45C196.24 133.57 196.3 141.69 196.38 149.82C196.43 154.67 196.25 159.53 196.43 164.37C196.58 168.56 197.15 172.74 197.43 176.94C197.59 179.31 197.54 181.69 197.58 184.06C197.6 185.32 196.98 186.02 195.71 185.99C194.69 185.97 193.61 185.97 192.65 185.67C191.13 185.2 190.12 184.45 190.01 182.44C189.71 177.12 189.03 171.82 188.52 166.52C188.48 166.12 188.59 165.71 188.64 165.31C188.6 165.31 188.56 165.31 188.52 165.31ZM165.23 65.3202C164.93 68.4902 166.37 73.6202 167.85 76.5902C170.73 82.3602 175.15 86.8002 180.14 90.6902C181.56 91.8002 183.4 92.4602 185.15 93.0302C186.5 93.4702 187.03 92.7802 186.8 91.4002C186.62 90.2902 186.38 89.1702 186.37 88.0502C186.32 84.9602 186.39 81.8602 186.37 78.7602C186.37 77.9502 186.39 77.0502 186.07 76.3302C184.91 73.7102 184.83 71.0102 185.09 68.2302C185.18 67.2202 185.17 66.1102 184.83 65.1802C184.07 63.0902 184 60.9502 183.9 58.7902C183.74 55.4302 183.56 52.0802 183.33 48.7202C183.21 46.8902 182.44 46.3502 180.7 46.6602C171.07 48.3902 165.01 57.4602 165.24 65.2902L165.23 65.3202ZM209.63 77.2002C209.26 74.5302 209.38 71.6102 208.41 69.1002C206.5 64.1802 204.91 59.1302 201.11 55.0002C198.26 51.9102 195.18 49.6902 191.32 48.3602C189.83 47.8402 189.34 48.2102 189.53 49.6502C189.81 51.7802 190.17 53.9002 190.51 56.0202C191 59.0602 191.6 62.0802 191.97 65.1302C192.49 69.4002 192.83 73.7002 193.28 77.9802C193.42 79.3002 193.7 80.6102 193.86 81.9302C194.28 85.2802 194.62 88.6502 195.09 92.0002C195.33 93.7302 195.85 94.0302 197.59 93.6402C199.93 93.1202 202.09 92.1202 203.95 90.6402C206.14 88.9002 208.17 86.9202 208.73 84.0102C209.15 81.8002 209.33 79.5502 209.64 77.1902L209.63 77.2002Z" fill="black"/>
<path d="M657.089 154.38C656.159 153.02 656.749 151.51 657.529 149.99C657.659 149.75 657.679 149.36 657.579 149.1C656.349 145.87 658.329 143.17 659.019 140.26C659.079 139.99 659.529 139.66 659.459 139.53C658.459 137.57 659.799 135.72 659.739 133.8C659.689 132.1 660.249 130.38 660.529 128.66C660.689 127.66 660.829 126.65 660.949 125.64C661.489 121.01 661.219 116.3 662.989 111.81C663.749 109.87 663.869 107.71 663.539 105.52C662.969 101.79 663.829 98.1499 664.969 94.6099C665.219 93.8399 665.799 93.2399 665.389 92.3599C665.309 92.1899 665.269 91.8599 665.369 91.7599C667.059 89.9899 665.779 87.9299 665.959 86.0199C666.049 84.9999 666.049 83.9299 666.389 82.9899C667.469 79.9999 668.749 77.0899 669.819 74.0899C670.359 72.5599 670.509 70.8999 670.999 69.3499C671.829 66.7399 672.789 64.1699 673.709 61.5799C674.119 60.4399 674.559 59.2999 675.009 58.1699C675.299 57.4399 675.449 56.2999 675.959 56.0999C677.149 55.6299 678.579 55.3099 679.819 55.5099C681.699 55.8099 682.799 57.2699 683.229 59.1199C683.579 60.6199 683.779 62.1599 684.129 63.6599C685.269 68.5599 686.559 73.4299 687.559 78.3599C688.369 82.3799 688.809 86.4699 689.499 90.5099C689.859 92.6199 690.409 94.6899 690.859 96.7799C692.119 102.59 693.349 108.4 694.629 114.21C694.899 115.41 695.439 116.55 695.689 117.76C696.569 121.96 697.339 126.19 698.219 130.4C698.639 132.4 699.199 134.37 699.709 136.34C699.989 137.44 700.519 138.52 700.539 139.62C700.599 143.81 702.489 147.57 703.179 151.61C703.569 153.91 704.439 156.14 705.169 158.37C705.759 160.17 705.099 161.3 703.289 161.05C702.069 160.88 700.969 160.62 699.679 160.97C698.339 161.33 697.389 160.16 697.009 158.64C695.969 154.46 694.839 150.3 693.699 146.15C693.349 144.88 692.549 144.29 691.129 144.66C689.659 145.04 688.169 145.38 686.659 145.55C685.449 145.69 684.199 145.59 682.979 145.53C681.959 145.48 680.929 145.14 679.929 145.23C677.379 145.46 674.849 145.92 672.309 146.17C671.319 146.26 670.279 146.1 669.289 145.92C666.709 145.46 665.129 146.48 664.699 149.14C664.399 150.96 664.279 152.8 664.089 154.63C664.039 155.14 664.209 155.8 663.939 156.15C662.259 158.37 662.979 161.12 662.199 163.53C661.949 164.3 661.859 165.23 661.369 165.8C660.909 166.33 659.969 166.83 659.309 166.75C656.639 166.42 655.699 164.86 656.129 162.27C656.549 159.76 656.759 157.21 657.099 154.39L657.089 154.38ZM682.159 139.93C684.249 139.77 686.299 139.64 688.339 139.43C688.939 139.37 689.529 139.09 690.109 138.89C691.009 138.57 691.419 137.95 691.249 136.98C690.619 133.25 690.419 129.38 689.259 125.82C687.999 121.96 687.879 117.79 685.919 114.14C685.739 113.81 685.849 113.33 685.789 112.92C685.499 110.9 685.269 108.87 684.879 106.87C684.409 104.46 683.869 102.06 683.239 99.6899C682.429 96.6099 682.129 93.4099 681.079 90.3799C680.889 89.8299 681.139 88.9699 681.469 88.4199C682.329 86.9899 682.209 85.7699 681.249 84.4299C680.729 83.7099 680.219 82.7299 680.269 81.9099C680.479 78.7099 679.069 75.9099 678.279 72.9599C678.209 72.6999 677.919 72.2699 677.799 72.2899C677.439 72.3599 676.939 72.5199 676.789 72.7999C676.219 73.8899 675.639 74.9999 675.289 76.1599C674.849 77.6299 674.729 79.1899 674.299 80.6599C672.379 87.2899 672.069 94.1899 670.939 100.95C670.349 104.48 669.959 108.05 669.509 111.61C669.279 113.43 669.159 115.27 668.929 117.1C668.579 119.83 668.129 122.55 667.789 125.29C667.319 129.05 666.929 132.82 666.479 136.59C666.369 137.5 666.009 138.39 665.969 139.3C665.899 140.78 666.469 141.36 667.959 141.45C668.569 141.49 669.219 141.47 669.799 141.3C673.869 140.16 677.969 139.41 682.159 139.94V139.93Z" fill="black"/>
<path d="M285.11 144.87C285.11 140.84 285.5 136.77 285.01 132.8C284.38 127.74 284.47 122.69 284.72 117.67C284.91 113.79 285.41 109.88 285.08 106.03C283.98 93.1498 284.89 80.2498 284.64 67.3698C284.57 63.7198 285.53 60.2398 286.02 56.6898C286.23 55.1898 286.13 53.6498 286.09 52.1298C286.05 50.5898 285.9 49.0498 285.83 47.5098C285.76 46.1598 285.58 44.8498 287.49 44.3998C288.44 44.1698 288.22 43.1698 288 42.2898C287.37 39.6798 288.21 38.6698 290.89 38.6398C294.28 38.6098 297.67 38.5898 301.06 38.6398C302.29 38.6598 303.51 38.8898 304.74 38.9798C305.77 39.0598 306.94 39.4098 307.8 39.0498C310.13 38.0698 312.03 39.4098 314.08 39.8598C314.93 40.0398 315.71 42.4698 315.06 42.9698C314.12 43.6998 312.99 44.4598 311.85 44.6198C309.96 44.8798 308 44.7498 306.07 44.6698C302.88 44.5298 299.7 44.2298 296.51 44.1198C293.17 43.9998 292.3 45.0098 293.53 48.1198C294.37 50.2398 294.56 52.3298 294.39 54.4698C294.18 57.2198 293.69 59.9598 293.35 62.6998C293.25 63.5198 293.21 64.3498 293.21 65.1698C293.19 76.5298 293.15 87.8798 293.2 99.2298C293.21 102.31 293.61 105.39 293.62 108.47C293.62 111.96 293.34 115.46 293.27 118.95C293.16 124.51 292.79 130.08 293.8 135.61C293.87 136.01 293.8 136.43 293.78 136.84C293.69 138.92 294.04 139.26 296 139.61C300.41 140.39 304.85 140.15 309.29 140.08C310.2 140.07 311.11 139.63 312.02 139.63C312.67 139.63 313.66 139.83 313.89 140.27C314.22 140.88 314.28 142 313.91 142.53C313.36 143.32 312.42 144 311.5 144.31C310.15 144.77 308.69 145.01 307.26 145.08C303.45 145.25 299.64 145.48 295.85 144.56C293.77 144.06 293.23 144.61 293.22 146.7C293.21 152.17 292.93 157.66 293.34 163.11C293.64 167.16 294.68 171.2 296.89 174.76C298.47 177.31 300.59 178.79 303.79 178.6C306.26 178.46 308.76 178.55 311.24 178.69C314.42 178.88 317.39 178.01 320.32 177.04C321.35 176.7 322.23 175.86 323.11 175.16C324.64 173.96 325.3 174 326.39 175.52C326.69 175.94 326.92 176.41 327.14 176.87C327.52 177.64 327.44 178.28 326.52 178.58C323.6 179.52 320.8 180.73 317.67 181.14C313.75 181.66 309.85 181.57 305.93 181.68C302.57 181.77 299.31 181.2 296.18 180.25C294.07 179.61 292.19 178.16 290.26 176.99C289.88 176.76 289.68 176.17 289.5 175.7C288.35 172.73 287.2 169.75 286.11 166.76C285.9 166.2 285.89 165.55 285.87 164.93C285.57 158.24 285.28 151.54 284.99 144.85C285.03 144.85 285.07 144.85 285.11 144.85V144.87Z" fill="black"/>
<path d="M720.44 156.3C720.79 153.14 721.18 149.98 721.49 146.81C721.96 141.97 721.95 137.15 720.96 132.36C720.83 131.76 720.61 131.15 720.63 130.55C720.78 125.88 719.64 121.38 718.9 116.82C718.5 114.4 718.28 111.93 718.18 109.47C718.07 106.58 717.66 103.76 717.15 100.92C716.92 99.6601 717.43 98.2801 717.39 96.9601C717.3 93.9901 716.95 91.0201 716.94 88.0401C716.94 84.8901 717.31 81.7501 717.32 78.6001C717.32 76.4501 716.87 74.3101 716.86 72.1601C716.84 69.2101 716.91 66.2501 717.19 63.3201C717.63 58.6401 719.93 54.7801 723.01 51.3301C723.49 50.7901 723.81 50.1201 724.33 49.6301C724.82 49.1701 725.44 48.7701 726.07 48.5301C727.02 48.1601 728.02 47.9501 729.01 47.6801C729.5 47.5501 730.01 47.3001 730.5 47.3301C736.95 47.8001 743.13 49.2401 748.5 53.0501C753.44 56.5501 756.92 61.0901 757.86 67.2501C760.24 71.3101 758.56 74.9501 756.67 78.5601C756.39 79.1001 756.1 79.7401 755.62 80.0701C752.6 82.1501 749.9 84.6201 746.63 86.4201C742.93 88.4501 738.78 88.7401 734.97 90.3001C732.7 91.2301 729.92 90.9601 727.36 91.1601C725.31 91.3301 725.11 91.5401 725.35 93.5301C725.63 95.8701 725.87 98.2201 726.12 100.56C726.14 100.76 726.19 101 726.12 101.18C725.11 103.82 726.3 106.44 726.2 109.07C726.18 109.58 726.1 110.19 726.33 110.59C727.69 112.94 727.2 115.56 727.35 118.03C727.58 121.8 727.81 125.52 728.81 129.21C729.5 131.73 729.76 134.43 729.79 137.05C729.83 140.43 729.54 143.81 729.21 147.18C729.07 148.57 728.33 149.9 728.1 151.3C727.85 152.78 727.54 154.22 727.94 155.82C728.4 157.69 726.05 160.78 724.12 161.16C722.14 161.55 720.43 161.5 720.57 158.46C720.6 157.74 720.57 157.02 720.57 156.29C720.53 156.29 720.49 156.29 720.46 156.28L720.44 156.3ZM729.34 84.4501C729.34 84.4501 729.34 84.4101 729.34 84.3801C730.06 84.3801 730.85 84.5801 731.49 84.3501C736.08 82.6901 741.12 81.8901 744.43 77.7201C744.93 77.0901 745.7 76.6901 746.32 76.1501C746.78 75.7501 747.34 75.3601 747.59 74.8401C749.17 71.6001 749.99 68.2701 748.3 64.7901C747.4 62.9501 746.57 61.0801 745.5 59.3401C743.96 56.8201 741.99 54.8001 738.79 54.4201C737.17 54.2301 735.58 53.7501 733.96 53.5601C733.29 53.4801 732.5 53.6601 731.9 53.9901C729.72 55.1901 727.94 56.5901 727.1 59.2601C726.27 61.9001 725.24 64.4001 725.5 67.2401C725.55 67.8201 725.24 68.4301 725.17 69.0401C725.08 69.8501 724.94 70.6701 725.02 71.4701C725.32 74.2601 725.52 77.0301 725.07 79.8401C724.58 82.9001 725.98 84.4601 729.02 84.4501C729.12 84.4501 729.23 84.4501 729.33 84.4501H729.34Z" fill="black"/>
<path d="M844.76 152.95C844.58 148.32 844.26 143.69 844.27 139.07C844.29 134.13 844.3 129.15 844.91 124.27C845.71 117.92 845.95 111.56 846.12 105.18C846.22 101.29 846.84 97.4102 847.11 93.5102C847.27 91.1402 847.26 88.7602 847.22 86.3902C847.15 81.4402 847.29 76.5202 848.54 71.6702C849 69.9002 848.98 68.0102 849.18 66.1702C849.32 64.8502 849.43 63.5202 849.63 62.2102C849.94 60.2102 849.53 59.5402 847.68 59.0202C846.42 58.6702 845.21 58.0502 843.93 57.8702C841.84 57.5702 839.84 56.9002 837.56 57.5802C835.7 58.1302 833.46 58.3502 831.62 56.8502C831.27 56.5702 830.52 56.4002 830.17 56.5802C828.52 57.4502 827.44 56.2802 826.24 55.6102C825.27 55.0702 824.33 54.4702 823.4 53.8602C821.81 52.8002 821.91 51.7202 823.47 50.7102C825.29 49.5402 827.04 49.8502 828.67 50.8202C829.75 51.4602 830.75 51.4102 831.89 51.4502C835.2 51.5602 838.58 50.1802 841.81 51.9002C844.83 51.6202 848.02 52.9902 850.81 50.4002C852.05 49.2502 853.74 48.8302 855.77 50.2202C857.71 51.5402 860.37 51.9102 862.87 51.1902C866.9 50.0302 870.91 48.8002 874.94 47.6602C875.82 47.4102 876.76 47.2802 877.67 47.2902C879.65 47.3002 881.52 47.2202 883.39 46.2902C885.28 45.3502 888.85 46.5602 890.14 48.2202C890.9 49.2102 889.98 51.3502 888.49 51.9602C888.12 52.1102 887.69 52.1502 887.28 52.1702C883.08 52.3502 879.25 53.8402 875.45 55.4402C872.49 56.6902 869.45 57.5602 866.21 57.7302C865.31 57.7802 864.42 58.1302 863.53 58.3202C863.05 58.4202 862.55 58.5702 862.09 58.5102C859.8 58.2102 858.06 59.3702 857.87 61.5502C857.43 66.5202 856.8 71.5002 856.77 76.4802C856.76 79.0502 856.64 81.5102 856.03 83.9802C855.86 84.6702 855.89 85.4202 855.9 86.1402C855.96 90.2602 855.46 94.3102 854.76 98.3702C854.42 100.37 854.57 102.5 854.78 104.55C855.22 108.65 854.61 112.69 854.39 116.75C854.21 120.11 853.86 123.47 853.7 126.83C853.59 129.14 854.75 131.5 853.54 133.76C853.85 138.78 852.97 143.83 853.61 148.8C853.96 151.52 853.54 154.09 853.43 156.73C853.34 159.11 853.04 159.42 850.71 160.22C850.22 160.39 849.74 160.61 849.24 160.68C845.44 161.25 844.65 160.55 844.67 156.68C844.67 155.44 844.67 154.2 844.67 152.96C844.7 152.96 844.72 152.96 844.75 152.96L844.76 152.95Z" fill="black"/>
<path d="M415.629 46.6699C413.459 46.6699 411.289 46.6999 409.109 46.6699C407.739 46.6499 406.989 47.1999 406.839 48.6099C406.729 49.7299 406.329 50.8299 406.299 51.9399C406.179 57.1499 406.079 62.3599 406.079 67.5699C406.079 72.8999 406.229 78.2299 406.299 83.5599C406.299 84.1799 406.479 84.8699 406.259 85.4099C404.479 89.7099 405.989 94.1599 405.599 98.4899C405.049 104.65 404.799 110.81 405.089 116.98C405.219 119.74 405.649 122.48 405.879 125.24C405.949 126.02 405.839 126.83 405.719 127.6C405.559 128.6 405.039 129.61 405.129 130.58C405.379 133.45 404.919 136.26 404.739 139.09C404.609 141 405.159 142.95 405.259 144.89C405.409 147.66 405.499 150.43 405.459 153.2C405.429 155.46 405.019 157.71 405.039 159.97C405.079 163.83 404.549 167.53 402.929 171.08C402.339 172.37 402.179 173.86 401.689 175.21C401.179 176.59 398.549 178.14 397.179 177.87C396.829 177.8 396.389 177.19 396.339 176.79C396.229 175.77 396.229 174.72 396.369 173.7C397.099 168.31 398.139 162.94 398.569 157.52C398.939 152.81 398.699 148.04 398.619 143.3C398.569 140.32 398.289 137.35 398.189 134.37C397.989 128.5 397.849 122.64 397.679 116.77C397.659 115.95 397.639 115.12 397.679 114.29C397.839 111 398.109 107.72 398.179 104.44C398.409 94.3399 398.579 84.2499 398.719 74.1499C398.739 72.4099 398.469 70.6699 398.339 68.9299C398.309 68.5199 398.189 68.0799 398.289 67.6999C398.969 64.8299 398.169 61.9799 398.229 59.1299C398.259 57.3899 398.569 55.6599 398.679 53.9199C398.789 52.2699 398.869 50.6199 398.849 48.9699C398.819 46.6199 398.319 46.1399 395.879 46.0599C394.429 46.0099 392.959 45.9199 391.539 46.1299C389.889 46.3699 388.279 46.1199 386.659 46.1099C383.509 46.0999 381.559 44.0799 379.559 42.2099C378.199 40.9399 378.649 39.4899 380.419 39.0199C381.499 38.7299 382.659 38.5999 383.769 38.6299C387.139 38.6999 390.509 38.9599 393.879 38.9899C395.719 39.0099 397.579 38.5199 399.409 38.5899C403.719 38.7599 408.029 39.1299 412.329 39.4199C413.559 39.4999 414.789 39.6999 416.019 39.7099C418.609 39.7299 421.149 39.7699 423.359 41.4699C423.979 41.9399 424.899 42.2999 425.649 42.2399C427.129 42.1399 428.199 42.8499 429.339 43.5299C429.649 43.7199 429.919 43.9699 430.209 44.1899C429.879 44.3899 429.569 44.6299 429.229 44.7899C426.489 46.1099 423.599 46.6999 420.549 46.6299C418.899 46.5899 417.239 46.6299 415.589 46.6299V46.6599L415.629 46.6699Z" fill="black"/>
<path d="M773.75 158.33C772.86 158.09 771.93 157.96 771.1 157.59C768.98 156.64 768.73 155.86 769.66 153.73C772.54 147.15 775.41 140.57 778.29 133.99C779.51 131.2 780.78 128.43 781.98 125.63C783.51 122.05 785.01 118.45 786.49 114.85C788.56 109.82 790.64 104.79 792.65 99.74C793.48 97.64 794.1 95.46 794.89 93.34C796 90.38 797.2 87.46 798.32 84.51C798.56 83.86 798.71 83.14 798.73 82.45C798.77 81.51 798.24 80.87 797.27 80.76C792.89 80.28 789.76 77.37 786.62 74.83C782.39 71.41 778.48 67.56 774.75 63.6C772.66 61.38 771.18 58.58 769.47 56.01C768.79 54.99 768.66 53.82 769.41 52.83C770.16 51.83 771.2 52.23 772.24 52.51C775.82 53.46 778.52 55.4 780.12 58.82C780.5 59.64 781.16 60.36 781.81 61C785.3 64.49 788.78 68.02 792.38 71.4C794.1 73.01 796.07 74.36 797.96 75.78C800.06 77.35 801.48 76.89 802.41 74.39C803.16 72.37 803.86 70.33 804.66 68.33C806.46 63.85 808.28 59.37 810.18 54.92C810.57 54 811.3 53.21 811.91 52.39C812.09 52.16 812.38 51.96 812.65 51.85C814.07 51.31 818.26 52.77 818.91 54.15C819.18 54.74 819.3 55.63 819.05 56.18C817.79 58.96 816.26 61.62 815.07 64.43C814.37 66.11 814.13 67.98 813.69 69.76C812.91 72.96 811.81 75.95 809.89 78.74C808.38 80.94 806.5 83.1 806.73 86.25C806.83 87.64 805.79 89.13 805.23 90.55C804.93 91.3 804.43 91.99 804.22 92.76C802.51 99.08 799.89 105.08 797.71 111.23C796.39 114.96 794.87 118.63 793.57 122.38C792.5 125.45 790.94 128.36 789.54 131.3C788.26 133.97 786.95 136.54 785.11 138.98C783.21 141.49 782.59 144.95 781.38 147.98C780.31 150.64 779.27 153.32 778.07 155.92C777.26 157.68 775.78 158.54 773.72 158.31L773.75 158.33Z" fill="black"/>
</svg>
