<svg width="950" height="220" viewBox="0 0 950 220" fill="none" xmlns="http://www.w3.org/2000/svg">
<path d="M215.989 125.5C215.079 125.5 214.159 125.47 213.249 125.5C210.949 125.59 208.839 125.02 206.879 123.83C204.929 122.64 202.859 121.96 200.549 122.38C198.709 122.72 197.189 121.83 195.629 121.14C195.299 121 195.059 120.61 194.839 120.3C194.729 120.15 194.799 119.87 194.689 119.72C191.269 115.27 193.049 110.54 193.889 105.85C194.099 104.67 195.299 103.58 194.309 102.26C193.749 103.29 193.199 104.33 192.639 105.36C189.309 111.49 185.559 117.3 180.999 122.64C177.819 126.36 174.449 129.82 170.369 132.46C164.809 136.06 158.929 138.97 152.039 138.86C150.559 138.84 149.819 139.53 149.349 140.8C148.319 143.53 147.269 146.26 146.169 148.97C145.749 149.99 145.219 150.97 144.609 151.89C144.389 152.23 143.719 152.55 143.379 152.45C143.019 152.35 142.549 151.73 142.559 151.35C142.599 149.45 142.669 147.54 142.939 145.66C143.159 144.07 143.709 142.53 144.039 140.95C144.379 139.27 144.069 138.85 142.399 138.33C139.799 137.53 137.229 136.61 134.599 135.91C131.459 135.07 128.859 133.22 126.669 131.08C123.939 128.43 122.269 125.14 123.299 120.97C124.209 117.27 124.729 113.47 125.449 109.72C125.559 109.13 125.799 108.56 125.959 107.98C126.599 105.65 127.259 103.33 127.869 100.99C129.109 96.2101 131.339 91.9901 134.819 88.4301C138.299 84.8801 141.959 81.5801 146.349 79.1601C147.249 78.6601 148.209 77.8201 149.029 78.8201C149.809 79.7701 150.739 81.1401 150.589 82.1701C150.219 84.7001 149.669 87.1801 147.549 89.1901C143.529 93.0101 139.789 97.1301 136.039 101.22C134.609 102.77 133.369 104.51 132.199 106.27C131.109 107.9 131.209 108.98 132.489 110.35C134.839 112.85 137.149 115.34 140.659 116.42C142.889 117.11 145.059 117.02 147.259 116.84C148.469 116.74 149.459 115.99 149.829 114.6C150.479 112.17 151.229 109.76 152.009 107.37C152.979 104.4 153.949 101.44 155.069 98.5201C155.529 97.3301 155.859 96.2701 155.279 95.0501C154.729 93.8901 154.869 92.7301 155.299 91.5301C155.739 90.3001 156.189 89.0301 156.319 87.7401C156.689 84.2301 158.699 81.3701 159.909 78.1901C160.699 76.0901 161.419 76.0301 163.669 77.0501C164.029 77.2201 164.409 77.4801 164.779 77.4801C169.099 77.5001 173.319 78.6401 177.749 77.7901C181.869 77.0001 186.169 77.0501 190.389 77.5401C194.669 78.0401 197.449 81.0401 197.209 85.2701C197.039 88.2601 196.299 91.2201 195.809 94.2001C195.759 94.5001 195.539 94.7901 195.569 95.0701C195.629 95.6201 195.809 96.1501 195.939 96.6901C196.379 96.3501 196.899 96.0801 197.239 95.6601C197.739 95.0401 198.119 94.3101 198.539 93.6201C200.029 91.2101 201.549 88.9601 204.249 87.5401C206.139 86.5501 207.629 84.7801 209.309 83.3801C209.849 82.9301 210.429 82.5101 211.049 82.1901C211.929 81.7401 212.429 82.0301 212.259 83.0701C212.179 83.5701 211.809 84.1601 211.979 84.5201C213.339 87.4101 211.229 88.7801 209.519 90.3201C206.059 93.4301 202.859 96.7601 200.329 100.69C200.279 100.77 200.199 100.85 200.149 100.93C198.639 103.51 199.449 105.49 202.239 106.61C207.729 108.82 213.479 109.79 219.329 110.31C220.729 110.44 222.129 110.76 223.529 110.8C225.529 110.86 227.039 109.95 227.869 108.07C228.239 107.24 228.569 106.4 228.889 105.55C230.439 101.39 232.099 97.2701 233.489 93.0701C234.559 89.8301 235.199 86.4601 236.169 83.1901C237.099 80.0401 238.069 76.9401 238.479 73.6301C238.839 70.6301 240.539 69.6501 243.639 69.6401C246.169 69.6401 248.749 69.3801 251.239 69.7401C260.449 71.0701 265.209 73.2701 268.589 81.6701C269.439 83.7801 269.699 86.0501 269.279 88.4801C268.669 92.0001 267.749 95.3501 266.159 98.5501C265.359 100.16 264.909 101.95 264.289 103.65C262.469 108.66 259.129 112.44 254.909 115.63C248.709 120.32 241.529 122.65 234.159 124.58C233.289 124.81 232.349 124.85 231.449 124.83C229.399 124.78 228.319 125.74 227.779 127.69C226.239 133.27 223.669 138.43 221.009 143.54C220.219 145.06 219.279 146.5 218.309 147.92C218.019 148.34 217.419 148.55 216.959 148.85C216.679 148.25 216.119 147.61 216.189 147.05C216.339 145.87 216.779 144.72 217.159 143.58C218.209 140.44 219.269 137.3 220.359 134.18C220.989 132.38 221.759 130.63 222.349 128.83C223.219 126.19 222.729 125.54 219.969 125.47C219.259 125.45 218.549 125.49 217.839 125.5C217.229 125.5 216.619 125.5 216.019 125.5H215.989ZM158.369 118.83C159.869 118.45 162.119 117.9 164.349 117.29C165.789 116.89 167.269 116.53 168.619 115.91C172.799 114.02 176.349 111.17 179.569 108C182.499 105.11 185.159 101.93 187.759 98.7301C189.129 97.0401 188.749 96.1401 186.649 95.4401C185.409 95.0301 184.089 94.5901 182.819 94.6301C177.889 94.7901 172.959 95.1201 168.029 95.4201C166.829 95.4901 165.629 95.6901 164.419 95.7701C161.069 95.9901 160.119 96.5101 159.269 99.6901C157.809 105.12 156.529 110.61 155.309 116.1C154.809 118.35 155.329 118.82 158.359 118.83H158.369ZM247.169 85.9601C245.929 85.9601 245.019 85.9801 244.109 85.9601C242.749 85.9301 241.719 86.5101 241.189 87.7301C238.929 92.8601 235.729 97.6101 234.729 103.27C234.519 104.45 233.969 105.58 233.789 106.77C233.499 108.72 233.919 108.99 235.859 108.7C240.229 108.04 244.179 106.35 247.969 104.17C252.089 101.8 256.309 99.6001 259.479 95.9201C260.749 94.4501 260.879 93.6501 259.669 92.2401C256.299 88.3301 252.289 85.6701 247.169 85.9801V85.9601Z" fill="black"/>
<path d="M85.2494 74.4403C76.4694 74.3003 69.6894 76.1803 63.4494 80.1803C57.6394 83.9003 52.1194 87.9903 47.2394 92.8303C43.8694 96.1703 40.8594 99.8603 37.6894 103.39C37.2894 103.84 36.9894 104.46 36.4994 104.75C35.9694 105.07 35.2694 105.09 34.6394 105.24C34.5594 104.69 34.3294 104.11 34.4394 103.6C34.9094 101.45 35.4094 99.2903 36.0594 97.1903C36.4394 95.9603 37.2294 94.8603 37.6994 93.6503C41.9994 82.6703 49.9794 74.8603 59.4894 68.3503C60.1494 67.9003 60.8494 67.4403 61.5994 67.1703C65.5594 65.7003 69.5394 64.2903 73.5094 62.8503C74.0794 62.6403 74.7794 62.5203 75.1494 62.1103C76.6194 60.4603 78.5394 60.6303 80.4694 60.4903C84.5794 60.1803 88.6794 60.2203 92.7794 60.5303C96.7294 60.8303 100.539 61.5203 104.289 62.9103C110.029 65.0303 115.369 67.7903 120.329 71.3303C121.229 71.9703 122.039 72.7403 122.879 73.4603C124.779 75.0903 125.379 77.1103 125.429 79.6303C125.529 84.5703 125.099 89.4203 122.799 93.7603C120.779 97.5703 118.289 101.2 115.529 104.52C112.119 108.63 108.319 112.45 104.499 116.2C97.2794 123.3 89.3594 129.61 80.9494 135.25C78.0494 137.19 74.6494 138.38 71.4594 139.89C70.8294 140.19 70.0194 140.65 69.6294 139.75C69.3894 139.19 69.5694 138.42 69.6594 137.75C69.6994 137.49 69.9994 137.26 70.2194 137.05C72.4694 134.82 72.9794 131.97 73.0394 128.98C73.1194 124.89 75.0394 122.78 79.0294 121.6C81.4094 120.89 83.5894 119.51 85.8294 118.36C88.6794 116.89 91.4094 115.15 94.3394 113.88C99.2194 111.75 102.729 107.97 106.489 104.46C106.729 104.23 106.909 103.66 106.789 103.41C106.659 103.15 106.099 102.92 105.779 102.97C103.889 103.27 101.919 103.42 100.149 104.07C94.4594 106.15 88.8394 108.43 83.1894 110.63C82.2494 111 81.3294 111.48 80.3594 111.71C79.7494 111.85 78.8194 111.83 78.4694 111.47C78.0894 111.08 77.8894 110.03 78.1494 109.56C79.3294 107.47 80.6094 105.42 82.0194 103.48C83.0194 102.1 84.1494 100.74 85.4694 99.6703C87.2494 98.2303 89.1494 96.8303 91.2194 95.8803C95.4394 93.9303 99.7494 92.1603 104.119 90.5603C106.749 89.6003 109.549 89.1003 112.269 88.3903C112.849 88.2403 113.499 88.1803 113.979 87.8703C114.849 87.3203 115.289 86.5503 114.379 85.6403C113.739 85.0003 113.099 84.3303 112.369 83.7903C108.029 80.5903 103.189 78.3003 98.2094 76.3303C96.3694 75.6003 94.2894 75.3903 92.2994 75.1203C89.4994 74.7503 86.6794 74.5403 85.2494 74.4003V74.4403ZM116.529 90.6503C116.309 90.8103 116.039 90.9103 116.019 91.0503C115.879 91.9303 115.789 92.8203 115.739 93.7103C115.739 93.7303 116.469 93.9403 116.639 93.8003C117.529 93.0803 117.749 92.1403 117.189 91.1103C117.069 90.8903 116.739 90.7803 116.529 90.6403V90.6503Z" fill="black"/>
<path d="M288.089 147.97C286.669 147.97 285.249 147.91 283.829 147.98C277.459 148.31 271.699 146.18 266.069 143.58C264.579 142.89 263.819 140.6 264.419 138.85C266.349 133.21 268.649 127.75 271.989 122.75C273.439 120.58 274.269 117.97 275.889 115.96C278.219 113.07 280.989 110.55 283.599 107.89C284.089 107.39 284.719 107.02 285.239 106.55C287.169 104.84 287.079 104.86 286.059 102.37C285.719 101.53 285.639 100.37 285.929 99.51C287.219 95.71 288.689 91.97 290.089 88.2C290.339 87.54 290.729 86.89 290.789 86.21C291.089 83.02 292.939 80.72 295.379 79.03C298.009 77.2 300.819 75.51 303.759 74.25C309.969 71.58 316.519 70.46 323.309 70.83C326.319 71 327.269 72.38 326.159 75.18C325.349 77.22 324.789 79.33 323.199 81.07C322.269 82.09 321.969 83.76 321.589 85.19C321.159 86.8 320.039 87.46 318.599 87.85C318.009 88.01 317.429 88.34 316.849 88.32C313.069 88.19 309.429 89.08 305.749 89.7C304.289 89.94 302.849 90.51 301.509 91.14C300.539 91.6 300.519 92.54 301.469 92.99C303.189 93.81 304.979 94.81 306.809 94.99C309.499 95.25 312.249 94.85 314.969 94.71C315.879 94.66 316.789 94.49 317.689 94.51C320.299 94.56 321.969 96.89 320.989 99.3C320.279 101.06 319.259 102.69 318.369 104.38C317.619 105.8 316.559 107.13 316.179 108.64C315.519 111.2 313.869 112.3 311.499 112.71C309.409 113.07 307.239 113.14 305.239 113.77C301.399 114.98 297.649 116.5 293.869 117.9C289.519 119.51 285.229 121.27 281.269 123.71C281.009 123.87 280.699 123.95 280.469 124.13C279.699 124.72 278.519 125.07 278.839 126.39C279.119 127.57 279.939 128.19 281.139 128.52C282.379 128.85 283.519 129.54 284.749 129.87C287.769 130.66 290.789 131.77 293.859 131.94C297.769 132.16 301.729 131.72 305.649 131.33C308.759 131.02 311.819 130.3 314.919 129.87C315.659 129.77 316.889 129.25 316.909 130.88C316.909 130.98 317.469 131.15 317.769 131.16C318.159 131.18 318.579 130.98 318.949 131.05C321.439 131.49 322.079 132.95 320.649 135.01C319.619 136.5 318.489 137.92 317.379 139.35C314.939 142.54 311.829 144.52 307.759 145.09C305.779 145.37 303.839 146.08 301.939 146.74C297.419 148.31 292.749 147.97 288.109 147.95L288.089 147.97Z" fill="black"/>
<path d="M860.84 161.2C854.61 161.33 850.57 159.84 847.31 156.39C846.9 155.95 846.43 155.53 845.91 155.25C843.41 153.87 842.91 151.45 843.03 149.01C843.18 146 843.92 143.05 845.02 140.22C848.78 130.5 853.82 121.42 859.47 112.71C861.41 109.72 863.28 106.54 866.22 104.21C867.34 103.32 868.23 101.87 868.71 100.49C869.36 98.6303 870.53 97.2003 872.02 96.2803C877.3 93.0203 882.99 90.4603 889.17 89.6903C898.73 88.5103 905.65 92.9103 909.5 101.13C911.71 105.85 913.28 110.72 912.74 116.02C912.15 121.81 910.27 127.2 907.5 132.31C904.17 138.45 900.52 144.41 895.57 149.35C892.12 152.78 887.83 155.12 882.98 156.32C879.25 157.25 875.56 158.34 871.88 159.45C867.78 160.68 863.55 160.97 860.85 161.21L860.84 161.2ZM899.51 131.33C899.61 123.05 896.28 117.07 890.67 112.22C887.98 109.89 884.92 108.92 881.4 110.33C880.66 110.63 879.84 110.75 879.06 110.96C874.37 112.19 869.69 113.51 865.52 116.05C863.21 117.46 860.55 118.82 859.08 120.92C856.51 124.6 854.23 128.61 853.42 133.18C852.38 139.06 853.85 143.09 859.65 145.37C863 146.69 866.69 147.24 870.37 146.16C871.33 145.88 872.34 145.68 873.34 145.57C880.88 144.73 887.84 142.11 894.6 138.84C898.04 137.18 900.69 135.07 899.52 131.35L899.51 131.33Z" fill="black"/>
<path d="M660.989 59.2702C663.019 59.2702 665.049 59.2002 667.069 59.2902C669.339 59.3902 671.329 59.0902 672.419 56.7402C672.549 56.4602 673.069 56.3602 673.409 56.1802C673.509 56.4602 673.659 56.7202 673.699 57.0102C673.779 57.6102 673.719 58.2302 673.859 58.8202C674.079 59.7502 674.559 60.4802 675.689 60.5302C680.709 60.7502 685.459 62.3602 690.089 64.0002C695.699 65.9902 700.999 68.7602 705.339 73.0002C708.759 76.3402 710.509 80.6102 710.609 85.2002C710.669 87.9902 709.669 91.0302 708.389 93.5902C706.329 97.7202 703.709 101.59 701.209 105.49C700.209 107.05 698.799 107.96 696.689 108.05C692.149 108.24 687.619 108.71 683.099 109.2C680.499 109.48 677.929 110.12 675.329 110.45C673.649 110.66 671.939 110.71 670.239 110.66C668.689 110.61 668.259 110.82 668.209 112.46C668.159 114.28 668.099 116.12 668.379 117.91C669.069 122.38 669.859 126.84 670.769 131.27C671.129 133.03 671.929 134.7 672.499 136.42C672.689 136.99 672.899 137.57 672.959 138.16C673.019 138.86 672.699 139.41 671.889 139.11C671.049 138.8 670.239 138.38 669.459 137.93C669.029 137.68 668.769 137.1 668.329 136.94C664.569 135.56 664.179 132.12 663.349 128.95C662.229 124.72 662.059 120.39 662.069 116.04C662.069 113.47 661.459 112.96 658.799 112.79C658.289 112.76 657.779 112.79 657.279 112.72C655.079 112.38 654.519 111.04 655.629 109.07C656.569 107.41 657.549 105.74 658.179 103.96C658.679 102.56 659.409 101.66 660.809 101.34C662.749 100.91 663.359 99.6802 663.349 97.8002C663.349 96.4102 663.679 95.0102 663.899 93.6202C664.479 89.9402 665.119 86.2702 665.669 82.5902C666.129 79.5302 665.359 78.4902 662.359 77.4702C660.059 76.6902 657.799 75.8002 655.569 74.8602C653.599 74.0302 652.249 72.5902 651.799 70.4302C651.699 69.9402 651.659 69.4002 651.409 68.9902C650.799 68.0002 650.959 67.2202 651.569 66.2402C652.509 64.7202 652.959 63.1702 651.179 61.6702C650.089 60.7602 650.619 59.6002 652.159 59.4802C654.279 59.3102 656.409 59.3602 658.539 59.3202C659.349 59.3102 660.159 59.3202 660.969 59.3202V59.2902L660.989 59.2702ZM668.809 97.0802C668.849 98.4102 669.339 98.8802 670.719 98.7102C671.409 98.6302 672.079 98.3702 672.759 98.1602C674.789 97.5502 676.779 96.8202 678.839 96.3202C683.339 95.2202 687.869 94.2402 692.379 93.2002C694.339 92.7502 694.579 92.0402 693.229 90.6402C691.189 88.5302 688.989 86.7402 686.229 85.5002C682.169 83.6802 678.099 81.9402 673.759 80.8902C671.389 80.3102 670.859 80.7202 670.619 83.0502C670.529 83.9502 670.359 84.8302 670.239 85.7302C669.759 89.5102 669.279 93.3002 668.799 97.0802H668.809Z" fill="black"/>
<path d="M509.449 126.03C508.879 126.03 508.479 126.05 508.069 126.03C506.819 125.95 505.309 126.52 504.639 124.85C503.949 123.15 503.309 121.41 504.519 119.66C505.039 118.91 505.619 118.22 506.129 117.46C506.569 116.79 507.389 116 507.279 115.4C506.849 113.14 508.399 112.76 509.889 112.15C511.479 111.5 513.059 110.81 514.589 110.02C516.019 109.28 517.249 108.5 517.439 106.49C517.679 104.01 518.559 101.59 519.039 99.1202C519.609 96.1502 520.449 93.2902 521.549 90.4602C523.049 86.6202 524.149 82.6102 525.749 78.8102C527.419 74.8302 529.479 71.0102 531.379 67.1202C531.469 66.9402 531.549 66.7302 531.699 66.6102C532.379 66.0702 533.389 64.9802 533.719 65.1502C534.839 65.7302 533.889 66.7302 533.659 67.5002C531.829 73.6902 530.409 79.9602 529.319 86.3202C528.419 91.5702 527.169 96.7702 526.079 101.99C525.999 102.38 525.889 102.78 525.869 103.18C525.789 104.61 526.339 105.03 527.699 104.45C530.769 103.14 533.789 101.73 536.869 100.43C542.539 98.0402 548.189 95.6202 553.919 93.3902C555.419 92.8102 556.369 92.0502 556.659 90.5302C557.149 87.9602 557.569 85.3802 558.039 82.8102C558.729 79.0402 559.249 75.2202 560.919 71.7302C564.189 64.9202 567.029 57.8702 571.509 51.7002C572.119 50.8702 572.499 49.2202 573.849 49.9002C575.189 50.5802 574.169 51.8402 573.769 52.8102C573.459 53.5602 573.089 54.2802 572.719 55.0002C570.809 58.7302 570.019 62.7402 569.569 66.8602C569.219 70.0602 568.659 73.2402 568.229 76.4402C567.709 80.2302 567.229 84.0202 566.739 87.8202C566.589 88.9402 567.139 89.5302 568.209 89.7102C568.509 89.7602 568.819 89.7302 569.119 89.7802C572.139 90.3102 572.989 91.6902 571.709 94.3902C569.719 98.5702 567.669 102.72 565.469 106.78C563.869 109.74 562.699 112.76 562.229 116.13C561.799 119.21 560.899 122.23 560.289 125.29C559.859 127.46 559.289 129.66 559.279 131.84C559.269 134.39 558.599 136.58 557.239 138.67C555.199 141.8 553.249 144.99 551.179 148.09C550.639 148.9 549.839 149.62 549.009 150.15C548.099 150.73 547.069 150.11 547.179 149.02C547.409 146.73 547.799 144.45 548.179 142.17C548.299 141.48 548.799 140.82 548.779 140.16C548.719 137 549.349 133.95 550.029 130.89C550.749 127.65 551.239 124.36 551.859 121.1C552.249 119.02 552.729 116.96 553.079 114.87C553.519 112.3 552.839 111.4 550.309 111.48C548.719 111.53 547.089 111.8 545.579 112.29C541.729 113.53 537.889 114.81 534.139 116.32C530.489 117.79 526.949 119.51 523.419 121.24C522.799 121.54 522.259 122.37 522.049 123.06C521.569 124.59 521.219 126.18 520.989 127.77C520.649 130.16 520.579 132.6 520.159 134.97C519.669 137.69 519.669 140.32 520.079 143.07C520.269 144.36 519.539 146.04 518.729 147.19C516.699 150.07 514.399 152.75 512.159 155.48C511.889 155.81 511.269 156.17 510.939 156.07C510.579 155.97 510.149 155.38 510.109 154.97C509.989 153.77 509.959 152.54 510.049 151.34C510.349 147.53 510.649 143.71 511.099 139.91C511.529 136.31 512.139 132.74 512.679 129.16C512.759 128.66 512.929 128.17 512.959 127.68C513.049 126.11 512.599 125.68 511.069 125.81C510.469 125.86 509.869 125.97 509.419 126.03H509.449Z" fill="black"/>
<path d="M734.829 98.6101C734.999 93.6801 735.619 88.9101 737.459 84.3501C739.049 80.4301 740.639 76.5101 742.409 72.6701C743.249 70.8601 744.469 69.2201 745.599 67.5601C745.999 66.9701 746.649 66.5401 747.409 67.1501C748.069 67.6801 748.639 68.2701 748.139 69.2001C747.899 69.6401 747.609 70.0601 747.319 70.4701C744.109 75.0001 742.139 79.9601 741.779 85.5501C741.599 88.3601 740.879 91.1701 742.319 93.8501C743.079 95.2701 743.669 96.8301 744.679 98.0501C746.849 100.67 749.859 101.03 752.999 100.39C757.729 99.4301 761.489 97.0301 764.539 93.1801C767.949 88.8701 770.539 84.1401 773.039 79.3001C774.659 76.1801 776.419 73.1201 778.289 70.1401C778.929 69.1101 779.799 67.5301 781.279 68.0701C782.669 68.5701 781.999 70.2101 781.939 71.3301C781.889 72.3101 781.559 73.3301 781.129 74.2201C779.979 76.5601 778.509 78.7601 777.539 81.1701C776.559 83.5801 775.899 86.1401 775.329 88.6801C774.119 94.0901 772.989 99.5101 771.969 104.96C770.969 110.29 770.219 115.68 769.219 121.01C768.459 125.07 767.539 129.1 766.559 133.11C765.509 137.41 764.349 141.68 763.169 145.94C762.819 147.19 762.389 148.48 761.719 149.58C759.409 153.36 757.059 157.12 754.549 160.77C752.929 163.12 750.789 163.93 747.719 163.1C740.649 161.2 734.479 157.73 728.789 153.28C725.609 150.8 722.509 148.21 719.309 145.76C715.889 143.14 715.329 139.51 715.839 135.69C716.109 133.63 717.129 131.67 717.849 129.68C717.979 129.32 718.239 128.82 718.549 128.73C721.009 128.01 721.799 125.82 722.809 123.9C723.449 122.67 724.159 122.52 725.199 123.26C726.099 123.9 726.949 124.63 727.879 125.24C729.049 126 730.289 126.66 731.489 127.38C732.009 127.69 732.559 127.96 733.019 128.35C735.469 130.44 738.269 132.05 740.799 133.99C744.779 137.05 749.309 138.97 753.759 141.11C754.949 141.68 755.679 141.5 756.079 140.23C756.329 139.46 756.679 138.71 756.819 137.92C757.769 132.58 758.599 127.21 759.619 121.88C760.509 117.23 761.609 112.62 762.589 107.99C762.819 106.91 763.049 105.82 763.119 104.72C763.159 104.06 762.889 103.39 762.749 102.72C762.159 103.03 761.499 103.24 760.999 103.65C759.519 104.87 758.179 106.26 756.639 107.4C755.199 108.48 753.649 109.45 752.029 110.24C749.609 111.42 747.109 112.43 744.609 113.42C743.999 113.66 743.159 113.79 742.579 113.57C739.509 112.41 736.999 110.46 736.159 107.21C735.429 104.41 735.259 101.47 734.849 98.5901L734.829 98.6101Z" fill="black"/>
<path d="M627.17 74.5902C626.74 78.9002 626.07 83.1902 625.93 87.5102C625.75 92.8402 625.93 98.1902 626.11 103.52C626.19 106.03 626.53 108.54 626.9 111.03C627.27 113.52 627.55 116.06 628.33 118.43C629.71 122.62 631.11 126.87 633.1 130.79C636 136.51 639.8 141.59 646.13 144.13C647.83 144.81 648.06 145.83 646.82 147.1C645.4 148.55 644.16 149.95 643.45 151.98C642.93 153.48 641.44 154.71 640.21 155.88C639.17 156.87 636.75 156.47 635.15 155.2C632.6 153.17 630.3 150.86 628.98 147.84C627.33 144.06 625.86 140.2 624.4 136.33C623.65 134.35 623.17 132.28 622.44 130.3C621.99 129.06 621.43 128.99 620.38 129.78C618.21 131.42 616.01 133.02 613.88 134.71C613.21 135.25 612.57 135.98 612.22 136.76C609.97 141.66 606.22 144.19 600.79 144.2C595.4 144.21 595.43 144.2 592.38 139.93C590.99 137.98 590.69 135.84 591.04 133.59C591.24 132.31 591.7 131.06 592.1 129.81C592.77 127.71 593.28 125.52 594.21 123.54C595.32 121.19 596.51 118.75 598.21 116.82C600.73 113.95 603.68 111.52 607.43 110.11C610.06 109.12 612.37 107.28 615 106.3C618.29 105.06 619.85 103.34 619.79 99.5302C619.69 93.8102 620.52 88.0702 620.71 82.3402C620.9 76.3402 617.55 75.1602 612.69 75.9502C610.93 76.2402 609.27 77.1402 607.55 77.7202C607.22 77.8302 606.66 77.8802 606.49 77.7002C606.28 77.4802 606.22 76.9102 606.36 76.6102C607.43 74.2102 608.49 71.8502 608.7 69.1502C608.76 68.3702 609.53 67.5402 610.16 66.9102C613.48 63.5902 617.64 62.5902 622.16 63.0402C624.87 63.3102 626.57 65.2502 626.8 68.2002C626.96 70.3102 626.83 72.4402 626.83 74.5602L627.17 74.5802V74.5902ZM621.32 126.2C621.08 123.37 620.93 121.17 620.68 118.97C620.53 117.67 620.31 116.37 619.98 115.11C619.7 114.05 618.98 113.89 618.29 114.76C616.58 116.89 614.45 118.28 611.83 119.03C607.75 120.2 604.22 122.54 600.49 124.47C600.09 124.68 599.71 125.44 599.75 125.91C600.21 131.25 605.61 134.85 610.95 133.45C614.77 132.44 617.6 129.7 620.7 127.46C621.18 127.11 621.29 126.27 621.32 126.21V126.2Z" fill="black"/>
<path d="M376.59 134.31C374.45 134 372.95 133.72 371.45 133.6C370.25 133.5 369.01 133.44 367.84 133.65C362.77 134.56 358.02 133.48 353.38 131.56C352.82 131.33 352.27 131.08 351.74 130.8C350.16 129.97 348.82 130.25 347.69 131.62C346.73 132.79 345.79 133.97 344.78 135.09C344.56 135.34 344.08 135.37 343.72 135.49C343.62 135.13 343.35 134.71 343.45 134.41C344.75 130.29 346.15 126.2 347.42 122.06C348.95 117.07 350.37 112.05 351.84 107.04C352.32 105.39 352.68 103.71 353.26 102.1C355.54 95.7404 357.85 89.4004 360.22 83.0704C360.85 81.3804 361.68 79.7604 362.5 78.1504C362.86 77.4504 363.34 76.7404 363.94 76.2504C364.31 75.9504 365.29 75.7904 365.53 76.0304C365.93 76.4404 366.29 77.3304 366.1 77.8104C364.53 81.9504 362.62 85.9704 361.24 90.1604C359.64 95.0204 358.48 100.01 357.14 104.95C357.07 105.21 357.18 105.51 357.21 105.8C357.57 105.7 358.01 105.7 358.29 105.49C360.54 103.78 362.76 102.04 364.98 100.3C371.09 95.5004 377.19 90.7004 384.01 86.9104C387.71 84.8504 391.34 82.6804 395.02 80.5904C396.19 79.9304 397.68 79.3204 398.72 80.2804C399.97 81.4404 399.48 83.1204 398.76 84.5004C397.6 86.7304 396.34 88.9104 395.12 91.1204C394.88 91.5604 394.55 91.9704 394.42 92.4404C393.78 94.7504 392.31 96.3704 390.17 97.2804C386.12 99.0204 382.86 101.93 379.39 104.48C375 107.7 370.82 111.2 366.58 114.61C364.96 115.91 364.91 116.07 366.41 117.29C367.65 118.29 369.04 119.23 370.51 119.79C373.44 120.89 376.47 121.71 379.46 122.64C379.94 122.79 380.44 122.91 380.9 123.11C381.7 123.45 382.94 123.57 382.65 124.78C382.41 125.75 382.62 127.4 380.56 126.97C379.77 126.8 379.7 127.67 380.15 128.23C380.65 128.86 381.32 129.35 381.81 129.99C382.47 130.86 382.36 131.98 381.42 132.31C379.83 132.87 378.15 133.14 376.82 134.32C376.67 134.45 376.24 134.28 376.59 134.32V134.31Z" fill="black"/>
<path d="M810.49 82.8102C812.64 82.3502 814.78 81.8602 816.93 81.4402C817.72 81.2802 818.54 81.2002 819.34 81.2002C823.7 81.2002 828.05 81.2402 832.41 81.2802C832.81 81.2802 833.27 81.2102 833.62 81.3602C836.39 82.5602 839.35 82.2002 842.22 82.4102C845.21 82.6202 846.73 84.1202 846.4 87.0102C846.27 88.1002 846.02 89.2302 845.54 90.2102C843.7 94.0202 841.77 97.7802 839.81 101.54C839.4 102.33 838.77 103.01 838.21 103.71C837.35 104.77 836.33 104.98 834.97 104.6C831.96 103.75 828.91 103.02 825.85 102.35C824.38 102.03 822.86 101.86 821.35 101.8C819.11 101.72 818.81 101.97 818.26 104.24C817.71 106.48 817.25 108.75 816.84 111.02C815.62 117.76 813.65 124.3 811.61 130.83C810.8 133.43 809.92 136.02 809.34 138.67C808.43 142.8 805.85 145.87 803.22 148.94C802.95 149.25 802.35 149.28 801.91 149.45C801.81 148.98 801.53 148.46 801.64 148.05C802.29 145.52 802.96 142.99 803.75 140.5C804.66 137.62 805.64 134.81 805.86 131.72C806 129.78 807 127.89 807.63 125.99C809.02 121.79 810.47 117.62 811.8 113.4C812.76 110.34 813.67 107.26 814.41 104.14C814.91 102.03 814.41 101.29 812.38 100.93C811.11 100.7 809.77 100.78 808.47 100.87C803.73 101.17 799 101.55 794.27 101.87C792.33 102 790.65 101.37 789.49 99.7702C789.19 99.3602 789.03 98.6102 789.2 98.1702C789.77 96.6902 790.48 95.2702 791.2 93.8602C792.53 91.2602 794.11 88.9402 796.33 86.8602C798.24 85.0702 799.96 83.4102 802.59 83.0802C805.19 82.7602 807.81 82.5802 810.42 82.3302C810.45 82.4902 810.48 82.6602 810.51 82.8202L810.49 82.8102Z" fill="black"/>
<path d="M454.25 67.84C455.66 67.84 456.37 67.81 457.08 67.84C459.46 67.97 460.61 69.44 459.85 71.72C459.09 73.99 458.4 76.32 456.79 78.23C455.75 79.46 455.31 80.92 455.04 82.6C454.73 84.49 453.71 86.39 452.57 87.98C451.43 89.56 449.46 88.92 447.75 88.92C443.36 88.92 438.94 88.26 434.57 89.49C433.14 89.89 432.41 90.42 431.99 91.94C430.08 98.83 428.18 105.74 425.89 112.51C423.21 120.42 420.57 128.4 415.15 135.04C414.56 135.76 414.23 137.2 413.02 136.52C412.63 136.3 412.78 134.63 413.09 133.77C414.18 130.75 415.6 127.83 416.62 124.79C418.62 118.88 420.4 112.9 422.35 106.98C423.67 102.96 425.07 98.97 426.57 95.02C427.02 93.84 427.72 92.72 426.71 91.69C425.78 90.74 424.55 90.97 423.3 91.34C419.05 92.61 414.77 93.78 410.48 94.94C409.71 95.15 408.87 95.23 408.08 95.16C405.87 94.98 405.18 93.77 405.87 91.65C406.21 90.61 406.33 89.51 406.58 88.45C406.73 87.78 406.87 87.09 407.12 86.46C407.76 84.88 408.62 83.38 409.09 81.76C409.8 79.36 411.93 78.57 413.76 77.76C417.25 76.21 420.93 75.08 424.55 73.83C427.4 72.85 430.23 71.71 433.16 71.07C437.28 70.17 441.39 69.19 445.65 68.97C448.76 68.81 451.85 68.18 454.27 67.85L454.25 67.84Z" fill="black"/>
</svg>
