<svg width="950" height="220" viewBox="0 0 950 220" fill="none" xmlns="http://www.w3.org/2000/svg">
<path d="M318.83 119.2C321.27 119.92 322.65 118.68 324.08 117.63C337.26 108.02 349.73 97.5902 360.98 85.7502C362.89 83.7402 365.08 82.0202 367.05 80.2402C370.94 82.2102 371.27 82.6602 370.53 85.8302C369.05 92.1302 366.19 97.8602 362.99 103.43C360.71 107.39 357.95 111.11 356.08 115.24C354.59 118.51 354.12 122.25 352.97 126.69C357.53 123.55 360.05 119.9 362.66 116.42C366.61 111.16 369.56 105.3 372.55 99.4202C376.41 91.8302 381.4 84.8102 385.9 77.5502C386.94 75.8802 387.82 74.0602 389.11 72.6102C389.71 71.9302 391.31 71.4702 392.07 71.8002C392.78 72.1102 393.4 73.6202 393.34 74.5502C393.2 76.4902 392.62 78.4102 392.17 80.3302C390.08 89.1002 388.14 97.9002 385.8 106.6C384.45 111.64 382.4 116.48 380.77 121.45C379.67 124.79 378.75 128.19 377.75 131.56C378.08 131.67 378.41 131.78 378.74 131.88C379.83 129.37 381.04 126.9 382 124.33C384.07 118.81 386.55 113.47 388.54 107.9C391.68 99.1402 395.71 90.5002 400.63 82.6202C405.48 74.8602 412.11 68.2602 419.59 62.7802C420.63 62.0102 422.54 61.4102 423.52 61.8702C424.47 62.3202 425.14 64.1902 425.25 65.4902C425.92 73.6002 424.65 81.5602 423.06 89.4802C421.05 99.4802 418.58 109.33 415.03 118.92C414.14 121.32 414.09 124.02 413.53 127.29C416.3 125.48 417.09 122.91 418.11 120.81C421.61 113.59 424.74 106.2 428.04 98.8801C430.2 94.0801 432.23 89.2202 434.63 84.5502C437.33 79.2902 440.37 74.2102 443.29 69.0602C444.01 67.8002 445.08 66.9902 446.55 67.7102C447.92 68.3802 449.14 69.3602 448.56 71.1802C447.42 74.7802 446.75 78.6702 444.9 81.8802C441.97 86.9702 440.88 92.4402 439.61 98.0002C438.07 104.73 436.1 111.35 434.31 118.02C434.05 118.97 433.65 119.9 433.47 120.86C432.4 126.47 435.25 129.45 440.84 128.5C445.37 127.73 449.85 126.99 453.18 123.19C454.74 121.41 455.02 121.65 458.8 122.62C456.79 125.22 455.72 128.02 451.93 129.06C448.4 130.03 445.29 132.5 442 134.32C438.76 136.12 431.4 134.91 429.38 131.98C428.62 130.87 428.48 129.24 428.32 127.81C427.52 120.56 429.31 113.77 432.09 107.15C433.03 104.93 433.68 102.58 434.47 100.3C434.14 100.12 433.81 99.9402 433.47 99.7602C432.57 101.13 431.53 102.44 430.81 103.9C428.78 108.04 427 112.3 424.91 116.41C422.85 120.45 420.44 124.32 418.33 128.34C416.74 131.38 415.54 134.64 413.85 137.62C412.82 139.44 411.36 141.1 409.79 142.51C409 143.22 407.55 143.2 405.7 143.7C405.7 140.19 405.13 137.3 405.8 134.73C408.93 122.66 412.05 110.56 415.87 98.7102C418.51 90.5201 420.66 82.3902 420.31 73.7402C420.27 72.7802 420.06 71.8302 419.89 70.5302C418.9 70.8702 417.93 70.8902 417.48 71.3902C411.14 78.2702 404.19 84.6901 400.36 93.5201C396.84 101.63 393.48 109.82 389.81 117.86C385.1 128.17 380.17 138.39 373.7 147.75C372.35 149.71 370.93 151.85 367.88 152.31C366.25 149.13 366.52 145.82 367.49 142.78C369.03 137.94 371.22 133.31 372.94 128.52C375.95 120.17 378.83 111.79 381.71 103.4C382.56 100.91 383.29 98.3702 383.93 95.8202C384.39 93.9702 384.61 92.0602 384.93 90.1702C384.58 90.0201 384.23 89.8702 383.88 89.7102C382.39 92.0802 380.78 94.3702 379.44 96.8202C374.47 105.89 369.69 115.08 363.26 123.25C361.23 125.83 359.35 128.57 357.03 130.86C354.61 133.25 351.61 134.6 347.84 133.05C346.64 130.68 346.64 127.85 347.56 125.53C350.15 119 353.15 112.63 356.17 106.28C357.72 103.03 359.76 100.01 361.4 96.8002C361.85 95.9202 361.66 94.7102 361.87 92.5502C360.01 94.1902 358.97 95.0802 357.96 96.0002C352.39 101.11 347 106.45 341.2 111.29C335.67 115.91 329.75 120.07 323.94 124.35C322.44 125.46 320.83 126.05 319.06 124.4C317.8 123.24 316.15 123.62 315.05 124.81C313.41 126.6 311.77 128.46 310.52 130.52C307 136.31 303.18 141.83 298.23 146.5C296.84 147.81 295.45 148.92 293.43 148.06C291.82 147.38 290.75 144.83 291.04 142.53C291.97 135.15 294.49 128.24 297.26 121.4C300.66 113.01 304.04 104.62 307.43 96.2202C308.96 92.4402 310.49 88.6602 311.42 84.3202C310.57 85.1102 309.54 85.7701 308.9 86.7001C301.07 98.1402 291.99 108.53 281.98 118.07C278.69 121.21 274.73 123.7 270.88 126.19C266.67 128.91 261.67 129.49 257.06 128.36C253.55 127.51 250.31 125.09 247.26 122.93C242.13 119.3 239.45 114.24 239.35 107.81C239.31 105.04 238.51 102.28 238.47 99.5002C238.43 96.7302 238.97 93.9602 239.14 91.1802C239.25 89.3002 239.16 87.4102 239.16 85.7802C238.38 85.4702 238.19 85.3202 238.08 85.3602C232.11 87.7602 226.21 90.3701 220.16 92.5302C216.37 93.8801 215.11 97.1501 214.97 100.13C214.72 105.55 212.77 110.46 211.18 115.37C208.19 124.57 202.09 131.94 195.46 138.93C192.33 142.23 188.69 142.3 184.88 142.23C178.75 142.11 177.85 141.17 176.46 135.12C175.84 132.44 174.96 129.82 174.27 127.16C172.52 120.42 174.51 114.44 178.49 109.13C181.58 105 185.83 102.02 190.28 99.5002C194.12 97.3302 198.13 95.4501 202.12 93.5702C203.12 93.1002 204.38 93.2102 205.47 92.8801C208.8 91.8701 211.24 90.1702 211.84 86.2502C213.17 77.5602 213.4 68.8802 211.88 60.2302C210.75 53.7702 209.42 47.3302 207.76 40.9902C206.9 37.7002 205.21 34.6102 203.69 31.5302C203.16 30.4502 202.02 29.6702 200.82 28.4002C198.67 30.5102 196.74 32.2502 194.99 34.1602C193.32 35.9702 191.86 37.9602 190.27 39.8402C188.32 42.1602 187.35 44.5702 189 47.5202C190.39 49.9902 190.19 52.5602 189.23 55.1602C187.69 59.3302 186.32 63.5602 184.73 67.7102C180.5 78.8102 177.81 90.2702 176 102C175.08 107.97 173.05 113.77 171.82 119.71C170.75 124.84 170.15 130.07 169.25 135.24C167.75 143.8 165.97 152.31 164.72 160.9C164.07 165.33 163.15 169.61 161.63 173.8C160.78 176.15 159.62 178.2 157.05 180.35C156.42 178.48 155.53 177.05 155.51 175.6C155.4 169.21 154.68 162.75 157.4 156.58C158.1 154.99 158.25 153.07 158.32 151.28C158.77 141.05 160.85 131.1 163.3 121.21C163.89 118.82 164.55 116.44 164.97 114.02C165.11 113.22 164.6 112.31 164.26 110.92C161.26 114.87 158.47 118.2 156.06 121.79C152.59 126.96 147.69 130.59 143.03 134.47C140.77 136.35 134.02 135.98 131.27 134.16C126.97 131.32 124.91 127.18 124.78 122.18C124.58 114.78 124.6 107.39 127.32 100.3C127.74 99.2102 127.38 97.8202 127.38 96.5901C126.7 96.5901 126.2 96.4602 126.1 96.6102C123.44 100.52 120.44 104.27 118.3 108.45C116.19 112.6 112.62 115.18 109.6 118.38C105.72 122.48 100.48 123.35 95.4002 124.3C92.4302 124.85 91.0702 126.26 90.5302 128.96C89.1002 136.21 87.5702 143.45 86.2502 150.72C85.2302 156.36 84.4802 162.05 83.5702 167.72C83.0302 171.11 82.4302 174.5 81.8102 177.87C81.6602 178.67 81.5002 179.63 80.9802 180.17C80.2702 180.9 79.2402 181.68 78.3202 181.72C77.7302 181.75 76.7202 180.56 76.5402 179.77C76.2202 178.35 76.1702 176.79 76.4002 175.35C77.3202 169.51 77.6602 163.44 79.5902 157.94C81.6402 152.09 81.2202 145.98 82.9902 140.15C84.9902 133.58 86.3602 126.82 87.7602 120.09C88.2602 117.71 88.3702 115.14 88.1102 112.72C87.3402 105.39 90.0602 98.8102 92.0802 92.0502C93.9102 85.9502 96.9502 80.1802 97.1302 73.6102C97.1502 72.8702 97.5002 71.8102 98.0502 71.4602C102.66 68.5902 103.65 63.4402 105.77 59.0902C108.23 54.0402 111.17 49.3702 114.85 45.1702C116.13 43.7102 117.78 42.5102 119.45 41.5002C122.61 39.5902 124.82 40.1902 126.68 43.5202C127.87 45.6502 128.93 47.9102 129.6 50.2502C131.56 57.0602 133.36 63.9102 132.69 71.1302C132.62 71.9302 132.79 72.7802 133.02 73.5502C133.14 73.9602 133.63 74.2502 134.29 74.9602C135.04 73.7002 135.98 72.7202 136.27 71.5702C138.12 64.2502 143.35 58.6302 146.06 51.7402C147.01 49.3302 150.6 47.0002 153.61 45.8702C155.317 47.3302 156.114 49.0902 156 51.1502C150.07 56.2702 145.4 61.9302 142.53 69.2402C145.96 71.2902 149.16 69.4902 152.62 69.8802C153.71 64.4202 154.75 59.1802 155.8 53.9302C158.09 53.8502 159.17 54.7902 159.27 56.7902C159.33 57.9402 159.42 59.1102 159.29 60.2502C158.66 65.9602 158.27 71.7202 157.17 77.3302C156.54 80.5402 155.82 84.0302 153.26 86.7902C150.88 85.2602 150.58 83.2302 150.42 81.0802C150.26 78.9302 151.29 76.0002 148 75.4202C144.84 74.8602 141.72 75.3502 139.59 78.2002C138.71 79.3802 137.71 80.6002 137.25 81.9602C133.44 93.3502 130.26 104.86 129.56 116.97C129.35 120.68 131.03 123.64 132.05 126.86C132.31 127.7 134.1 128.54 135.2 128.56C140.72 128.68 145.44 126.86 149.05 122.4C152.46 118.19 155.93 114.02 159.65 110.08C163.99 105.48 166.35 99.8602 167.92 94.0102C170.49 84.5002 172.19 74.7602 174.73 65.2402C177.44 55.0702 181.02 45.1202 186.81 36.2602C189.66 31.9002 193.4 28.1002 196.97 24.2502C199.15 21.9002 202.46 22.4102 205.31 21.9902C205.97 21.8902 207.38 23.2302 207.55 24.0902C207.94 26.0802 209.05 27.1902 210.59 28.3202C211.55 29.0202 212.59 30.4302 212.57 31.5002C212.41 37.7502 215.59 43.2802 216.16 49.3502C216.25 50.3302 216.61 51.2802 216.65 52.2602C217.06 62.9302 218.58 73.5802 217.31 84.3002C217.23 85.0102 217.73 85.7902 218.08 86.9302C219.32 86.3402 220.35 85.9702 221.24 85.4002C226.13 82.3002 231.62 80.6702 237.05 78.9602C240.41 77.9002 242.13 75.9302 243.19 72.6302C245.3 66.0402 247.79 59.5002 252.46 54.2402C255.28 51.0702 258.83 48.5602 261.67 45.4002C264.03 42.7702 266.74 41.3802 270.14 41.0502C270.79 40.9902 271.45 40.7502 272.07 40.8302C276.77 41.4702 279.04 45.4702 282.21 48.2502C284.25 50.0402 283.98 52.4002 283.87 54.6802C283.81 55.8002 283.53 56.9802 283.08 58.0002C280.08 64.7202 275.31 69.5802 268.52 72.6802C261.96 75.6802 255.48 78.8402 248.68 81.3202C247.66 81.6902 246.72 83.0002 246.28 84.0902C244.25 89.1802 243.43 94.4502 244.28 99.9402C244.66 102.36 244.69 104.84 245.02 107.28C245.58 111.46 248.17 114.41 251.19 117.06C251.44 117.28 251.73 117.44 252 117.62C254.28 119.22 256.41 121.78 258.87 122.15C261.27 122.51 263.96 120.37 266.62 119.82C275.04 118.07 280.65 112.45 286.02 106.36C289.6 102.29 293.17 98.1802 297.02 94.3602C303.73 87.7202 309.04 80.0202 314.19 72.2002C317.26 67.5402 320.1 62.7202 322.71 57.7902C324.39 54.6302 325.23 51.0302 326.89 47.8602C329.17 43.5102 331.84 39.3602 334.44 35.1802C334.82 34.5702 335.69 34.2702 336.45 33.7402C339.28 36.2302 338.52 38.9002 337.33 41.4502C335.61 45.1802 333.72 48.8302 331.85 52.4902C328.73 58.6102 325.49 64.6702 322.47 70.8402C321.1 73.6302 319.78 76.5402 319.02 79.5302C316.66 88.8202 313.06 97.5902 309 106.23C307.68 109.04 306.74 112.04 305.61 114.94C303.1 121.38 300.54 127.8 298.07 134.26C297.44 135.9 297.1 137.64 296.32 140.42C300.41 137.99 302.1 134.87 304.3 132.28C304.5 132.04 304.55 131.68 304.64 131.36C305.71 127.58 309.48 125.15 309.86 121.06C310.22 117.15 310.26 113.21 310.7 109.31C310.92 107.38 311.4 105.33 312.34 103.66C316.36 96.5002 320.45 89.3802 324.79 82.4202C327.64 77.8302 330.29 73.0302 334.6 69.5202C337.02 67.5502 339.49 65.6102 341.67 63.3902C345.21 59.7902 348.55 55.9902 351.96 52.2602C353.15 50.9602 354.43 50.0602 356.9 51.1702C356.78 52.4802 356.92 54.1002 356.44 55.5002C355.86 57.1802 354.79 58.7102 353.85 60.2502C345.8 73.6402 337.75 87.0201 329.68 100.39C328.57 102.22 327.32 103.96 326.17 105.77C323.73 109.64 321.3 113.51 318.92 117.42C318.7 117.78 318.85 118.36 318.81 119.2H318.83ZM120.92 46.9402C113.19 55.3302 108.84 64.4402 105.06 73.8602C103.42 77.9402 102.2 82.1902 100.9 86.3902C99.3002 91.5502 97.7402 96.7202 96.3302 101.92C95.8702 103.61 95.7002 105.52 97.9802 106.57C99.2502 104.58 100.18 102.44 101.69 100.86C108.85 93.4002 116 85.9002 124.73 80.2002C126.72 78.9002 127.57 77.3302 127.74 74.9602C128.34 66.9502 127.08 59.2402 124.26 51.7802C123.67 50.2202 122.34 48.9402 120.91 46.9202L120.92 46.9402ZM182.03 120.44C182.43 125.2 182.94 129.22 183.05 133.25C183.13 136.36 184.45 138.18 187.96 139.17C200.23 128.05 208.71 114.74 210.23 97.3202C209.42 97.4902 208.91 97.4902 208.49 97.6902C201.05 101.45 193.46 104.95 186.27 109.15C182.59 111.3 179 114.28 179.15 119.68C180.27 119.98 181.3 120.26 182.03 120.45V120.44ZM248.79 75.5802C250.62 74.1002 251.84 72.2702 253.05 72.2802C257.15 72.3102 259.87 69.3402 263.39 68.1702C268.08 66.6102 272.43 64.2202 275.57 60.2202C276.64 58.8502 277.58 57.1302 277.87 55.4502C278.64 50.9502 275.56 48.4002 271.32 49.9402C265.24 52.1502 259.47 55.0502 255.69 60.5502C253.1 64.3202 251.03 68.4602 248.83 72.4802C248.52 73.0602 248.79 73.9502 248.79 75.5702V75.5802ZM96.5202 121.17C97.2902 120.9 98.0002 120.84 98.4702 120.47C105.6 114.74 112.71 108.95 118.33 101.64C120.4 98.9402 122.02 95.8801 123.75 92.9302C124.56 91.5502 125.24 90.0302 123.56 88.0502C119.52 91.3302 115.47 94.3202 111.76 97.6902C107.53 101.55 103.58 105.72 99.5702 109.81C96.5102 112.93 95.2002 116.58 96.5102 121.16L96.5202 121.17ZM340.08 70.7902C337.59 73.8002 334.73 76.5902 332.67 79.8702C327.2 88.6302 322.06 97.6002 316.82 106.51C315.81 108.22 315.09 110.01 316.05 112.08C319.44 109.19 338.9 76.9702 340.08 70.7902Z" fill="black"/>
<path d="M792.161 98.9701C791.781 100.38 791.621 101.9 790.981 103.18C789.371 106.42 787.671 109.63 785.751 112.69C784.391 114.86 782.621 116.76 781.251 118.51C778.861 118.21 778.451 117.15 778.571 115.62C779.061 109.67 780.641 104.01 783.011 98.5601C787.601 88.0101 792.191 77.4501 796.831 66.9201C798.901 62.2201 798.371 57.3301 795.241 53.8201C794.931 53.9001 794.511 53.8801 794.321 54.0801C791.441 57.2301 788.571 60.4001 785.731 63.5901C784.201 65.3101 782.801 67.1301 781.231 68.8101C775.271 75.1701 769.241 81.4801 763.271 87.8401C756.471 95.0801 748.321 100.67 740.521 106.69C738.311 108.39 736.021 110 733.711 111.57C728.551 115.06 726.861 120.67 725.011 126.09C720.601 139 716.301 151.93 713.041 165.21C710.261 176.52 707.171 187.76 703.881 198.93C703.081 201.66 701.101 204.11 699.341 206.46C697.941 208.32 696.281 208.26 694.801 206.59C691.361 202.7 688.881 198.59 689.251 192.91C689.721 185.85 689.211 178.73 689.381 171.64C689.481 167.38 689.421 162.95 690.591 158.93C692.501 152.35 694.601 145.75 698.341 139.83C701.581 134.71 705.591 129.94 706.921 123.83C708.131 118.26 709.011 112.63 710.151 106.42C707.291 108.74 706.221 111.43 705.251 114.13C703.431 119.22 700.431 123.48 696.411 127.03C693.691 129.44 690.981 128.54 690.461 124.94C690.181 123.01 690.001 120.85 690.571 119.05C693.011 111.4 695.771 103.85 698.361 96.2501C698.811 94.9301 699.031 93.5301 699.361 92.1701C699.041 92.0501 698.711 91.9201 698.391 91.8001C696.801 94.9801 695.091 98.1101 693.641 101.36C691.831 105.41 690.301 109.59 688.521 113.66C686.291 118.77 683.961 123.83 681.611 128.89C678.161 136.31 674.821 143.79 671.111 151.08C669.121 155.01 666.551 158.66 664.071 162.31C663.011 163.88 661.331 164.79 659.331 163.94C657.451 163.14 656.831 161.54 656.721 159.56C656.381 153.78 658.701 148.6 660.321 143.27C661.551 139.21 663.171 135.28 664.581 131.28C666.881 124.78 669.151 118.27 671.431 111.76C673.221 106.65 675.031 101.54 676.771 96.4201C679.411 88.6501 682.291 80.9501 684.511 73.0601C685.951 67.9301 686.941 62.5601 686.111 56.3701C684.881 57.3101 683.901 57.6901 683.561 58.3701C678.091 69.4101 672.671 80.4701 667.301 91.5601C664.081 98.2201 660.811 104.87 657.871 111.65C652.381 124.32 647.091 137.09 641.761 149.83C641.321 150.87 641.001 152.03 640.951 153.15C640.711 158.74 637.841 163.49 635.971 168.53C634.981 171.22 632.921 173.56 630.231 174.92C628.121 174.33 628.071 173.01 628.491 171.39C630.661 162.96 632.721 154.49 634.971 146.08C638.031 134.65 641.501 123.32 644.291 111.83C646.501 102.75 648.101 93.5101 649.671 84.2901C650.411 79.9401 649.841 75.3201 650.921 71.0901C652.661 64.2601 655.231 57.6401 657.541 50.9501C658.051 49.4701 659.111 48.2001 660.891 48.8301C662.661 49.4501 662.611 50.9101 662.171 52.5301C661.051 56.6501 659.901 60.7701 659.021 64.9501C657.801 70.7301 656.981 76.5901 655.701 82.3501C653.751 91.1601 651.581 99.9201 649.451 108.68C647.671 115.98 645.811 123.26 644.541 130.9C644.901 130.54 645.431 130.24 645.601 129.81C648.431 122.48 651.111 115.08 654.051 107.79C655.341 104.6 657.241 101.67 658.661 98.5301C665.411 83.5501 672.001 68.4901 680.921 54.6201C682.781 51.7301 684.901 48.9801 687.171 46.4101C688.281 45.1601 690.031 44.4901 692.201 43.1001C692.621 45.0701 693.221 46.2801 693.081 47.4001C691.461 59.7701 689.891 72.1701 685.911 84.0701C682.371 94.6601 678.631 105.19 675.041 115.76C672.361 123.64 669.811 131.57 667.141 139.46C665.871 143.2 664.441 146.89 663.141 150.62C662.681 151.95 662.401 153.35 661.771 155.69C665.071 153.46 666.651 151.27 667.591 148.47C668.101 146.97 668.801 145.52 669.531 144.1C670.801 141.63 672.251 139.24 673.461 136.74C675.661 132.18 677.811 127.6 679.851 122.96C683.461 114.73 686.861 106.42 690.551 98.2201C692.901 92.9901 695.681 87.9601 698.151 82.7801C701.111 76.5901 703.871 70.3001 706.851 64.1201C708.201 61.3101 710.031 58.7201 711.351 55.9001C714.711 48.7501 717.841 41.4901 721.211 34.3401C721.991 32.6901 723.341 31.3101 724.831 29.2401C726.371 32.2701 726.161 34.4901 725.421 36.6501C724.181 40.2301 723.041 43.8601 721.441 47.2801C718.371 53.8301 715.651 60.4501 713.711 67.4701C711.801 74.3901 708.751 80.9901 706.361 87.7901C703.041 97.2401 699.871 106.74 696.671 116.24C696.481 116.79 696.651 117.46 696.651 118.78C697.801 117.94 698.751 117.59 699.111 116.92C702.451 110.7 705.721 104.43 708.961 98.1501C715.461 85.5601 719.721 72.0601 725.061 58.9901C728.831 49.7501 733.491 40.8801 737.731 31.8301C738.501 30.1901 739.121 28.4801 739.931 26.8701C741.141 24.4701 742.741 22.5001 746.081 22.3901C746.491 26.1801 745.091 29.3101 743.811 32.4301C743.001 34.3901 742.081 36.3401 740.971 38.1501C734.891 48.0301 731.001 58.9001 726.861 69.6501C725.221 73.9201 724.211 78.4301 722.851 82.8101C721.841 86.0901 720.691 89.3301 719.661 92.6001C717.941 98.0701 716.131 103.52 714.601 109.05C713.531 112.93 712.861 116.93 711.801 121.87C713.601 120.96 714.371 120.59 715.141 120.18C723.691 115.66 726.771 107.49 729.861 99.0301C733.211 89.8301 737.471 80.9701 741.281 71.9401C744.791 63.6101 748.021 55.1601 751.751 46.9301C755.151 39.4201 759.341 32.3401 765.281 26.4601C766.861 24.8901 768.451 23.9801 770.191 26.4701C769.281 30.6801 766.091 33.4901 763.821 36.8501C762.181 39.2801 760.531 41.7301 759.191 44.3301C757.161 48.2701 755.291 52.3001 753.541 56.3801C749.651 65.4501 745.941 74.6101 742.051 83.6801C739.401 89.8601 736.541 95.9501 733.841 102.1C733.421 103.05 733.341 104.16 733.031 105.47C733.971 105.34 734.551 105.45 734.841 105.2C740.091 100.73 745.301 96.2101 750.531 91.7201C752.401 90.1201 754.281 88.5201 756.191 86.9701C764.401 80.3101 770.841 71.9401 778.101 64.3701C783.891 58.3401 788.821 51.5401 795.551 46.3001C800.801 42.2001 805.071 36.8501 809.771 32.0701C811.951 34.3001 811.651 37.1401 810.691 40.5201C809.621 44.2601 809.391 48.2701 809.061 52.1901C808.601 57.7501 808.371 63.3201 808.071 68.8901C808.041 69.3601 808.231 69.8301 808.401 70.7501C809.051 70.2001 809.651 69.9201 809.861 69.4701C812.881 62.8201 817.781 57.3701 821.461 51.1701C823.961 46.9601 827.191 43.6601 830.741 40.4901C833.421 38.1001 833.471 38.0501 837.071 40.6001C834.541 48.0301 831.821 55.5001 831.511 63.8201C832.671 62.7501 833.821 61.6701 834.991 60.6101C838.641 57.2901 842.241 53.9201 845.981 50.7101C847.061 49.7801 848.501 49.1901 849.871 48.6701C852.151 47.8101 854.541 47.2201 856.821 46.3501C860.001 45.1401 860.931 45.4601 863.181 48.0701C865.561 50.8301 866.371 53.8201 866.481 57.5001C866.771 66.8001 864.661 75.4301 860.651 83.7201C859.821 85.4401 859.281 87.3001 859.321 89.5401C860.261 88.5301 861.481 87.6601 862.111 86.4801C866.361 78.4401 872.281 71.5901 877.871 64.5601C880.601 61.1301 884.241 58.4001 887.621 55.5501C890.581 53.0601 892.661 50.0301 894.541 46.6901C896.471 43.2701 898.701 39.9501 901.231 36.9501C903.931 33.7401 909.581 35.3101 910.811 39.4301C911.321 41.1501 911.471 42.9801 911.851 44.7401C912.231 46.4801 912.691 48.2001 913.281 50.5701C916.331 47.5201 919.041 45.0001 921.511 42.2601C923.541 40.0101 925.521 39.1001 928.361 40.8601C930.851 42.4001 933.561 43.5701 936.091 45.0401C936.721 45.4101 937.201 46.2401 937.491 46.9601C938.661 49.7801 938.841 52.6501 937.991 55.6501C937.321 58.0001 937.221 60.5201 936.521 62.8601C935.641 65.8101 934.421 68.6601 933.151 72.1101C937.001 70.5001 938.051 65.4001 942.781 65.6901C943.941 68.5001 942.061 70.2301 940.351 71.8701C938.931 73.2301 937.381 74.5001 935.721 75.5301C928.011 80.3301 924.041 88.2201 919.151 95.3601C911.301 106.83 901.961 117.02 891.731 126.33C887.771 129.93 883.201 133 877.481 133.74C875.751 133.96 874.171 135.41 872.181 136.47C871.471 134.25 870.121 132.88 867.751 132.04C864.751 130.98 863.241 126.71 863.701 123.25C865.421 110.27 869.721 98.0301 874.381 85.9101C876.381 80.7001 878.651 75.6001 880.431 69.9201C879.511 70.7901 878.401 71.5401 877.701 72.5601C872.901 79.6301 868.191 86.7601 863.461 93.8701C859.821 99.3401 856.121 104.79 852.561 110.31C849.461 115.12 846.521 120.03 843.491 124.88C843.151 125.42 842.651 125.84 842.151 126.39C839.611 125.87 839.351 124.17 839.991 122.32C841.181 118.9 842.581 115.56 843.911 112.19C846.151 106.56 848.411 100.95 850.651 95.3201C852.881 89.7101 854.791 83.9501 857.391 78.5301C860.291 72.4701 860.641 66.1801 860.321 59.7401C860.111 55.4001 858.671 54.6201 854.361 55.1901C846.881 56.1601 841.821 60.9701 837.491 66.3101C831.071 74.2101 826.131 83.1301 821.561 92.2601C818.471 98.4301 814.991 104.39 811.611 110.41C810.991 111.52 810.041 112.45 809.141 113.59C806.551 112.44 806.741 110.32 807.371 108.54C808.681 104.83 810.201 101.18 811.891 97.6301C815.991 89.0301 820.851 80.7301 824.201 71.8501C826.401 66.0301 826.511 59.4101 827.581 52.9901C826.761 53.1301 826.291 53.0901 826.211 53.2501C821.681 61.6101 815.701 69.1401 812.371 78.1801C811.361 80.9301 809.951 83.6001 808.321 86.0301C804.471 91.7601 802.851 98.3201 801.001 104.78C797.521 116.95 794.241 129.18 790.721 141.33C790.051 143.65 789.941 146.71 786.101 147.37C785.821 146.2 785.221 145.12 785.381 144.16C785.941 140.78 786.741 137.44 787.491 134.09C787.741 132.97 788.091 131.87 788.401 130.77C791.361 120.19 794.361 109.63 797.231 99.0201C797.871 96.6601 797.931 94.1501 798.431 91.7501C799.201 88.0601 800.281 84.4301 800.961 80.7201C801.751 76.3701 802.291 71.9701 802.841 67.5901C802.901 67.0901 802.381 66.5101 801.791 65.2401C801.271 66.1601 800.931 66.5401 800.831 66.9801C798.081 79.2401 790.771 89.7601 787.081 102.8C789.301 101.14 790.771 100.05 792.241 98.9601L792.211 98.9401L792.161 98.9701ZM917.051 88.0201C912.541 87.7001 908.981 87.7401 905.531 87.1301C901.641 86.4401 898.661 82.9301 899.091 79.0901C899.631 74.2501 900.571 69.3501 902.151 64.7601C903.651 60.3801 906.181 56.3501 908.511 51.6701C906.821 52.2401 905.491 53.0801 904.171 53.0601C896.861 52.9401 893.191 58.0601 890.381 63.3801C886.581 70.5701 883.731 78.2801 880.451 85.7501C876.121 95.5801 873.901 106.09 870.701 116.28C870.221 117.8 870.281 119.54 870.321 121.17C870.401 124.72 873.481 127.07 876.991 126.24C882.981 124.82 888.661 122.86 892.681 117.68C894.181 115.74 896.241 114.24 897.861 112.38C903.451 105.93 909.001 99.4501 914.451 92.8801C915.531 91.5801 916.101 89.8401 917.051 88.0101V88.0201ZM720.961 123.76C720.631 123.4 720.291 123.04 719.961 122.68C718.941 123.26 717.701 123.63 716.941 124.45C714.371 127.21 711.701 129.94 709.621 133.05C708.311 135.01 707.491 137.6 707.371 139.96C707.291 141.6 708.771 143.33 709.751 145.45C708.461 146.43 707.021 147.53 705.291 148.86C704.391 146.63 703.771 145.11 703.081 143.4C698.621 147.72 694.151 162.83 693.321 175.2C692.741 183.82 693.861 192.17 696.901 200.44C698.031 199.28 698.721 198.07 699.151 196.77C699.721 195.06 700.041 193.28 700.551 191.55C702.791 183.84 705.151 176.16 707.281 168.42C708.501 164 709.381 159.49 710.391 155.02C711.001 152.31 711.431 149.56 712.161 146.89C713.221 142.97 714.261 139.01 715.711 135.23C717.211 131.32 719.201 127.6 720.981 123.79L720.961 123.76ZM932.241 45.2001C928.681 47.6601 925.931 49.7001 923.031 51.4901C921.121 52.6701 919.061 54.0501 916.941 54.3001C913.911 54.6701 912.191 56.0701 910.911 58.6101C908.061 64.2201 906.121 70.1001 905.341 76.3601C904.981 79.2101 905.511 79.8301 908.351 79.8801C909.421 79.9001 910.551 80.0201 911.541 80.3701C915.611 81.8201 922.651 79.9201 924.581 76.1201C927.701 69.9901 930.631 63.7001 932.941 57.2301C934.211 53.6801 934.291 49.6001 932.241 45.2001ZM905.161 41.4601C904.021 43.2301 901.431 44.3501 902.651 47.3501C905.651 46.1301 906.171 44.1001 905.161 41.4601Z" fill="black"/>
<path d="M609.031 149.89C614.261 147.25 615.841 142.36 619.021 138.98C622.091 135.72 624.281 131.63 626.851 127.9L627.851 128.44C627.121 130.66 626.651 133.01 625.601 135.06C624.051 138.1 621.661 140.76 620.421 143.9C618.801 147.98 614.501 149.52 612.621 153.22C612.421 153.61 611.901 153.92 611.461 154.08C609.121 154.93 603.501 151.28 603.361 148.76C602.991 142.16 603.581 135.62 604.981 129.16C606.341 122.9 607.761 116.65 609.131 110.39C609.231 109.95 609.051 109.45 608.901 108.04C607.501 110.11 606.201 111.45 605.561 113.06C601.991 121.89 596.051 129.03 589.691 135.88C588.481 137.19 586.971 138.28 585.461 139.23C581.431 141.77 578.301 140.8 577.451 136.05C576.681 131.77 576.441 127.12 577.251 122.89C579.261 112.38 583.081 102.35 586.841 92.3401C588.281 88.5001 589.731 84.6601 591.071 80.7801C591.361 79.9501 591.191 78.9701 590.551 77.8501C587.611 83.2501 584.701 88.6701 581.721 94.0601C578.561 99.7701 575.391 105.48 572.131 111.12C569.091 116.38 566.101 121.68 562.731 126.73C560.191 130.53 557.201 134.05 554.191 137.51C552.761 139.15 550.651 140.22 548.411 139.09C546.261 138 544.601 136.18 545.051 133.55C545.821 129.04 546.351 124.39 547.911 120.15C551.311 110.91 555.311 101.9 559.261 92.3101C558.211 92.5601 557.141 92.4901 556.651 92.9901C554.511 95.1801 552.171 95.3301 549.401 94.4301C548.031 93.9901 546.441 94.3101 545.011 93.9901C543.631 93.6801 542.291 93.1001 541.011 92.4601C538.711 91.3101 536.561 89.7801 534.161 88.9301C533.071 88.5401 531.541 89.4101 530.211 89.7101C529.371 87.2701 531.141 84.7601 535.521 82.1801C540.541 84.2901 545.931 86.5501 551.961 89.0801C560.521 85.2501 563.791 75.3101 570.161 68.2901C573.071 69.6301 572.921 71.5001 572.091 73.4401C570.811 76.4601 569.341 79.3901 568.081 82.4201C565.241 89.2301 562.381 96.0401 559.721 102.92C556.631 110.9 553.681 118.94 550.841 127.01C550.121 129.06 550.101 131.35 549.681 134.04C558.291 127.35 563.201 118.79 568.011 110.2C574.111 99.3201 579.831 88.2401 585.971 77.3801C590.491 69.3901 595.431 61.6301 600.151 53.7501C600.991 52.3401 601.631 50.8001 602.411 49.3501C603.551 47.2101 604.301 44.5901 606.011 43.1001C607.601 41.7301 610.241 41.6001 612.561 40.8701C615.221 43.0501 614.461 46.0301 613.901 48.5801C612.651 54.1901 611.201 59.7801 609.361 65.2201C607.581 70.4801 605.381 75.6301 603.041 80.6701C598.691 90.0501 593.931 99.2401 589.681 108.65C586.841 114.93 584.441 121.42 582.131 127.91C581.471 129.78 581.801 132.01 581.631 134.9C583.451 134.1 584.641 133.92 585.311 133.22C587.371 131.11 589.341 128.89 591.161 126.57C594.391 122.44 597.691 118.34 600.591 113.99C603.131 110.17 606.051 106.7 608.921 103.16C610.921 100.69 611.811 97.2801 613.011 94.2201C616.411 85.5101 619.561 76.7101 623.081 68.0501C625.931 61.0501 629.371 54.3401 634.351 48.5301C635.871 46.7501 636.981 44.6301 638.361 42.5401C641.931 45.0801 640.921 47.9201 639.731 50.3601C637.271 55.3801 634.441 60.2201 631.781 65.1401C630.611 67.3001 629.301 69.4001 628.371 71.6701C624.191 81.8701 620.111 92.1101 616.041 102.36C615.441 103.88 615.021 105.49 614.671 107.09C612.921 114.91 610.961 122.7 609.601 130.59C608.711 135.74 608.671 141.05 608.341 146.29C608.281 147.2 608.691 148.13 609.051 149.9L609.031 149.89Z" fill="black"/>
<path d="M19.8708 59.1502C16.6508 55.0802 17.6608 49.7602 22.1008 47.5202C23.9808 46.5702 26.1708 46.2702 28.1608 45.5302C31.4508 44.3002 34.6908 42.9502 37.7108 40.9502C38.6708 41.1402 39.6508 41.5702 40.5908 41.4902C47.3908 40.9002 49.7208 45.3802 51.9308 50.6902C54.1508 56.0402 54.7208 61.4602 54.5908 67.1102C54.5508 68.7502 54.5508 70.4202 54.8008 72.0402C55.0308 73.5602 56.2608 74.5402 57.6708 73.9102C60.2708 72.7302 63.1908 72.3702 65.0708 69.4802C67.9408 65.0802 71.2108 61.0102 73.1908 56.0102C74.3208 53.1602 76.4608 50.7002 78.2408 48.1402C79.8108 45.8802 82.0608 45.0802 84.7408 45.6502C87.2508 46.1802 87.8908 48.1202 88.3808 50.3602C89.5208 55.6002 89.6208 60.7602 88.1608 65.9702C86.6508 71.3602 85.6508 76.6802 86.8708 82.4702C87.9608 87.6502 86.1508 92.4902 81.9808 96.2202C80.9308 97.1602 80.2608 98.5602 79.4808 99.7902C78.9008 100.7 78.4408 101.68 77.5008 103.42C76.9108 101.79 76.4008 100.98 76.3608 100.15C76.2508 97.6802 76.1208 95.1802 76.3808 92.7402C76.5808 90.8402 77.3808 89.0002 77.8908 87.1302C78.3608 85.4302 79.1208 83.7402 79.1908 82.0202C79.3408 77.9702 78.8008 77.6602 74.8108 77.1602C67.4408 76.2402 68.5508 76.4502 65.9008 82.6102C63.3808 88.4602 61.5208 94.6802 60.1208 100.91C58.0108 110.27 58.3108 119.88 58.6008 129.43C58.6408 130.68 59.1908 132.02 59.8408 133.11C61.5408 135.95 63.8708 136.3 66.3808 134.11C67.9908 132.71 69.6008 131.23 70.9208 129.56C75.5708 123.66 80.8108 118.18 84.2308 111.37C84.6308 110.57 85.4208 109.95 86.2208 109.03C87.7208 111.08 87.2208 112.81 86.3608 114.37C81.6908 122.87 77.4708 131.63 70.1608 138.41C66.8608 141.47 63.0908 142.58 59.3108 141.06C55.4908 139.53 53.5908 136.06 53.4908 131.55C53.2308 119.84 53.8308 108.2 55.6808 96.6402C55.9408 95.0402 56.7308 93.5402 57.2308 91.9702C58.5908 87.7002 59.9308 83.4202 61.3508 78.9402C54.9108 80.1302 54.8408 80.4602 54.4908 86.1602C54.1808 91.2202 53.4208 96.2602 52.7108 101.29C51.7608 107.95 50.9808 114.65 49.5608 121.21C46.9508 133.26 41.0808 143.58 31.8508 151.85C29.3508 154.09 27.9608 153.94 25.1608 151.34C26.9008 149.76 28.8408 148.36 30.3308 146.59C33.1708 143.21 35.8608 139.67 38.4308 136.08C42.1408 130.91 44.0708 124.93 45.5908 118.86C47.6308 110.71 49.1808 102.49 48.7408 93.9902C48.6008 91.2502 49.3308 88.4602 49.5908 85.6902C49.6508 85.0802 49.3608 84.4402 49.1308 83.3102C44.3408 85.9702 40.0508 88.7702 36.1508 92.1702C33.5508 94.4302 30.8408 96.6002 28.4208 99.0302C22.9608 104.51 17.6408 110.13 15.1708 117.75C14.3708 120.21 13.1208 122.39 12.8808 125.17C12.4408 130.22 15.1708 133.96 17.0508 138.06C18.7808 141.83 20.5708 145.52 19.9508 149.83C19.8408 150.59 19.5208 151.32 19.3408 151.93C17.2208 152.58 16.1908 151.37 15.4808 150.11C13.8808 147.25 12.1808 144.4 11.0608 141.34C9.16081 136.16 6.31081 131.26 7.04081 125.3C7.81081 119 9.72081 113.53 13.7908 108.37C19.8408 100.7 26.4708 93.6502 33.5308 87.0002C37.1808 83.5602 41.0308 80.1602 46.1508 78.8002C48.5508 78.1602 49.6508 76.2102 49.5508 73.9002C49.2808 68.0002 49.1508 62.0502 48.2308 56.2402C47.8208 53.6502 45.8708 51.1902 44.2608 48.9402C42.6408 46.6802 40.0808 47.2202 37.9208 48.0102C31.7808 50.2802 25.4508 52.3402 21.5108 58.2202C21.2008 58.6802 20.4408 58.8402 19.9208 59.1202L19.8708 59.1502ZM84.7608 52.2202C77.7508 56.8802 75.9208 63.7902 72.0208 69.1502C71.5708 69.7602 71.8308 70.8902 71.7608 71.7902C73.8908 71.7902 75.6608 71.6202 77.3808 71.8202C81.0608 72.2502 82.4208 71.3602 83.1208 67.6602C83.7608 64.2702 84.4308 60.8902 84.9208 57.4902C85.1208 56.1302 84.8508 54.6902 84.7608 52.2102V52.2202Z" fill="black"/>
<path d="M515.661 75.5601C515.661 73.6201 515.331 72.5201 515.711 71.7901C519.861 63.6901 524.121 55.6501 528.471 47.3501C532.311 49.5701 531.701 52.9301 530.841 55.0901C527.321 63.8501 527.511 73.2301 526.621 82.2401C525.681 91.7701 523.211 100.97 522.411 110.44C521.681 119.1 519.761 127.66 520.171 136.44C520.281 138.84 519.641 141.35 518.951 143.69C518.651 144.71 517.401 146.02 516.461 146.13C514.891 146.31 514.421 144.72 514.401 143.33C514.351 139.54 514.011 135.7 514.451 131.96C515.541 122.68 516.461 113.32 518.481 104.23C520.131 96.7801 520.181 89.2501 521.271 81.8001C521.931 77.2601 522.601 72.7201 523.191 68.1701C523.311 67.2701 523.091 66.3301 523.001 65.0001C521.321 68.1501 519.931 70.8901 518.391 73.5501C518.031 74.1701 517.161 74.4901 515.661 75.5601Z" fill="black"/>
<path d="M642.94 90.6001C645.42 93.7201 644.91 95.8301 643.85 97.9501C640.44 104.78 637.84 112 633.69 118.49C632.15 120.9 631.26 123.74 629.78 127.03C629.11 125.95 628.23 125.13 628.39 124.68C629.09 122.69 630.08 120.81 630.98 118.89C633.67 113.15 636.46 107.46 639 101.66C640.42 98.4201 641.4 94.9901 642.94 90.6101V90.6001Z" fill="black"/>
<path d="M792.191 98.99C792.001 96.6 792.561 94.51 794.871 92.79C795.341 95.64 794.311 97.53 792.161 98.97L792.191 98.99Z" fill="black"/>
<path d="M816.172 39.02C816.092 37.27 816.012 35.53 815.932 33.78C816.162 33.76 816.382 33.73 816.612 33.71C816.892 35.39 817.172 37.06 817.452 38.74C817.022 38.84 816.592 38.93 816.172 39.03V39.02Z" fill="black"/>
</svg>
