<svg width="950" height="220" viewBox="0 0 950 220" fill="none" xmlns="http://www.w3.org/2000/svg">
<path d="M187.32 124.1C195.19 120.06 202.54 115.13 210.39 111C224.58 103.54 239.61 99.45 255.39 97.65C269.13 96.08 282.88 94.65 297.22 93.09C300.8 89.79 303.04 85.05 305.44 79.7C291.46 83.16 277.94 85.24 264.35 87.75C263.93 83.59 266.52 82.82 268.39 81.53C280.91 72.87 294.61 66.43 308.5 60.42C314.89 57.66 320.77 54.1 326.61 50.44C329.29 48.76 331.8 47.5 335.54 49.1C330.7 54.99 322.87 57.17 319.14 64.08C325.55 72.59 327.99 82.12 326.18 93.17C318.18 96.25 309.26 95.16 300.31 97.85C289.95 113.77 281.18 131.41 270 147.69C280.53 138.15 291.29 128.83 301.54 119C312.04 108.94 323.91 100.71 336.49 91.95C334.17 75.82 342.46 64.63 355.13 55.96C358.96 53.34 362.59 53.41 367.65 55.14C372.71 62.23 367.69 69.78 368.55 77.74C360.43 84.06 350.44 87.64 341.94 94.09C348.7 96.04 354.78 94.07 360.34 91.4C361.6 88.78 359.35 87.01 360.97 84.03C367.69 79.21 376.71 83.95 384.53 81.28C386.69 80.27 385.54 77.51 387.17 76.3C387.6 76.11 387.99 75.8 388.39 75.79C398.8 75.52 407.3 70.7 415.15 64.47C424.1 57.36 433.35 50.58 440.76 41.72C442.24 39.95 444.02 39.84 446.79 41.31C440.35 52.8 427.07 57.43 418.89 69.16C434.01 67.86 446.94 63 460.38 60.9C473.81 58.8 487.1 55.88 501.37 55.75C500.19 60.48 497.41 60.41 494.93 60.32C478.1 59.77 461.9 64.01 445.8 67.74C434.3 70.4 422.37 71.53 411.26 75.93C409.44 76.65 407.42 76.89 406.93 79.76C416.14 84.87 425.46 90.15 433.9 95.9C442.97 98.14 451.01 94.24 459.31 93.2C463.73 92.65 467.57 88.78 470.33 85.08C469.42 78.6 467.13 76.18 461.15 76.33C452.28 76.56 443.47 78.08 434.56 77.55C432.33 77.42 429.68 78.5 428.19 75.59C429.12 72.09 431.97 72.93 434.48 72.67C447.03 71.36 459.55 72.97 472.08 72.9C475.33 72.88 478.59 72.78 481.84 72.92C485.15 73.06 486.85 69.42 490.13 69.65C491.92 69.78 491.93 71.96 493.89 72.76C502.8 73.15 512.301 72.48 521.641 73.86C522.481 75.57 522.16 76.89 520.36 78.28C510.92 76.44 501.01 76.14 491.14 76.44C487.04 77.9 485.23 81.56 483.27 84.82C476.53 95.98 468.32 106 459.9 115.88C458.84 117.12 457.91 118.16 455.39 117.18C457.06 107.14 468.81 102.76 470.76 91.99C467.15 92.99 465.88 95.59 462.91 97.03C453.11 95.92 443.48 101.69 433.12 100.89C423.41 93.05 413.04 86.84 402.31 82.29C392.05 90.25 384.91 99.51 375.8 108.04C374.16 102.07 370.14 98.83 366.51 94.65C356.51 94.68 346.99 104.21 336.49 96.84C326.08 102.09 317.84 109.78 309.33 116.97C300.76 124.21 292.89 132.26 284.65 139.88C276.4 147.52 267.93 154.92 259.81 162.69C251.69 170.46 244.73 179.31 237.31 187.74C230.11 195.92 223.85 204.93 216.39 212.96C214.27 208.23 216.97 205.57 218.96 202.64C228.13 189.17 240.14 178.11 250.27 165.42C266.79 144.74 281.05 122.65 294.03 99.67C294.23 99.31 294.26 98.86 294.51 97.95C289.39 95.89 284.24 98.05 279.51 98.79C272 99.95 264.44 100.01 256.94 100.86C238.82 102.92 222.12 108.7 206.23 117.29C188.76 126.73 173.68 139.28 160.26 153.75C153.55 160.99 146.49 168.14 142.45 177.48C141.63 179.38 140.3 180.8 137.32 179.61C137.47 173.22 141.58 168.59 145.43 164.26C159.53 148.41 173.96 132.84 188.28 117.19C195.88 108.89 203.52 100.63 211.14 92.35C212.74 90.61 214.33 88.87 215.36 86.09C203.81 87.15 192.9 91.59 180.99 89.73C190.66 79.49 201.62 71.1 213.77 62.82C210.63 62.12 208.13 62.04 205.44 62.46C200.96 63.16 196.61 64.56 192.01 64.71C188.48 64.83 186.24 67.29 184.15 69.87C173.53 83.04 161.7 95.08 149.55 106.82C148.04 108.28 146.86 110.36 144.35 109.95C135.73 98.12 123.49 93.08 109.76 90.65C91.1505 87.36 72.5905 89.71 54.2805 92.33C40.3005 94.33 26.6805 98.89 12.9405 102.48C10.2205 103.19 7.71047 104.39 4.98047 102.62C5.40047 99.33 8.32047 100.04 10.0505 99.54C24.1005 95.49 38.1005 91.16 52.3605 88C64.1305 85.39 75.7505 82.13 87.7705 80.5C96.0505 79.38 104.18 76.93 112.28 74.73C121.04 72.35 129.88 70.26 138.87 69.19C144.06 68.57 149 67.03 154.11 66.17C163.28 64.63 172.55 63.91 181.68 62.21C184.22 61.74 187.02 61.19 188.72 59.11C194.3 52.27 200.2 45.71 205.97 38.57C195.65 38.49 186.05 41.9 176.47 44.39C166.48 46.99 156.39 49.21 146.45 52.03C136.51 54.85 126.31 56.63 116.42 59.77C106.76 62.84 96.4705 64.16 88.0205 70.4C85.8405 71.09 83.5105 71.72 81.4705 69.98C80.9205 67.09 83.1205 66.93 84.8605 66.09C93.5005 61.94 102.94 60.29 111.96 57.34C132.68 50.57 154.18 46.77 175.22 41.18C190.63 37.09 206.12 33.25 221.45 28.81C223.42 28.24 225.86 26.34 228.82 29.6C221.94 33.51 214.48 36.37 209.2 42.06C203.83 47.84 197.58 52.93 193.25 60.68C198.1 60.76 202.23 59.42 206.42 59.84C211.03 60.31 215.44 58.83 219.95 58.3C224.06 57.81 228.19 55.98 232.48 59.64C214.94 63.26 202.8 75.17 188.65 86.57C200.11 85.03 210.15 83.25 220.04 80.62C221.61 80.2 222.71 79.17 223.67 78.01C231.7 68.39 239.69 58.73 248.1 48.61C248.95 48.1 250.37 48.04 252.19 49.17C254.17 54.75 254.21 61.13 256.71 67.41C250.59 72.47 243.53 76.14 236.4 78.42C226.28 81.65 219.72 88.3 213.22 95.96C204.99 105.67 196.01 114.74 187.35 124.08C187.03 124.57 185.85 124.26 186.1 125.6C186.61 124.96 186.97 124.51 187.33 124.07L187.32 124.1ZM181.66 66.17C148.03 69.01 116.56 77.39 84.9105 84.84C95.6505 86.07 106.3 86.67 116.88 88.98C128.03 91.42 137.13 97.02 146.01 104.87C158.59 92.73 170.84 80.75 181.66 66.17ZM277.32 81.18C288.37 80.06 299.19 78.46 309.3 73.82C311.44 72.84 313.92 71.18 316.13 74.73C310.14 79.24 306.71 85.22 304.06 92.22C310.44 93.09 315.96 91.47 321.41 90.34C323.74 79.18 321.01 70.38 312.73 62.23C300.83 68.17 288.04 72.6 277.32 81.18ZM340.56 89.66C348.33 85.49 355.83 81.46 362.95 77.64C366.32 68.96 366.67 62.28 364.15 58.28C352.03 57.7 340.99 72.1 340.55 89.66H340.56ZM248.88 54.16C242.2 61.77 235.95 68.57 230.23 77.04C238.18 73.69 245.2 70.68 251.95 66.72C250.89 62.37 249.99 58.68 248.88 54.15V54.16ZM377.08 99.89C383.05 94.22 388.9 88.66 395.83 82.08C386.32 85.79 377.66 87.47 370.28 92.69C372.6 95.55 374.46 98.16 377.08 99.89ZM365.08 87.93C369.15 91.75 370.6 86.81 373.13 86.25C370.46 85.47 367.8 84.67 365.08 87.93ZM481.72 80.2C477.674 83.54 475.877 86.5367 476.33 89.19C478.19 85.89 479.64 82.85 481.72 80.2ZM474.77 80.22C476.39 79.11 477.64 78.44 477.33 76.72C474.977 76.7667 473.644 77.1734 473.33 77.94C473.69 78.51 474.11 79.18 474.77 80.23V80.22ZM76.5205 86.84C77.7805 86.73 78.9005 86.78 78.6505 85.86C78.5005 85.32 77.3205 85.47 76.5205 86.84Z" fill="black"/>
<path d="M649.34 100.72C638.01 101.68 627.33 106.25 616.41 107.26C614.25 104.91 617.08 103.31 616.36 101.43C605.95 104.64 596 108.74 585.94 112.55C583.1 113.63 581.53 115.92 579.28 117.52C577.34 118.9 575.74 121.79 571.76 118.83C587.49 96.4398 605.39 75.9798 625.05 56.4298C617.24 58.1698 610.27 61.0698 602.79 62.0698C598.96 62.5798 595.82 64.6698 593.58 67.6598C577.79 88.6798 559.07 106.95 539.98 124.87C538.91 125.87 538.11 127.43 535.8 126.4C534.8 123.81 535.94 121.36 537.02 118.79C538.77 114.61 541.07 110.69 542.43 106.3C546.3 93.7398 542.23 82.7898 530.86 76.0298C530.26 75.6798 529.86 75.2598 529.85 73.9398C534.11 71.3398 539.15 70.4998 544.19 70.4298C555.94 70.2498 567.15 66.9998 578.58 64.9598C579 64.8798 579.39 64.5798 579.81 64.5398C590.64 63.6898 597.55 57.9198 603.11 48.6098C609.63 37.6898 615.98 26.6598 622.45 15.6998C623.77 13.4698 624.88 11.0998 626.27 8.91977C627.2 7.45977 628.41 6.04977 631.46 7.90977C621.33 24.3998 612.83 41.8098 600.71 58.4998C609.1 58.3298 615.05 54.8198 621.52 53.7698C631.61 52.1398 637.23 44.3898 643.64 37.9198C653.53 27.9398 663.63 18.2398 674.85 9.58977C676.67 9.05977 678.55 8.78977 680.93 10.5198C678.04 16.9198 674.02 22.7398 668.98 27.6298C665.09 31.3998 661.34 35.2898 657.94 39.4398C654.25 43.9398 649.95 47.3898 644.48 49.0898C636.98 51.4098 631.27 56.1298 625.73 61.4398C611.64 74.9298 599.18 89.8498 586.88 104.92C586.36 105.56 586.03 106.37 585.55 107.2C587.66 108.87 589.24 107.49 590.94 106.79C604.1 101.3 617.75 97.3798 631.49 93.6398C638.73 91.6698 645.55 88.1798 652.74 85.9998C659.07 84.0798 665.3 81.2198 672.22 82.0098C673.66 82.1698 675.28 81.7098 677 83.9898C671.93 87.3298 663.23 87.8898 665.54 97.5098C653.71 99.0098 649.32 108.81 641.19 116.42C648.92 115.23 654.82 112.59 660.34 109.95C671.61 104.56 682.89 99.1098 693.75 92.8098C701 88.5998 705.82 83.3298 707.15 75.0598C710.51 73.6598 713.88 72.7998 716.11 70.6598C719.08 70.5298 718.74 73.8398 720.9 73.9898C731.6 77.0298 743.37 73.0498 755.02 79.2498C738.94 87.7098 722.73 93.0898 707.69 101.36C715.12 102.81 722.02 99.6098 729.15 99.2998C736.76 98.9598 743.98 96.6098 751.38 95.2098C758.77 93.8098 765.96 91.2598 773.38 90.0798C780.48 88.9598 786.78 83.6098 794.8 86.1598C786.88 90.1798 779.58 94.6898 774.09 102.16C793.51 98.8198 810.55 90.3298 827.6 81.3698C825.99 89.2698 816.56 89.0498 812.82 96.5898C835.01 92.3698 856.7 90.9798 878.83 89.6098C878.06 84.9998 874.43 84.0198 871.24 82.6298C861.86 78.5498 851.94 76.4798 841.89 75.0298C832.5 73.6698 823.14 71.8198 813.56 72.5098C811.09 72.6898 808.83 72.4698 807.38 69.9298C811.15 67.3398 815.36 67.4298 819.32 68.2298C828.08 69.9998 836.97 68.8398 845.81 70.0498C853.03 71.0298 860.33 72.2798 867.5 73.3498C880.56 75.2898 893.72 75.8298 906.78 77.5098C917.46 78.8898 928.22 80.2698 939.02 80.7698C940.91 80.8598 942.9 80.3798 945.04 81.6598C940.35 86.3398 933.84 82.0698 928.08 85.6798C934.29 89.7898 940.48 92.7998 944.64 98.3298C936.76 101.37 902.28 103.82 898.12 101.3C903.05 91.6698 914.02 89.4498 921.61 82.3398C903.21 79.8198 885.12 79.4998 867.17 76.8998C874.42 80.0898 881.71 83.2098 886.52 90.5598C885.08 95.7198 884.11 101.35 880.25 106.52C875.71 101.48 881.79 97.2798 880.14 92.4598C875.19 91.9898 870.18 93.5198 865.11 93.7298C852.8 94.2598 840.57 95.6498 828.37 97.2098C821.96 98.0298 815.57 99.0898 809.24 100.41C806.17 101.05 804.11 103.61 802.27 106.03C791.25 120.5 779.84 134.62 766.64 147.21C763.96 149.77 761.51 152.51 757.17 152.9C753.46 149.59 751.72 144.39 746.95 141.69C739.15 137.27 731.07 133.84 722.12 133.02C710.77 131.97 699.57 129.87 687.94 131.92C677.95 133.69 669.48 138.07 661.79 143.95C649.44 153.4 637.28 163.15 625.73 173.55C617.22 181.22 608.82 189.04 600.44 196.87C598.63 198.56 597.15 201.1 593.57 199.33C595.25 192.46 599.98 187.84 604.54 183.07C616.42 170.63 631.31 162.01 644.58 151.35C658.75 139.96 671.52 127.1 682.89 114.37C684.51 111.91 682.65 110.59 683.46 108.41C687.12 104.67 694.09 103.41 695.85 96.4798C685.04 101.09 675.28 107.83 664.24 111.88C653.54 115.79 643.51 121.71 630.69 123.63C635.82 113.8 644.55 108.83 649.28 100.66L649.35 100.73L649.34 100.72ZM641.48 45.9398C645.48 45.4598 649.3 44.1098 651.49 40.6998C654.34 36.2498 658.35 32.9798 661.74 29.0898C664.67 25.7298 668.65 23.1798 670.1 18.6198C670.7 18.3098 671.67 18.5098 671.72 17.4398C670.64 17.1698 670.63 18.2298 670.15 18.6798C659.66 26.7898 650.4 36.1798 641.54 45.9898L641.3 46.2898L641.48 45.9298V45.9398ZM675.34 129.28C684.58 123.84 693.28 117.79 700.32 107.54C696.72 108.38 694.67 108.86 692.66 109.33C686.85 116.06 681.13 122.7 675.4 129.34L675.11 129.54L675.34 129.27V129.28ZM800.11 101.77C766.28 109.62 733.37 115.6 701.53 126.29C711.86 128.55 722.37 128.93 732.47 131.74C742.77 134.61 752.26 138.88 759.71 147.55C775.4 134.38 787.76 118.78 800.11 101.78V101.77ZM543.47 115.67C560.49 101.05 575.74 84.6898 590.04 66.0198C572.71 70.2998 556.1 72.3798 539.2 75.2998C547.5 88.3198 550.65 100.47 543.47 115.67ZM777.97 91.9798C753.64 99.3698 729.88 102.22 705.77 106.94C701.3 113.86 695.1 119.96 688.37 125.69C709.46 119.13 730.58 113 752.19 109.41C763.65 107.5 770.08 100.59 777.97 91.9798ZM708.64 95.4998C721.07 90.8398 732.69 85.3198 744.44 79.6798C735.03 79.1098 725.74 77.4998 716.14 78.3298C714.33 82.9698 709.81 85.0198 707.24 88.9098C706.98 91.0598 707.07 93.1598 708.63 95.4998H708.64ZM905.72 98.8598C915.95 100.22 925.33 97.3498 935.21 95.5898C926.13 85.5398 919.29 85.4398 905.72 98.8598ZM659.44 90.6098C648.82 90.9898 640.04 95.0398 631.41 99.6498C639.45 99.8198 646.86 96.5198 654.56 96.0498C656.64 94.8098 658.19 93.3898 659.44 90.5998V90.6098ZM704.3 93.8298C702.69 94.8398 702.55 96.2698 701.97 98.0798C704.51 97.1298 705.21 95.9498 704.3 93.8298ZM804.88 96.6198C804.19 97.9498 801.85 96.2398 801.4 98.6298C803.04 98.8398 804.12 98.1198 804.88 96.6198ZM626.28 101.12C626.8 101.71 627.22 101.46 627.58 100.94C627.61 100.9 627.34 100.57 627.29 100.59C626.94 100.74 626.61 100.93 626.28 101.12Z" fill="black"/>
</svg>
