<svg width="950" height="220" viewBox="0 0 950 220" fill="none" xmlns="http://www.w3.org/2000/svg">
<path d="M70.4204 101.34C68.3204 101.11 66.2104 100.63 64.1204 100.7C60.8504 100.81 57.5904 101.21 54.3404 101.63C51.3104 102.02 48.3104 102.65 45.2804 103.09C43.4004 103.36 41.4904 103.61 39.6004 103.6C36.1504 103.6 32.6904 103.39 29.2404 103.27C28.3904 103.24 27.5404 103.1 26.7004 103.18C23.3404 103.5 19.9904 103.94 16.6204 104.22C16.1304 104.26 15.5804 103.68 15.0604 103.39C15.3804 102.9 15.6004 102.11 16.0204 101.97C19.1304 101 21.7304 98.5801 25.2204 98.6601C25.5304 98.6601 25.8404 98.5501 26.1504 98.4601C28.5904 97.7701 31.0504 97.1501 33.4604 96.3701C37.0604 95.2001 40.5804 93.7901 44.2004 92.7201C47.4404 91.7701 50.7704 91.1601 54.0604 90.3501C57.9604 89.3901 61.9804 89.0201 65.8904 88.2501C69.3004 87.5801 72.7104 86.8701 76.1404 86.2801C78.2204 85.9201 80.3304 85.7001 82.3904 85.2801C84.2604 84.9001 84.6804 83.8501 83.3904 82.4801C81.7304 80.7101 79.8304 79.1601 78.0504 77.4901C74.2204 73.9001 69.2304 72.6001 64.5404 70.7201C63.8704 70.4501 63.1004 70.3901 62.3704 70.2901C58.6104 69.7701 54.8504 68.9001 51.0804 68.8701C48.0704 68.8501 45.0204 69.7401 42.1804 71.0201C39.7704 72.1001 37.4304 73.3801 34.9404 74.2101C31.6404 75.3101 28.2304 76.0701 24.8604 76.9601C24.4504 77.0701 23.9304 76.9501 23.6204 77.1601C21.5604 78.6001 19.4304 78.0701 17.1904 77.7101C15.5104 77.4401 14.3604 76.6301 13.7604 75.2301C13.1504 73.7901 13.9604 72.4801 15.0204 71.5401C16.9004 69.8501 18.8004 68.1401 20.8904 66.7201C26.7004 62.7801 33.0104 59.7501 39.6004 57.3701C45.9104 55.0901 52.3604 53.6301 59.1804 55.1401C62.3704 55.8501 65.6504 56.1101 68.8804 56.6401C69.6004 56.7601 70.2804 57.1201 70.9804 57.3701C71.9804 57.7201 72.9804 58.3601 73.9804 58.3601C76.9004 58.3401 79.2204 59.8001 81.6804 60.9801C82.5304 61.3901 83.3904 61.9101 84.3004 62.0601C88.6204 62.7801 92.0104 65.2801 95.5504 67.5901C99.3104 70.0401 102.71 72.8601 105.87 76.0401C109.57 79.7601 112.89 83.6801 114.53 88.8001C115.1 90.5701 115.33 90.6501 117.03 90.1401C120.67 89.0401 124.26 87.7901 127.9 86.6801C132.13 85.3901 136.37 84.1801 140.68 83.1201C145.78 81.8701 150.81 81.8401 155.86 82.2101C159.95 82.5101 164.11 82.5201 168.11 83.7301C169 84.0001 170.02 83.8301 170.96 83.9901C174.93 84.6501 178.55 85.8801 180.79 89.6201C182.1 91.8001 182.18 91.6401 184.86 91.2101C186.98 90.8701 188.96 90.2501 190.93 89.4201C192.58 88.7201 194.35 88.3301 196.08 87.8101C196.99 87.5401 198.01 87.4401 198.79 86.9601C199.31 86.6401 199.71 85.8001 199.75 85.1601C199.78 84.7201 199.18 84.1201 198.71 83.8001C198.21 83.4501 197.5 83.4201 196.94 83.1201C194.93 82.0601 194.8 80.4101 196.73 79.2301C197.89 78.5301 199.22 77.9201 200.54 77.7001C204.82 77.0001 209.08 76.0801 213.46 76.2701C217 76.4201 220.06 77.6001 222.57 80.1701C224.05 81.6901 225.49 83.3101 227.22 84.5201C229.54 86.1501 232.1 87.4501 234.6 88.8101C234.96 89.0001 235.9 88.9101 235.99 88.6901C236.88 86.6801 239.06 86.8501 240.57 86.1801C245.19 84.1201 250.02 82.5201 254.81 80.8601C256.6 80.2401 258.5 79.9301 260.35 79.5001C261.48 79.2401 262.65 79.1101 263.76 78.7601C266 78.0601 268.23 77.5401 270.61 77.5601C271.86 77.5601 273.1 77.0701 274.36 77.0201C279.16 76.8401 283.88 77.2501 288.41 78.9901C289.5 79.4101 290.61 79.7601 291.71 80.1201C292.41 80.3501 293.22 80.3801 293.82 80.7701C296.83 82.7201 299.78 84.7501 302.74 86.7801C303.09 87.0201 303.31 87.4401 303.66 87.6601C305.47 88.7801 306.69 90.1601 306.72 92.4901C306.77 95.3001 306.04 97.7401 303.96 99.6601C302.95 100.59 301.9 101.57 300.69 102.16C298.17 103.38 295.68 104.56 292.84 105.24C289.66 106 286.42 106.39 283.24 107.1C281.7 107.44 280.09 107.57 278.51 107.54C275.09 107.48 271.75 107.99 268.46 108.8C267.45 109.05 266.44 109.43 265.52 109.92C264.1 110.68 263.85 112.64 265.14 113.58C266.82 114.81 268.51 115.93 270.88 115.92C274.57 115.92 277.96 114.72 281.44 113.89C282.91 113.54 284.26 113.09 285.77 113.69C286.32 113.91 287.08 113.96 287.64 113.77C291.25 112.55 294.81 113.37 298.32 114.11C299.7 114.4 301.05 115.32 302.16 116.25C304.56 118.25 304.56 120.55 302.3 122.73C301.7 123.31 300.95 123.78 300.19 124.14C297.22 125.54 294.28 126.9 290.8 126.77C287.9 126.66 284.93 127.42 282.07 127.11C279.45 126.83 277.09 127.63 274.61 127.79C268.89 128.17 263.12 128.48 257.56 126.61C253.02 125.08 248.85 122.78 245.17 119.75C243.67 118.51 242.69 116.61 241.59 114.94C240.6 113.44 239.79 111.82 238.87 110.27C238.55 109.73 238.17 109.21 237.76 108.74C237.26 108.18 236.69 108.1 236.12 108.69C235.83 109 235.44 109.27 235.27 109.63C233.64 113.27 230.67 115.93 228.39 119.09C227.25 120.67 226.51 122.68 226.08 124.6C225.22 128.41 224.5 132.26 224.64 136.22C224.68 137.36 224.41 138.54 224.09 139.65C223.16 142.9 223.24 146.3 222.4 149.61C221.05 154.94 217.74 158.25 213.27 160.76C211.52 161.74 209.59 162.38 207.76 163.22C205.27 164.36 202.83 165.61 200.32 166.69C198.49 167.47 196.59 168.08 194.7 168.69C193.99 168.92 193.5 168.58 193.39 167.77C193.24 166.63 192.98 165.5 192.88 164.35C192.82 163.74 192.77 162.95 193.09 162.5C194.97 159.88 194.49 156.57 195.75 153.78C196.04 153.14 195.89 152.32 195.99 151.59C196.09 150.87 196.06 150.02 196.44 149.46C197.87 147.28 197.78 144.87 197.93 142.42C198.21 137.68 198.76 132.96 199.07 128.22C199.29 124.78 198.47 121.94 195.25 119.76C191.77 117.4 188.2 115.04 185.26 111.94C184.62 111.27 183.76 110.76 182.91 110.35C181.99 109.9 181.03 110.01 180.26 110.77C178.76 112.25 177.23 113.69 175.8 115.22C173.9 117.26 171.78 118.92 169.18 120.01C167.22 120.83 165.34 121.84 163.46 122.84C161.31 123.99 160.98 124.88 161.3 127.45C161.56 129.54 161.64 131.66 161.92 133.75C162.82 140.26 163.58 146.76 163.34 153.35C163.21 156.87 161.95 158.39 158.43 159.29C155.7 159.99 153 159.99 150.24 159.44C147.35 158.86 144.42 158.5 141.52 157.94C139.51 157.55 139.09 156.78 140.19 155.11C141.72 152.79 141.75 150.49 141.15 147.88C140.81 146.4 141.22 144.74 141.3 143.16C141.37 141.79 141.55 140.41 141.48 139.05C141.37 136.84 141.08 134.65 140.9 132.44C140.68 129.7 140.5 126.96 140.3 124.22C140.18 122.63 139.35 121.42 138.18 120.44C137.36 119.77 136.52 119.03 135.56 118.64C131.97 117.2 129.19 114.54 126 112.5C125.3 112.05 124.61 111.45 124.15 110.76C122.05 107.59 119.32 104.84 117.9 101.23C117.71 100.74 117.48 100.25 117.18 99.8101C117.03 99.6001 116.63 99.3701 116.45 99.4301C116.23 99.5101 115.97 99.9001 115.98 100.15C116.15 103.87 114.74 107.19 113.39 110.52C112.35 113.09 111.08 115.46 108.7 117.15C107.33 118.13 106.2 119.45 105.02 120.68C102.76 123.03 100.05 124.52 96.9804 125.64C89.9204 128.2 82.6704 129.37 75.1704 129.25C69.2004 129.16 63.2204 129.43 57.2704 129.15C52.3204 128.92 47.3404 128.7 42.4604 127.47C39.4004 126.7 36.2004 126.52 33.0604 126.07C31.4904 125.84 29.9304 125.63 28.3704 125.36C26.0904 124.97 23.8204 124.4 21.5304 124.16C19.0004 123.89 16.6804 122.55 14.0504 122.81C13.7704 122.84 13.1904 122.39 13.1904 122.15C13.1904 121.82 13.5104 121.36 13.8204 121.16C15.8804 119.87 17.9304 118.53 20.0804 117.4C23.4404 115.63 26.8804 114.01 30.2804 112.33C30.5604 112.19 30.8604 112.02 31.1604 112C35.4704 111.74 39.8004 110.67 44.0804 112.03C45.3704 112.44 46.6204 113.11 47.7604 113.86C49.5804 115.05 51.5304 115.51 53.6504 115.99C57.1804 116.78 60.3604 115.84 63.6504 115.15C66.8604 114.48 70.0704 113.82 73.0804 112.4C73.8904 112.02 74.9404 112.02 75.8804 112.04C78.8204 112.1 80.9504 110.7 82.6104 108.45C83.3004 107.52 83.8704 106.5 84.4804 105.5C85.7404 103.44 85.3604 102.65 83.0604 102.41C81.2704 102.23 79.4804 102.01 77.7004 101.78C75.3004 101.47 72.8904 101.13 70.4904 100.81C70.4704 100.97 70.4504 101.14 70.4304 101.3L70.4204 101.34ZM200.79 100.6C201.12 99.0801 200.33 98.4701 198.88 99.1101C197.53 99.7101 196.19 100.35 194.89 101.07C193.71 101.72 193.7 102.73 194.84 103.49C195.81 104.13 196.83 104.69 197.84 105.25C199.14 105.97 200.08 105.53 200.35 104.03C200.55 102.9 200.64 101.74 200.78 100.6H200.79ZM158.29 100.82C158.23 100.82 158.17 100.84 158.11 100.84C158.29 101.86 158.36 102.93 158.69 103.9C159.12 105.17 160.3 105.31 161.07 104.26C162.22 102.7 162.2 100.89 161.9 99.1201C161.81 98.5901 161.22 98.0501 160.74 97.6801C159.78 96.9501 158.53 97.4301 158.31 98.6101C158.18 99.3201 158.29 100.08 158.29 100.82ZM138.57 100.56C137.67 100.19 137.39 99.9801 137.12 100C136.74 100.02 136.37 100.2 136 100.31C136.22 100.59 136.39 101.01 136.67 101.1C136.95 101.19 137.33 100.94 138.56 100.56H138.57Z" fill="black"/>
<path d="M795.35 94.8501C793.32 94.8501 791.3 94.7801 789.27 94.8701C787.8 94.9401 786.34 95.1901 784.88 95.4001C782.07 95.8001 781.37 96.2401 782.27 99.7601C783.23 103.54 784.26 107.3 785.38 111.03C786.49 114.75 786.7 118.53 786.42 122.35C786.21 125.25 784.23 127.13 781.95 128.54C779.64 129.97 777.38 131.48 774.69 132.35C771.8 133.29 769.18 135.03 766.32 136.1C761.48 137.91 756.65 139.84 751.48 140.48C749.48 140.73 747.44 140.58 745.41 140.62C742.96 140.67 740.5 140.84 738.06 140.75C732.33 140.54 727.05 138.83 722.26 135.68C718.28 133.06 714.17 130.69 709.52 129.45C707.28 128.85 704.99 128.4 702.74 127.86C701.98 127.67 701.13 127.23 701.63 126.35C702.71 124.45 701.45 122.84 701.12 121.16C700.65 118.81 699.37 116.66 699.4 114.13C699.42 113.01 698.43 112.45 697.36 112.79C696.45 113.08 695.58 113.49 694.72 113.9C690.32 115.98 685.72 116.83 680.84 116.51C677.91 116.32 677.03 116.98 676.6 119.86C676.36 121.45 675.91 122.73 674.65 123.66C673.19 124.73 671.69 125.49 669.72 125.51C664.36 125.57 659.13 125.06 654.16 122.94C653.49 122.65 652.84 122.31 652.17 122.01C650.98 121.47 650.65 120.74 651.29 119.48C652.73 116.67 652.45 113.75 651.6 110.84C651.36 110.03 650.98 109.21 650.97 108.39C650.92 105.69 649.16 104.51 646.99 103.64C646.01 103.24 644.98 102.94 644.03 102.49C643.07 102.03 642.85 101.13 643.64 100.47C644.32 99.9001 645.23 99.4901 646.11 99.2801C648.19 98.7801 648.31 98.7301 648.32 96.5701C648.34 93.5801 646.45 90.7901 643.6 89.7301C641.13 88.8001 638.62 87.9601 636.15 87.0401C635.36 86.7501 634.57 86.3901 633.83 85.9801C631.41 84.6501 631.26 83.0901 633.4 81.3701C633.72 81.1101 634.11 80.8901 634.51 80.7901C636.66 80.2701 637.6 79.1501 637.55 76.7401C637.51 74.7001 639.5 73.6201 641.24 73.2701C645.69 72.3901 650.15 71.3701 654.78 71.7701C657.11 71.9801 659.39 72.2401 661.63 73.0201C664.42 73.9901 667.28 74.7501 670.12 75.5501C670.72 75.7201 671.39 75.7301 672.02 75.6901C678.1 75.3701 684.06 76.6301 690.07 77.1101C693.06 77.3501 696.03 78.5201 698.89 79.5801C702.46 80.9101 705.98 82.4101 709.39 84.1201C711.55 85.2001 713.44 86.8001 715.47 88.1301C718.21 89.9101 718.96 92.8901 719.81 95.6701C720.56 98.1301 718.43 101.54 716.02 103.17C713.14 105.11 709.75 105.64 706.65 106.96C705.28 107.54 703.95 108.21 702.65 108.92C702.37 109.07 702.12 109.63 702.18 109.94C702.23 110.24 702.73 110.73 702.98 110.69C705.12 110.42 706.87 111.61 708.76 112.21C710.18 112.66 711.55 112.9 713.07 112.84C714.62 112.77 716.21 113.17 717.75 113.53C719.8 114.01 721.8 114.74 723.86 115.2C728.24 116.18 732.01 118.25 734.98 121.56C736.54 123.3 738.04 123.91 740.28 123.01C742.92 121.95 745.66 121.13 748.36 120.22C750.16 119.61 751.93 118.84 753.78 118.5C755.18 118.24 756.42 117.86 757.56 117.02C758.67 116.21 759.85 115.49 761.04 114.81C764.5 112.81 765.35 110.68 764.18 106.89C763.02 103.17 763 103.15 760.38 105.84C754.84 111.52 748.08 113.28 740.56 111.31C735.38 109.96 731.08 106.96 727.4 102.88C723.93 99.0301 722.5 94.2901 720.39 89.8301C720.21 89.4501 720.03 89.0301 720.03 88.6301C720.01 85.0301 717.71 82.6001 715.61 80.0901C715.1 79.4801 714.14 79.2801 713.44 78.8101C712.39 78.1101 711.34 77.3901 710.37 76.5701C709.5 75.8401 709.73 74.8601 710.59 74.4601C711.9 73.8501 713.34 73.2701 714.76 73.1901C720.17 72.8901 725.6 72.7901 730.88 74.4101C731.18 74.5001 731.58 74.4601 731.79 74.6401C735.08 77.3401 739.29 79.1601 740.45 83.8901C740.82 85.4101 741.52 86.8501 742.01 88.3501C742.84 90.9001 744.37 93.0601 745.83 95.2601C746.33 96.0101 747 96.1901 747.71 95.5401C748.42 94.9001 749.13 94.2401 749.72 93.4901C750.83 92.1001 752.24 91.8601 753.71 92.5401C755.71 93.4601 758.01 93.7901 759.6 95.5801C760.16 96.2201 760.82 95.9001 760.88 95.0601C760.91 94.5301 760.95 93.9801 760.81 93.4801C759.53 88.9201 758.22 84.3701 756.9 79.8301C756.48 78.3801 755.44 77.5201 754.06 77.0501C752.66 76.5701 751.25 76.1001 749.82 75.7001C748.76 75.4001 748.15 74.8401 748.16 73.7001C748.16 72.5401 748.83 72.0601 749.89 71.7701C753.18 70.8601 756.45 70.1701 759.89 71.0901C762.95 71.9101 766.04 72.4601 768.98 73.8101C771.83 75.1201 773.77 77.2201 775.63 79.5201C776.16 80.1701 776.53 80.9601 777.04 81.6401C778.51 83.6001 780.1 85.0401 782.93 84.0601C784.49 83.5201 786.25 83.5201 787.94 83.4201C790.47 83.2801 792.62 82.1401 794.8 81.0701C798.06 79.4601 801.35 78.0201 805.11 78.2501C805.63 78.2801 806.18 78.1901 806.68 78.0401C812.32 76.3801 818 76.6201 823.72 77.4901C825.91 77.8201 828.18 77.7401 830.34 78.2101C834.8 79.1901 839.08 80.7401 843.17 82.8201C845.13 83.8201 846.63 85.2701 847.87 87.0101C849.39 89.1401 849.14 90.7001 847.01 92.3601C844.94 93.9801 842.46 94.5801 839.9 94.7701C837.99 94.9101 836.06 94.8201 834.15 94.8501C831.64 94.8801 830.5 96.0901 830.72 98.6201C830.83 99.8801 831.07 101.13 831.34 102.36C832.43 107.4 833.56 112.44 834.67 117.48C835.64 121.9 836.76 126.29 837.54 130.75C838.28 135.03 835.41 138.18 831.03 138.23C826.52 138.28 822.2 137.56 818.21 135.24C816.11 134.02 813.81 133.15 811.74 131.88C809.55 130.53 809.22 129.02 810.27 126.77C810.39 126.52 810.64 126.19 810.88 126.15C813.02 125.77 812.85 124.25 812.63 122.72C811.75 116.56 810.47 110.48 808.82 104.49C808.21 102.26 808.19 99.9201 807.1 97.7701C806.14 95.8801 805.01 94.7001 802.75 94.7801C800.3 94.8701 797.85 94.8001 795.39 94.8001V94.8701L795.35 94.8501ZM679.48 90.5301C679.45 90.6701 679.42 90.8101 679.39 90.9501C678.54 90.9501 677.69 90.9001 676.85 90.9601C675.24 91.0801 674.57 91.5801 674.56 92.5701C674.55 93.8701 675.57 95.7401 676.44 95.9701C679.05 96.6401 683.67 94.7401 684.82 93.1501C685.25 92.5501 685.12 92.0301 684.61 91.8701C682.93 91.3401 681.2 90.9701 679.49 90.5301H679.48Z" fill="black"/>
<path d="M636.73 115.44C636.73 117.99 636.8 120.54 636.71 123.09C636.62 125.67 635.82 128.07 634.31 130.18C633.78 130.92 633.1 131.71 632.3 132.08C629.59 133.31 626.84 134.12 623.71 133.37C620.94 132.7 618.16 132.18 615.42 131.3C611.93 130.18 608.97 128.17 605.78 126.55C605.39 126.35 604.88 125.58 604.99 125.39C605.26 124.91 605.8 124.41 606.33 124.26C609.67 123.34 610.17 122.93 610.47 119.69C610.65 117.79 610.53 115.87 610.53 113.96C610.53 113 610.08 112.17 609.13 112.11C607.56 112.02 605.94 112.05 604.39 112.3C602.88 112.54 602.04 113.75 601.69 115.15C600.94 118.12 600.34 121.12 599.61 124.08C599.2 125.72 598.82 127.4 598.11 128.91C597 131.27 595.35 132.9 592.5 133.53C589.02 134.3 585.8 133.69 582.56 132.81C580.01 132.12 577.52 131.18 575.02 130.29C574.33 130.04 573.65 129.67 573.1 129.2C572.78 128.93 572.49 128.3 572.57 127.92C572.83 126.69 572.93 125.14 573.72 124.37C575.73 122.44 575.52 119.97 575.97 117.65C576.11 116.93 576.08 116.17 576.22 115.45C577.1 111.06 576.28 109.67 572.01 108.5C571.51 108.36 570.97 108.23 570.46 108.25C564.4 108.43 564.93 106.69 565.1 113.43C565.2 117.44 565.52 121.45 565.68 125.46C565.8 128.54 564.65 131.28 563.09 133.84C561.35 136.7 558.41 137.35 555.4 137.52C552.33 137.7 549.26 137.59 546.21 136.99C543.11 136.38 539.93 136.13 536.81 135.58C535.04 135.27 533.31 134.72 531.6 134.18C529.74 133.59 529.29 132.67 529.94 130.81C530.25 129.93 530.59 128.9 531.25 128.32C533.16 126.64 534.41 124.39 536.53 122.87C538.15 121.71 538.95 119.86 539.71 117.9C541.31 113.75 540.8 109.54 540.75 105.33C540.73 103.29 539.81 102.44 537.77 102.45C532.89 102.47 527.99 102.26 523.22 103.64C521.31 104.19 520.45 104.92 520.42 106.86C520.39 109.07 520.74 111.29 520.69 113.5C520.65 115.48 520.39 117.46 520.07 119.42C519.82 120.98 519.27 122.48 518.95 124.03C517.99 128.69 514.58 131.17 510.64 132.98C506.96 134.67 502.87 135.26 498.9 135.45C495.69 135.6 492.38 134.82 489.21 134.05C484.14 132.83 480.23 129.5 476.29 126.32C475.73 125.87 475.38 125.16 474.98 124.54C473.91 122.84 474.19 122.13 476.1 121.6C479.06 120.78 482.01 119.97 484.97 119.17C485.28 119.09 485.6 119.03 485.92 119.04C489.82 119.26 492.44 116.91 495.04 114.52C496.2 113.45 496.66 112.11 496.72 110.54C496.8 108.65 497.15 106.77 497.18 104.88C497.23 101.97 496.12 100.06 493.11 99.9401C491.8 99.8901 490.56 99.8201 489.66 98.6901C488.64 97.4101 488.8 96.3801 490.21 95.5201C490.66 95.2501 491.17 95.0601 491.66 94.8601C492.15 94.6601 492.66 94.5101 493.13 94.2801C496.17 92.8001 497.23 91.0601 496.57 87.6101C495.18 80.3701 493.61 73.1601 492.07 65.9501C491.33 62.5001 488.8 60.7101 485.77 59.4201C484.81 59.0101 483.81 58.6101 482.97 58.0001C481.32 56.8001 481.51 55.0201 483.22 53.9501C485.83 52.3201 488.85 51.9101 491.74 51.6501C496.77 51.1901 501.82 50.8601 506.82 52.6101C510 53.7201 512.33 55.7701 513.72 58.4101C515.87 62.4801 517.78 66.7801 517.74 71.6301C517.73 73.1901 518.2 74.7501 518.45 76.3101C518.84 78.7001 519.2 81.0901 519.63 83.4801C520.14 86.3601 521.94 87.6101 525.01 87.0301C528.52 86.3701 532 86.6301 535.5 86.5301C538.07 86.4601 538.92 85.8501 538.79 83.4001C538.57 78.9801 538.14 74.5701 537.76 70.1501C537.55 67.7301 537.14 65.3301 537.05 62.9101C536.98 60.9701 535.87 60.0401 534.31 59.4101C533.33 59.0101 532.26 58.8401 531.29 58.4301C530.42 58.0701 529.53 57.6401 528.83 57.0401C527.72 56.0801 527.81 55.0201 528.92 54.0601C529.24 53.7901 529.6 53.5001 529.99 53.3901C532.51 52.6601 534.87 51.3401 537.61 51.4301C539.95 51.5101 542.3 51.3701 544.64 51.4801C551.24 51.7901 558.27 56.4601 559.98 63.7001C560.39 65.4301 560.5 67.2301 560.67 69.0101C561.07 73.1001 561.42 77.2001 561.78 81.3001C561.83 81.8301 561.85 82.3601 561.85 82.8901C561.9 88.8301 562.68 94.6801 563.78 100.51C564.09 102.17 564.78 103.18 566.1 103.04C569.23 102.7 572.45 102.99 575.44 101.57C576.99 100.83 577.74 99.6601 577.86 98.1201C578.09 95.0601 578.6 92.0701 579.47 89.1201C579.82 87.9201 579.39 87.2701 578.2 87.1401C577.36 87.0501 576.49 87.2101 575.65 87.1001C574.4 86.9401 573.08 86.8301 571.94 86.3501C569.89 85.4901 569.61 83.4201 571.33 82.0501C573.39 80.4101 575.34 78.5501 577.45 77.1201C580.05 75.3601 582.97 73.5901 586.5 73.6901C587.95 73.7301 589.46 73.4301 590.87 73.0401C594.02 72.1801 597.24 72.2901 600.39 72.5201C606.4 72.9601 612.39 73.8301 617.8 76.8201C621.12 78.6501 624.48 80.4301 627.67 82.4601C628.77 83.1601 629.59 84.4601 630.24 85.6401C631.81 88.5201 633.36 91.4201 634.61 94.4401C635.41 96.3601 635.94 98.4801 636.1 100.54C636.5 105.49 636.62 110.47 636.86 115.44C636.82 115.44 636.78 115.44 636.74 115.44H636.73Z" fill="black"/>
<path d="M888.92 54.71C893.19 54.08 897.05 55.25 900.99 56.13C906.45 57.34 910.96 60.18 915.23 63.5C916.62 64.58 917.61 66.19 918.77 67.56C921.02 70.22 923.31 72.86 925.5 75.57C926.35 76.62 926.95 77.86 927.73 78.96C929.37 81.29 931 83.63 932.72 85.89C934.54 88.27 936.06 90.77 936.59 93.76C936.68 94.28 936.87 94.82 936.8 95.32C936.37 98.43 936.28 101.55 934.9 104.54C933 108.66 930.33 112.18 927.24 115.35C925.19 117.45 922.72 119.2 920.26 120.83C917.09 122.93 913.82 124.89 910.46 126.66C907.14 128.41 903.81 130.12 899.94 130.68C897.56 131.02 895.23 131.87 892.77 131.88C889.09 131.9 885.39 132.02 881.76 131.41C877.08 130.62 872.53 129.31 868.19 127.33C867.71 127.11 867.19 126.96 866.76 126.67C864.75 125.3 862.71 123.96 860.77 122.49C857.76 120.21 855.96 116.89 853.67 113.99C853.26 110.34 850.41 107.26 851.09 103.37C851.47 101.2 851.91 99 852.64 96.94C853.7 93.96 855.26 91.15 856.22 88.14C856.9 86.01 858.06 83.77 857.12 81.42C856.55 80 857.23 79.44 858.33 79.03C860.21 78.32 862.11 77.66 864 76.99C864.3 76.88 864.66 76.88 864.91 76.71C865.56 76.25 866.16 75.72 866.78 75.21C866.18 74.8 865.64 74.23 864.98 74C862.08 73.01 859.13 72.14 856.22 71.19C852.81 70.09 849.23 69.41 846.38 66.98C844.98 65.79 845.03 65.16 846.51 64.15C850.44 61.49 854.89 60.18 859.43 59.06C860.35 58.83 861.31 58.65 862.16 58.26C864.71 57.09 867.5 57.05 870.17 56.54C874.21 55.78 878.29 55.18 882.38 54.73C884.59 54.49 886.85 54.69 888.91 54.69L888.92 54.71ZM885.22 86.9C884.95 87.91 884.82 89.34 884.19 90.49C883.09 92.52 881.91 94.59 880.35 96.28C878.02 98.8 877.02 101.94 875.82 104.95C874.01 109.51 873.95 112.87 879.5 116.63C880.81 117.52 882.19 118.36 883.64 118.97C884.67 119.41 885.91 119.7 887.01 119.57C888.98 119.34 890.95 118.87 892.85 118.27C897.25 116.89 900.95 114.25 904.58 111.5C906.98 109.67 908.83 107.45 910.08 104.69C910.96 102.76 910.49 100.81 909.21 99.71C907.16 97.94 906.3 95.61 905.06 93.43C904.17 91.87 903.3 90.15 901.62 89.44C899.64 88.6 898.42 87.09 897.15 85.56C895.89 84.05 894.5 82.62 893.43 80.98C891.92 78.67 890.04 76.56 887.44 76.06C884.87 75.57 882.75 74.37 880.42 73.49C878.44 72.74 876.25 72.72 874.23 73.71C873.78 73.93 873.44 74.37 873.06 74.71C873.46 75.02 873.82 75.47 874.27 75.6C876.1 76.12 877.96 76.49 879.79 77.01C882.12 77.67 883.66 79.24 884.29 81.54C884.73 83.16 884.88 84.86 885.23 86.91L885.22 86.9Z" fill="black"/>
<path d="M434.371 97.36C431.841 97.29 429.391 97.08 426.871 96.34C423.571 95.37 419.991 95.3 416.531 94.93C415.951 94.87 415.301 95.19 414.731 95.44C413.731 95.88 413.301 96.6 413.671 97.74C414.531 100.44 415.451 103.13 416.141 105.88C416.931 109.03 418.231 112.08 417.951 115.45C417.671 118.82 417.721 122.22 417.341 125.57C416.921 129.18 413.741 131.57 410.131 131.84C401.991 132.45 394.741 129.44 387.421 126.63C386.501 126.28 386.601 125.72 387.221 125.26C388.401 124.38 389.701 123.65 390.881 122.77C391.841 122.06 392.301 121.13 392.511 119.84C393.101 116.25 393.231 112.73 392.511 109.13C392.021 106.66 392.031 104.1 391.731 101.58C391.611 100.54 391.451 99.43 390.951 98.54C390.531 97.79 389.681 96.95 388.901 96.79C386.731 96.37 384.501 96.24 382.281 96.08C379.961 95.91 377.661 96.06 375.331 95.49C372.951 94.91 370.451 95.46 368.101 96.16C365.801 96.84 363.591 96.86 361.231 96.29C357.541 95.4 354.411 97.13 351.411 99C350.781 99.39 351.031 99.96 351.501 100.29C352.001 100.65 352.561 100.98 353.151 101.13C359.711 102.72 366.311 104.17 372.851 105.86C376.681 106.85 379.821 108.89 381.511 112.73C382.551 115.1 382.541 117.32 380.711 119.21C379.021 120.96 377.121 122.49 374.341 121.9C373.421 121.7 372.441 121.64 371.501 121.68C364.901 121.94 359.121 119.39 353.421 116.53C352.901 116.27 352.301 115.77 352.151 115.26C351.241 112.29 348.791 111.63 346.221 111.37C343.491 111.1 342.431 112.06 342.491 114.78C342.541 117.04 341.731 118.94 340.591 120.74C340.161 121.41 339.501 122.13 338.781 122.39C336.591 123.21 334.361 123.66 331.941 123.36C327.531 122.81 323.181 121.99 318.881 120.91C318.171 120.73 317.431 120.57 316.771 120.28C314.651 119.34 314.651 119.2 315.911 117.1C317.801 113.96 318.741 110.61 318.841 106.88C318.971 101.76 317.831 96.82 317.251 91.8C317.011 89.71 316.651 87.63 316.211 85.58C315.811 83.72 314.871 82.38 312.791 81.84C311.271 81.44 309.631 80.56 309.841 78.59C310.011 76.97 311.381 76.26 312.841 75.67C318.481 73.37 323.911 73.93 328.981 77.03C331.451 78.54 333.991 80.26 334.881 83.38C335.021 83.86 335.431 84.28 335.731 84.7C336.831 86.22 337.741 86.44 339.041 85.07C340.681 83.34 342.721 82.67 344.891 82.09C345.701 81.87 346.501 81.59 347.281 81.27C348.861 80.62 350.441 80.09 352.201 80.15C353.031 80.18 353.871 79.94 354.711 79.8C356.611 79.49 358.471 79.43 360.361 80.06C362.051 80.63 363.821 81.14 365.581 81.31C367.441 81.49 368.421 82.55 369.281 83.95C369.561 84.4 369.791 84.88 370.011 85.36C371.201 87.93 371.191 87.91 374.091 87.23C376.651 86.63 378.681 85.44 380.351 83.26C381.791 81.39 383.771 80.05 386.351 79.43C390.361 78.47 394.241 78.72 398.211 79.38C402.171 80.04 406.141 80.69 410.131 81C412.801 81.21 415.491 81.25 418.221 80.95C422.231 80.52 426.311 80.8 430.351 80.74C433.661 80.69 436.871 81.3 440.101 81.98C443.631 82.72 445.841 85.05 447.911 87.63C448.661 88.57 448.861 89.77 448.321 90.95C447.181 93.43 445.471 95.21 442.771 96.18C440.011 97.17 437.241 97.58 434.341 97.37L434.371 97.36Z" fill="black"/>
</svg>
