<svg width="950" height="220" viewBox="0 0 950 220" fill="none" xmlns="http://www.w3.org/2000/svg">
<path d="M68.2 152.06C70.21 155.04 71.53 158.59 74.09 160.43C79.8 164.54 85.79 168.63 92.28 171.2C100.34 174.39 108.94 176.4 117.45 178.28C129.74 181 140.08 176.08 149.07 168.34C157.97 160.67 164.72 151.29 165.7 139.17C166.4 130.56 165.99 121.87 166.07 113.78C153.17 114.77 140.81 115.67 128.46 116.68C122.2 117.19 115.97 117.94 109.72 118.53C107.02 118.78 104.75 119.43 103.32 122.15C102.11 124.48 99.97 124.34 98.08 122.87C95.34 120.74 94.33 117.89 95.29 114.49C96.16 111.42 98.58 110.89 101.38 110.73C120.21 109.7 139.03 108.58 157.86 107.56C159.88 107.45 161.93 107.81 164.8 108.02C163.44 102.86 162.74 97.5699 160.66 92.8699C157.04 84.6599 153.45 76.2099 148.3 68.9499C134.45 49.4099 115.15 38.7699 91.19 36.0299C79.23 34.6599 67.6 35.9399 56.22 38.8299C50.17 40.3599 44.36 43.6399 39.08 47.0899C34.61 50.0199 35.02 53.4299 39.33 56.6499C41.73 58.4399 44.45 59.7899 47.01 61.3699C49.33 62.7999 50.46 65.2099 48.88 67.2099C47.97 68.3599 44.78 68.8799 43.29 68.2099C39.47 66.4799 35.79 64.2199 32.47 61.6299C27.19 57.5199 26.54 50.9599 29.9 45.1199C33.77 38.4099 40.12 35.1899 47.02 33.3099C59.3 29.9699 71.77 27.0899 84.65 28.1399C100.17 29.3999 115.42 32.1799 128.81 40.6699C141.59 48.7699 152.05 59.3699 159.17 72.8199C169.46 92.2799 174.83 112.95 173.52 135.1C172.48 152.78 164.46 166.44 150.04 176.71C139.27 184.38 127.62 188.73 114.33 187.22C102.08 185.83 90.61 181.8 80.31 174.98C75.32 171.67 70.54 167.95 66.06 163.97C61.38 159.82 62.24 155.4 68.21 152.02L68.2 152.06Z" fill="black"/>
<path d="M621.431 167.54C621.121 168.69 621.161 170.69 620.181 171.68C618.781 173.09 616.631 173.76 614.801 174.74C613.971 173.15 612.481 171.58 612.411 169.96C611.811 155.02 606.521 141.16 602.941 126.89C600.991 119.1 599.961 111.08 598.551 103.16C597.771 98.7998 597.461 99.0598 593.241 99.9998C581.261 102.66 569.211 105.09 557.101 107.09C549.941 108.27 549.171 108.82 550.541 115.88C552.631 126.6 554.861 137.3 556.571 148.07C557.131 151.61 556.511 155.42 555.971 159.04C555.481 162.35 553.241 164.62 549.771 164.42C546.441 164.23 546.561 161.15 546.301 158.77C545.801 154.29 545.391 149.8 545.121 145.31C545.051 144.19 545.381 142.23 545.981 142.03C549.411 140.91 548.231 138.48 547.791 136.4C546.761 131.6 545.411 126.86 544.421 122.05C543.601 118.07 542.591 114.44 538.801 112.03C537.871 111.44 537.161 108.54 537.711 107.92C542.211 102.92 540.021 97.3298 538.741 92.3698C533.241 70.9298 527.811 49.4998 525.471 27.4398C525.251 25.3398 526.211 22.6298 527.561 20.9498C529.541 18.4898 532.951 19.5498 533.891 22.6198C534.321 24.0298 534.421 25.5798 534.401 27.0698C534.211 42.7798 537.161 58.0198 541.081 73.1498C543.101 80.9498 544.701 88.8598 546.461 96.7198C546.971 98.9798 547.591 101.16 550.601 100.67C563.401 98.5798 576.271 96.7998 588.971 94.1698C595.961 92.7198 597.111 89.7198 595.011 83.0198C592.641 75.4698 590.311 67.8998 587.651 60.4498C586.421 57.0098 587.931 55.0398 590.541 53.8198C593.351 52.5098 595.101 54.6898 595.841 56.9098C598.611 65.3298 601.821 73.6998 603.511 82.3498C605.551 92.7598 605.801 103.52 607.631 113.99C609.131 122.57 611.691 130.97 613.981 139.39C616.061 147.02 618.451 154.56 620.621 162.17C621.061 163.73 621.121 165.39 621.441 167.52L621.431 167.54Z" fill="black"/>
<path d="M780.8 150.63C778.47 147.9 776.31 145 773.7 142.57C773.04 141.95 770.41 142.32 769.62 143.14C764.72 148.18 758.97 148.83 752.59 147.06C747.05 145.52 741.41 144.16 737.07 138.94C732.59 148.01 723.85 150.05 715.66 152.9C713.2 153.76 712.59 155.24 713.74 157.24C715.3 159.94 717.17 162.47 719 165C720.66 167.3 722.48 169.57 719.64 172.15C716.67 174.84 714.49 172.8 712.22 170.82C707.71 166.9 705.85 161.91 703.93 156.27C701.32 148.58 702.04 141.25 702.55 133.68C702.64 132.33 702.92 130.97 703.3 129.66C706.37 118.99 714.45 115.8 724.17 121.28C730.22 124.69 736.2 128.1 737.18 136.71C743.49 132.53 747.6 137.78 752.51 139.63C759.23 142.16 760.46 141.91 764.95 136.32C767.46 133.2 771.26 131.93 774.37 134.41C778.56 137.75 782.09 141.96 785.74 145.93C788.03 148.42 790.04 151.16 792.17 153.79C792.85 154.63 793.89 155.39 794.13 156.35C795.19 160.55 796.46 164.76 796.85 169.04C797.76 179.1 789.8 185.62 779.25 183.84C769.07 182.12 760.76 176.59 752.57 170.82C750.79 169.56 749.1 168.15 747.44 166.72C742.18 162.19 743.11 156.71 749.9 154.97C755.27 153.59 760.95 153.3 766.51 152.77C770.97 152.34 775.45 152.27 779.93 152.04C780.22 151.56 780.52 151.09 780.81 150.61L780.8 150.63ZM754.95 161.11C754.77 161.75 754.59 162.39 754.41 163.03C759.08 166.14 763.5 169.74 768.48 172.22C772.69 174.32 777.47 175.66 782.14 176.36C788.79 177.36 791.83 172.89 789.3 166.65C787.407 161.983 783.93 159.613 778.87 159.54C777.5 159.52 776.12 159.39 774.77 159.5C768.16 160 761.56 160.56 754.96 161.1L754.95 161.11ZM706.68 138.79C706.76 139.82 706.8 141.05 706.96 142.27C707.55 146.94 709.1 147.85 713.59 146.31C716.43 145.33 719.35 144.58 722.14 143.48C725.48 142.17 729.51 140.53 729.4 136.66C729.34 134.38 726.36 131.89 724.22 130.04C720.6 126.93 716.13 124.4 711.47 126.69C706.89 128.95 707.02 134.08 706.68 138.79Z" fill="black"/>
<path d="M231.58 150.55C232.93 153.35 234.04 155.21 234.73 157.21C235.29 158.83 235.97 160.85 235.47 162.29C234.87 164.02 233.06 165.34 231.77 166.83C230.5 165.6 229.14 164.45 227.98 163.12C227.47 162.54 227.38 161.61 227.08 160.85C224.2 153.79 223.81 153.84 217.12 156.95C208.45 160.98 199.03 161.73 192.11 153.34C187.76 148.05 187.85 139.23 193.05 134.79C196.67 131.7 200.72 129.09 204.73 126.5C208.5 124.07 212.67 123.11 217.24 123.61C218.86 123.79 220.98 123.44 222.19 122.48C226.82 118.82 232.19 117.71 237.25 119.82C243.31 122.36 249.14 125.84 254.38 129.82C258.51 132.96 258.5 138.81 254.96 142.66C250.24 147.8 244.73 151.76 237.09 150.87C235.63 150.7 234.15 150.69 231.57 150.55H231.58ZM233.83 126.9C230.76 126.6 228.26 127.51 227.19 130.5C226.32 132.91 225.42 135.5 225.48 137.98C225.53 139.77 227.28 143.09 228.04 143.03C234.23 142.49 240.45 141.66 246.48 140.18C249.77 139.37 249.89 136.42 247.65 134.06C243.9 130.12 239.34 127.53 233.84 126.9H233.83ZM208.22 150.73C208.36 151.06 208.5 151.38 208.64 151.71C210.76 150.64 213.52 150.08 214.88 148.4C218.21 144.27 217.42 139.14 216.54 134.34C216.38 133.49 213.53 132.17 212.59 132.58C208.01 134.59 203.53 136.9 199.27 139.52C196.44 141.26 196.47 143.93 198.55 146.51C201.03 149.58 204.16 151.18 208.22 150.74V150.73Z" fill="black"/>
<path d="M305.039 150.63C305.669 152.78 306.559 154.93 306.879 157.16C307.129 158.94 307.139 161.05 306.389 162.6C305.719 163.99 303.879 165.68 302.569 165.67C301.329 165.67 299.769 163.81 298.939 162.43C297.759 160.46 297.139 158.16 296.219 156.03C294.509 152.08 293.359 151.77 289.789 154.14C284.799 157.46 279.509 159.46 273.309 159.45C263.149 159.42 257.459 146.35 261.819 139.28C263.979 135.78 267.159 132.78 270.329 130.08C273.149 127.67 276.689 128.05 280.069 129.43C282.739 130.52 284.969 130.41 287.589 128.41C293.909 123.6 303.089 124.12 310.259 129.21C312.249 130.62 314.119 132.28 315.799 134.06C320.829 139.38 320.009 144.12 313.409 147.48C310.889 148.76 308.099 149.51 305.029 150.65L305.039 150.63ZM275.039 152.6C275.269 152.34 275.499 152.08 275.739 151.82C276.549 151.7 277.509 151.8 278.139 151.41C281.249 149.47 285.959 147.98 286.939 145.22C288.319 141.35 283.179 140.08 280.329 138.2C279.559 137.69 278.349 136.98 277.719 137.25C274.989 138.41 271.989 139.47 269.909 141.42C268.729 142.53 268.229 145.84 269.039 147.22C270.339 149.43 272.969 150.85 275.039 152.61V152.6ZM293.899 134.75C295.409 135.94 297.219 136.67 297.759 137.94C298.789 140.39 299.639 142.5 302.849 141.76C305.099 141.24 307.319 140.63 309.819 139.99C305.779 134.09 298.579 131.9 293.909 134.75H293.899Z" fill="black"/>
<path d="M798.57 127.3C801.66 132.62 804.41 133.49 808.38 131.1C811.85 129.02 814.701 130.39 816.591 133.11C820.481 138.7 824.131 144.48 827.401 150.45C828.221 151.95 827.88 154.91 826.88 156.38C825.45 158.46 822.93 158.63 820.92 156.41C818.63 153.88 815.801 151.65 814.151 148.75C808.761 139.24 799.02 135.3 790.61 129.64C789.94 129.19 788.991 129.06 788.451 128.5C787.041 127.05 785.79 125.44 784.48 123.9C786.53 122.51 788.45 120.28 790.68 119.9C794.39 119.27 798.3 119.77 802.13 119.9C816.06 120.4 829.99 120.95 843.92 121.49C844.74 121.52 845.751 121.28 846.341 121.67C847.751 122.61 848.96 123.84 850.26 124.96C848.87 125.87 847.481 127.58 846.091 127.58C832.571 127.53 819.06 127.17 805.54 126.95C803.44 126.92 801.34 127.14 798.57 127.29V127.3Z" fill="black"/>
<path d="M870.11 122.36C876.45 123.56 883.2 123.79 889.01 126.24C895.02 128.77 900.46 133.06 905.52 137.33C910.52 141.55 909.78 148.06 904.1 151.36C900.41 153.51 896.16 154.93 891.98 155.96C887.76 157 883.32 157.18 878.97 157.72C861.77 159.85 852.09 142.49 853.28 131.02C853.69 127.12 857.27 124.29 862.51 123.69C864.94 123.41 867.43 123.69 869.89 123.71C869.96 123.26 870.03 122.81 870.1 122.36H870.11ZM867.63 126.4C866.35 127.06 863.71 127.51 862.91 128.96C859.4 135.32 862.45 144.57 868.85 148.2C878.43 153.64 887.97 150.21 897.26 147.51C901.48 146.29 901.6 143.94 898.26 140.93C891.6 134.94 883.89 130.66 875.3 128.05C873.1 127.38 870.79 127.06 867.62 126.39L867.63 126.4Z" fill="black"/>
<path d="M337.669 148.85C341.369 150.06 344.289 151.58 347.319 151.86C351.359 152.23 355.489 151.66 359.579 151.43C361.209 151.34 362.909 150.67 364.439 150.96C366.119 151.27 367.659 152.39 369.259 153.15C368.139 154.52 367.279 156.68 365.869 157.13C352.729 161.31 340.009 161.86 329.019 151.57C326.539 149.25 322.689 147.81 323.829 143.17C325.169 137.72 326.009 132.22 332.449 129.85C337.599 127.95 342.679 126.9 348.069 128.12C351.299 128.85 354.169 130.32 354.769 133.89C355.359 137.44 353.879 140.46 350.769 142.23C346.899 144.44 342.809 146.28 337.649 148.86L337.669 148.85ZM342.969 137.36C342.809 136.77 342.639 136.18 342.479 135.59C339.839 136.3 337.199 137.02 334.559 137.73C334.729 138.32 334.889 138.91 335.059 139.51C337.699 138.79 340.329 138.08 342.969 137.36Z" fill="black"/>
<path d="M654.93 154.75C661 151.66 668.05 152.77 672.61 147.09C673.49 146 676.15 145.59 677.74 145.95C683.22 147.18 687.16 150.86 690.12 155.41C690.88 156.57 690.34 158.57 690.4 160.18C688.88 160.1 686.73 160.63 685.93 159.83C680.15 154.06 673.96 156.65 667.52 158.13C661.73 159.46 655.69 160.56 649.8 160.42C643.75 160.28 638.4 157.46 635.73 151.37C633.85 147.09 634.57 143.07 638.12 139.79C643.99 134.38 650.83 130.81 658.89 129.98C664.83 129.37 670.71 132.28 672.39 137.16C673.04 139.03 672.9 142.24 671.7 143.44C669.67 145.48 667.65 143.15 666.42 141.4C660.83 133.49 650.75 135.37 645.15 140.59C641.49 144 641.34 147.68 645.41 150.56C648.18 152.51 651.71 153.4 654.92 154.77L654.93 154.75Z" fill="black"/>
<path d="M383.09 148.57C387.46 142.9 392.79 139.04 399.38 137.02C400.66 136.63 402.21 136.13 403.35 136.52C404.86 137.03 406.71 138.1 407.26 139.41C407.65 140.35 406.4 142.33 405.39 143.38C404.3 144.51 402.38 144.85 401.28 145.99C399.89 147.43 398.96 149.32 397.84 151.01C399.59 151.81 401.37 153.33 403.08 153.25C406.43 153.1 409.74 152.03 413.08 151.41C415.49 150.96 418.65 148.95 419.99 152.2C421.34 155.48 418.01 157.04 415.61 158.06C407.18 161.64 398.75 163.97 390.66 156.89C389.79 156.13 387.2 156.3 386.1 157.05C382.93 159.22 380.63 158.7 378.31 155.89C375.88 152.94 373.15 150.23 370.75 147.27C367.65 143.44 367.46 139.95 370.03 138.3C372.62 136.63 375.72 138.01 378.4 142.08C379.6 143.9 380.7 145.78 381.88 147.61C382.08 147.92 382.5 148.1 383.11 148.56L383.09 148.57Z" fill="black"/>
<path d="M432.94 138.54C435.3 140.64 437.01 142.1 438.66 143.64C442.13 146.89 442.16 150.68 438.76 153.97C436.07 156.58 433.51 156.43 431.18 153.42C430.1 152.02 428.97 150.59 428.23 149C426.11 144.44 422.94 141.11 418.13 139.42C417.37 139.15 416.42 138.83 416.01 138.23C415 136.74 413.45 134.96 413.65 133.52C413.85 132.14 415.84 130.2 417.3 129.95C421.3 129.27 425.43 129.18 429.52 129.18C433.88 129.18 438.26 129.39 442.59 129.85C444.12 130.01 445.54 131.15 447.01 131.85C445.91 133.37 445.11 135.66 443.63 136.24C440.65 137.42 437.29 137.67 432.94 138.53V138.54Z" fill="black"/>
</svg>
