<svg xmlns="http://www.w3.org/2000/svg" fill="none" viewBox="0 0 116 65">
  <path fill="#fff" d="M101.22 25.18V1.25h14.3v62.5h-14.3V38.93H81.58v24.82H67.3V1.25h14.28v23.93h19.64ZM26.79 0C36.13 0 43.87 3.13 50 9.38c6.19 6.19 9.29 13.9 9.29 23.12 0 9.17-3.1 16.9-9.29 23.21C43.81 61.91 36.07 65 26.79 65a32.48 32.48 0 0 1-15.63-3.84A29.06 29.06 0 0 1 0 50.54l12.32-7.15a13.93 13.93 0 0 0 5.8 5.63 18.4 18.4 0 0 0 8.67 2.05c4.28 0 7.91-1.04 10.89-3.12a16.2 16.2 0 0 0 6.34-8.75H18.48V25.8h25.54a16.2 16.2 0 0 0-6.34-8.75c-2.98-2.08-6.6-3.12-10.9-3.12-3.2 0-6.1.68-8.66 2.05a13.92 13.92 0 0 0-5.8 5.63L0 14.46A29.07 29.07 0 0 1 11.25 3.93 31.71 31.71 0 0 1 26.79 0Z"/>
</svg>
