<svg xmlns="http://www.w3.org/2000/svg" viewBox="0 0 20 20">
  <path fill="currentColor" fill-rule="evenodd" d="M17.96 10.45v.04c-.01.01 0 .01 0 0-.35 1.87-2.52 2.75-3.96 1.62.45-.96.6-2.05.38-3.1a4.6 4.6 0 0 0 1.77-1.54 2.67 2.67 0 0 1 1.8 3.02l.01-.04Zm-5.48 7.45c-1.56 0-2.78-1.57-2.46-3.16a4.47 4.47 0 0 0 2.7-1.01c.63.5 1.41.85 2.2.96.35 1.62-.86 3.21-2.44 3.21Zm-3.02-5.33c-3.14-.7-2.14-5.87 1-5.14 3.15.72 2.15 5.85-1 5.14Zm-3.1.32a4.78 4.78 0 0 0 1.7 1.4 4.92 4.92 0 0 0 .5 3.33c-3.03 1.6-5.18-3.28-2.2-4.73Zm-2.59-.36a2.68 2.68 0 0 1-1.63-3.57 2.47 2.47 0 0 1 3.8-1.07c-.46.96-.6 2.05-.4 3.1-.7.34-1.32.87-1.77 1.54ZM4.92 5.3Zm2.4-3.2c1.6-.1 2.92 1.5 2.6 3.15-.97.01-1.96.4-2.72 1.01a4.35 4.35 0 0 0-2.24-.96c-.34-1.57.86-3.13 2.36-3.2Zm6.24 5a4.77 4.77 0 0 0-1.69-1.4 4.93 4.93 0 0 0-.51-3.33c3.04-1.6 5.18 3.28 2.2 4.73Zm3.36-1.59c.65-4-3.7-7.02-6.96-4.73-3.25-2.29-7.6.73-6.95 4.73C-1 6.94-1 13.06 3 14.48c-.65 4 3.7 7.02 6.95 4.73 3.26 2.29 7.6-.73 6.96-4.73 4.11-1.45 4.1-7.51 0-8.96Z"/>
</svg>
