<svg xmlns="http://www.w3.org/2000/svg" viewBox="0 0 503.61 503.61">
  <path fill="currentColor" d="m305.75 80.86 41.39 34.69a8.4 8.4 0 0 0 10.78 0l41.36-34.68c9.39-7.92 16.07-18.2 18.95-29.55 1.37-5.42 1.68-9.96 1.3-13.5-.04-.33-.07-.63-.12-.9C417.28 16.15 401.12 0 380.35 0c-10.98 0-21.08 3.92-28.3 10.78C345.15 3.88 335.58 0 324.7 0c-20.77 0-36.93 16.14-39.06 36.93-.05.26-.08.56-.12.9-.38 3.53-.07 8.07 1.3 13.49 2.88 11.35 9.56 21.63 18.93 29.54zm-3.54-41.26.1-.76c1.21-12.67 10.55-22.05 22.39-22.05 9.23 0 16.16 4.31 19.57 11.85a8.4 8.4 0 0 0 15.3 0c3.26-7.22 11.2-11.85 20.78-11.85 11.84 0 21.18 9.38 22.39 22.05l.13.91c.14 1.43-.03 3.98-.91 7.45-2 7.84-6.72 15.12-13.49 20.82l-35.94 30.14-35.97-30.15c-6.75-5.7-11.48-12.97-13.46-20.82-.89-3.47-1.06-6.01-.89-7.59zM480.79 184.77l-.13-.01c-.74-.06-1.48-.1-2.23-.1H278.8c31.17-41.67 11.61-100.72-39.48-100.72-18.81 0-35.5 9.79-46.29 24.7-10.78-14.91-27.48-24.7-46.3-24.7-50.81 0-70.62 60.25-39.64 100.72H25.18c-.75 0-1.5.04-2.23.1l-.13.01A25.18 25.18 0 0 0 0 209.84v268.59a25.18 25.18 0 0 0 22.82 25.06l.13.01c.73.07 1.48.1 2.23.1h453.24c.76 0 1.5-.03 2.24-.1h.12a25.18 25.18 0 0 0 22.83-25.07v-268.6a25.18 25.18 0 0 0-22.82-25.06zM309.95 344.13l176.87-134.18v268.36L309.95 344.13zm-163.21-243.4c16.88 0 31.83 11.72 38.5 28.3 2.82 7.02 12.75 7.02 15.57 0 6.69-16.58 21.63-28.3 38.5-28.3 37.65 0 51.22 47.1 21.8 78.98a445.8 445.8 0 0 1-7.13 7.46l-.03.03a4506.57 4506.57 0 0 1-39.38 39.76l-21.53 21.48a7382.21 7382.21 0 0 1-60.8-61.27c-.02 0-.03-.02-.04-.03-3-3.06-5.53-5.66-7.38-7.57-29.3-30.32-15.5-78.85 21.92-78.85zM122.7 201.43c4.8 4.9 10.51 10.7 16.52 16.77 22.27 22.53 46.18 46.49 48.5 48.43a8.37 8.37 0 0 0 11.3-.48 9144.93 9144.93 0 0 0 34.12-34.05 4340.15 4340.15 0 0 0 30.36-30.66h206.75L291 337.45l-39.19 29.72-13.21-10.03-25.97-19.7h-.02l-179.25-136h89.36zM16.79 478.31V209.95l176.87 134.18L16.8 478.31zm16.55 8.51 174.2-132.15 20.9 15.85 18.29 13.87a8.38 8.38 0 0 0 10.15 0l39.18-29.72 174.2 132.15H33.34z"/>
</svg>
