<svg fill="currentColor" viewBox="0 0 64 29" xmlns="http://www.w3.org/2000/svg">
<path d="M15.15,24.37c-.45,1-.78,1.77-.24,2.42s1.32.47,2.42.23a7,7,0,0,1,4.34.41c.88.39,1.72.81,2.41.24s.48-1.33.23-2.42a7,7,0,0,1,.41-4.34c.46-1,.78-1.76.24-2.41s-1.32-.48-2.42-.23a7,7,0,0,1-4.33-.41c-1-.46-1.77-.78-2.42-.25s-.48,1.33-.23,2.43a7,7,0,0,1-.41,4.33Zm2.4-4.62a9.09,9.09,0,0,0,5.28.51,9.09,9.09,0,0,0-.51,5.28,8.94,8.94,0,0,0-3.46-.69A9.28,9.28,0,0,0,17,25,9,9,0,0,0,17.55,19.75Z" class="svg-elem-1"></path>

<path d="M49.26,21.89c1-.76,1.72-1.27,1.58-2.14s-1-1.12-2.19-1.5a8.19,8.19,0,0,1-4.19-3c-.76-1-1.27-1.73-2.14-1.58s-1.12,1-1.5,2.19a8.23,8.23,0,0,1-3,4.19c-1,.76-1.73,1.26-1.58,2.13s1,1.12,2.19,1.5a8.3,8.3,0,0,1,4.19,3c.61.83,1.2,1.74,2.13,1.58s1.12-1,1.5-2.19A8.26,8.26,0,0,1,49.26,21.89Zm-1.18-1.61a10.18,10.18,0,0,0-3.72,5.21s0,.07,0,.12l-.07-.11A10.31,10.31,0,0,0,39,21.79l-.12,0,.1-.07a10.31,10.31,0,0,0,3.71-5.21.56.56,0,0,0,0-.12.61.61,0,0,1,.07.1,10.29,10.29,0,0,0,5.22,3.71l.12,0Z" class="svg-elem-2"></path>

<path d="M36.41,14.08c.84-.62,1.5-1.11,1.36-1.93s-.92-1.07-1.92-1.37a6.6,6.6,0,0,1-3.35-2.4c-.62-.84-1.11-1.51-1.93-1.37s-1.07.93-1.38,1.93a6.56,6.56,0,0,1-2.39,3.35h0c-.84.62-1.51,1.11-1.37,1.93s.93,1.07,1.93,1.37A6.68,6.68,0,0,1,30.71,18c.56.75,1.07,1.5,1.93,1.37s1.07-.93,1.37-1.93A6.68,6.68,0,0,1,36.41,14.08Zm-4.23,2.53a8.67,8.67,0,0,0-4-2.85,8.67,8.67,0,0,0,2.85-4,8.67,8.67,0,0,0,4,2.85A8.67,8.67,0,0,0,32.18,16.61Z" class="svg-elem-3"></path>

<path d="M20.52,15.81a3.07,3.07,0,0,0,3.07-3.06h0a3.07,3.07,0,1,0-3.07,3.06Zm0-4.13a1.07,1.07,0,1,1-1.06,1.07A1.07,1.07,0,0,1,20.52,11.68Z" class="svg-elem-4"></path>

<path d="M31.22,20.89A3.07,3.07,0,1,0,34.28,24h0A3.07,3.07,0,0,0,31.22,20.89Zm0,4.13A1.07,1.07,0,1,1,32.28,24,1.07,1.07,0,0,1,31.22,25Z" class="svg-elem-5"></path>
</svg>
